<?xml version="1.0" encoding="utf-8"?>
<!-- Generator: Adobe Illustrator 26.3.1, SVG Export Plug-In . SVG Version: 6.00 Build 0)  -->
<svg version="1.1" id="Capa_1" xmlns="http://www.w3.org/2000/svg" xmlns:xlink="http://www.w3.org/1999/xlink" x="0px" y="0px"
	 viewBox="0 0 179.9 55.7" style="enable-background:new 0 0 179.9 55.7;" xml:space="preserve">
<style type="text/css">
	.st0{fill:#83D59C;enable-background:new    ;}
	.st1{opacity:0.8;}
	.st2{fill:#FFFFFF;}
	.st3{opacity:0.2;}
	.st4{fill:url(#SVGID_1_);}
	.st5{fill:url(#SVGID_00000036214606779657283770000009668244168379588491_);}
	.st6{opacity:0.9;}
	.st7{fill:#4AD97E;stroke:#FFFFFF;stroke-miterlimit:10;}
	.st8{fill:#3D3129;}
	.st9{fill:url(#SVGID_00000011709809884478144920000016469400516181387419_);}
	.st10{fill:url(#SVGID_00000018218539511861493820000001070330733481438360_);}
	.st11{fill:url(#SVGID_00000014604799736914619750000012365213731469021829_);}
	.st12{fill:url(#SVGID_00000021801142198199543320000017839019340587196851_);}
	.st13{fill:#48C170;stroke:#FFFFFF;stroke-miterlimit:10;}
	.st14{fill:#6B463E;}
	.st15{fill:#A24D3A;}
	.st16{fill:#C36950;}
	.st17{fill:#4AD97E;stroke:#FFFFFF;stroke-width:2;stroke-miterlimit:10;}
	.st18{fill:#4AD97E;stroke:#FFFFFF;stroke-width:4;stroke-miterlimit:10;}
	.st19{fill:#F8F5EB;}
	.st20{fill:#FEFEFE;}
	.st21{fill:#ED9133;}
	.st22{fill:#221609;}
	.st23{fill:#E5E7EB;}
</style>
<image style="overflow:visible;" width="109" height="451" xlink:href="C1CBA000.jpg"  transform="matrix(14.7405 0 0 1.9687 -4983.543 -3001.0857)">
</image>
<rect x="-1341.6" y="-3422.1" class="st0" width="1607" height="888.8"/>
<g class="st1">
	<g>
		<g>
			<g>
				<path class="st2" d="M2131.1-1175.2v41.6h-18.2v-72.6h12.9l23.5,23.5l23.5-23.5h12.9v72.6h-18.2v-41.6l-18.2,18.2L2131.1-1175.2
					z"/>
				<path class="st2" d="M2212.8-1133.6h-18.2v-72.6h18.2V-1133.6z"/>
				<path class="st2" d="M2240-1175.2v41.6h-18.2v-72.6h12.9l41.6,41.6v-41.6h18.2v72.6h-12.9L2240-1175.2z"/>
				<path class="st2" d="M2376.2-1206.2v18.2h-27.2v54.5h-18.2v-54.5h-27.2v-18.2H2376.2z"/>
				<path class="st2" d="M2403.4-1151.7h54.5v18.2h-72.6v-72.6h18.2L2403.4-1151.7L2403.4-1151.7z"/>
				<path class="st2" d="M2471.5-1166.1l-27.2-27.2v-12.9h12.9l23.5,23.5l23.5-23.5h12.9v12.9l-27.2,27.2v32.5h-18.2V-1166.1z"/>
			</g>
		</g>
	</g>
</g>
<g class="st1">
	<path class="st2" d="M1958.3-952c-35.3,0-70.7,0.2-106,0c-49.9-0.3-95.1-15.3-135.3-44.8c-32.1-23.5-57.4-52.7-74.2-89
		c-9.4-20.2-15.8-41.4-19.4-63.4c-2.3-14.2-3.1-28.6-3.2-42.9c-0.1-66.4,0-132.7,0-199.1c0-11.7,8.5-24.1,19.8-27.9
		c4.7-1.6,9.8-2.6,14.8-2.6c69.5-0.2,139-0.1,208.5-0.1c32.4,0,63.7,5.5,93.7,18.2c22,9.3,41.9,21.9,60.2,37.2
		c20.2,17,37.4,36.6,50.9,59.4c14.2,24.1,23.6,50,28.7,77.6c2.8,15,3.8,30.2,3.8,45.4c0,67.2,0,134.4,0,201.7
		c0,16.9-13.6,30.4-30.5,30.4C2032.7-952,1995.5-952,1958.3-952z M1921.2-1042.7C1921.2-1042.7,1921.2-1042.7,1921.2-1042.7
		c24.8,0,49.6,0,74.5,0c5.8,0,10.4-3.3,11.3-8.3c0.5-2.7,0.8-5.6,0.8-8.4c0-42.9,0.1-85.9-0.1-128.8c-0.1-8.7-1-17.5-2.5-26
		c-5.2-29.1-18.8-54.1-39.5-75c-13.3-13.4-28.8-23.7-46.3-31.1c-15.2-6.4-31.1-10.6-47.6-10.9c-32.4-0.5-64.8-0.2-97.2-0.2
		c-16.6,0-33.2,0-49.8,0c-6,0-10.2,3.2-11.2,8.7c-0.4,1.9-0.3,3.9-0.3,5.8c-0.2,42.7-0.6,85.4-0.4,128.1c0.1,10.8,1,21.9,3.4,32.4
		c11.3,48.7,40.2,83.1,86.1,103c14,6.1,28.9,10,44.1,10.3C1871.3-1042.2,1896.3-1042.7,1921.2-1042.7z"/>
</g>
<image style="overflow:visible;" width="1500" height="500" xlink:href="C1CBA001.jpg"  transform="matrix(1 0 0 1 -897.4993 -2273.4155)">
</image>
<g class="st3">
	<path class="st2" d="M-4183.5-2689.7c44.7,0,82.7-15.7,114.2-47.1c31.5-31.4,47.2-69.4,47.2-114h161.4
		c0,88.9-31.5,164.8-94.6,227.8c-63.1,63-139.2,94.5-228.2,94.5c-89,0-165.1-31.5-228.2-94.5c-63.1-63-94.6-138.9-94.6-227.8h161.4
		c0,44.6,15.7,82.6,47.2,114S-4228.1-2689.7-4183.5-2689.7z M-4344.9-2206.3h-161.4c0-88.9,31.5-164.8,94.6-227.8
		c63.1-63,139.1-94.5,228.2-94.5c89,0,165.1,31.5,228.2,94.5c63.1,63,94.6,138.9,94.6,227.8h-161.4c0-44.6-15.7-82.6-47.2-114
		c-31.5-31.4-69.5-47.1-114.2-47.1c-44.7,0-82.7,15.7-114.2,47.1C-4329.2-2288.9-4344.9-2250.9-4344.9-2206.3z"/>
</g>
<circle class="st2" cx="-1480.5" cy="-3035.4" r="94.2"/>
<linearGradient id="SVGID_1_" gradientUnits="userSpaceOnUse" x1="-3677.9885" y1="-3870.8259" x2="-3177.0525" y2="-3870.8259" gradientTransform="matrix(4.489659e-11 1 1 -4.489659e-11 -309.3604 673.9562)">
	<stop  offset="0" style="stop-color:#51DE83"/>
	<stop  offset="1" style="stop-color:#4AD97E;stop-opacity:0"/>
</linearGradient>
<polygon class="st4" points="-3377.5,-2503.1 -3377.5,-3004 -4982.9,-3004 -4982.9,-2503.1 "/>
<image style="overflow:visible;" width="109" height="451" xlink:href="C1CBA007.jpg"  transform="matrix(14.7405 0 0 1.9687 -4977.9355 -2035.9792)">
</image>
<linearGradient id="SVGID_00000160173458730596928170000017267078889335284127_" gradientUnits="userSpaceOnUse" x1="-2723.6057" y1="-3653.5645" x2="-2359.01" y2="-3653.5645" gradientTransform="matrix(4.489659e-11 1 1 -4.489659e-11 -309.3604 673.9562)">
	<stop  offset="0" style="stop-color:#51DE83"/>
	<stop  offset="1" style="stop-color:#4AD97E;stop-opacity:0"/>
</linearGradient>
<polygon style="fill:url(#SVGID_00000160173458730596928170000017267078889335284127_);" points="-3160.2,-1685.1 -3160.2,-2049.6 
	-4765.6,-2049.6 -4765.6,-1685.1 "/>
<g>
	
		<text transform="matrix(1 0 0 1 -4852.5845 -2865.9597)" class="st19" style="font-family:'Fraunces72ptSoft-Black'; font-size:96px;"> </text>
</g>
<g>
	<text transform="matrix(1 0 0 1 -4860.5449 -1678.0769)"><tspan x="0" y="0" class="st19" style="font-family:'Fraunces72ptSoft-Black'; font-size:112.5536px;">Effortless Wealth </tspan><tspan x="0" y="135.1" class="st19" style="font-family:'Fraunces72ptSoft-Black'; font-size:112.5536px;">Building</tspan></text>
</g>
<g>
	<text transform="matrix(1 0 0 1 -4856.4243 -1455.5745)"><tspan x="0" y="0" class="st8" style="font-family:'Fraunces72ptSoft-Black'; font-size:50px;">Smart strategies to grow your savings</tspan><tspan x="0" y="60" class="st8" style="font-family:'Fraunces72ptSoft-Black'; font-size:50px;">while you relax.</tspan></text>
</g>
<g>
	<g class="st6">
		<path class="st7" d="M-3579.9-1444.1c-22.1,0-44.2,0.1-66.4,0c-31.2-0.2-59.5-9.6-84.7-28.1c-20.1-14.7-35.9-33-46.5-55.7
			c-5.9-12.7-9.9-25.9-12.2-39.7c-1.5-8.9-2-17.9-2-26.9c0-41.5,0-83.1,0-124.6c0-7.3,5.3-15.1,12.4-17.5c2.9-1,6.2-1.6,9.3-1.7
			c43.5-0.1,87-0.1,130.5-0.1c20.3,0,39.9,3.5,58.6,11.4c13.7,5.8,26.2,13.7,37.7,23.3c12.7,10.6,23.4,22.9,31.8,37.2
			c8.9,15.1,14.8,31.3,18,48.5c1.8,9.4,2.4,18.9,2.4,28.4c0,42.1,0,84.2,0,126.2c0,10.6-8.5,19-19.1,19.1
			C-3533.3-1444.1-3556.6-1444.1-3579.9-1444.1z M-3603.1-1500.9C-3603.1-1500.9-3603.1-1500.9-3603.1-1500.9c15.5,0,31.1,0,46.6,0
			c3.6,0,6.5-2.1,7.1-5.2c0.3-1.7,0.5-3.5,0.5-5.2c0-26.9,0.1-53.7-0.1-80.6c0-5.4-0.6-10.9-1.6-16.3c-3.3-18.2-11.8-33.8-24.7-47
			c-8.3-8.4-18-14.9-29-19.4c-9.5-4-19.5-6.7-29.8-6.8c-20.3-0.3-40.6-0.1-60.9-0.1c-10.4,0-20.8,0-31.1,0c-3.8,0-6.4,2-7,5.4
			c-0.2,1.2-0.2,2.4-0.2,3.7c-0.1,26.7-0.4,53.5-0.2,80.2c0,6.8,0.6,13.7,2.2,20.3c7.1,30.5,25.1,52,53.9,64.5
			c8.8,3.8,18.1,6.2,27.6,6.5C-3634.3-1500.6-3618.7-1500.9-3603.1-1500.9z"/>
	</g>
	<g>
		<g class="st6">
			<path class="st7" d="M-3499.6-1569.3c-22.1,0-44.2,0.1-66.4,0c-31.2-0.2-59.5-9.6-84.7-28.1c-20.1-14.7-35.9-33-46.5-55.7
				c-5.9-12.7-9.9-25.9-12.2-39.7c-1.5-8.9-2-17.9-2-26.9c0-41.5,0-83.1,0-124.6c0-7.3,5.3-15.1,12.4-17.5c2.9-1,6.2-1.6,9.3-1.7
				c43.5-0.1,87-0.1,130.5-0.1c20.3,0,39.9,3.5,58.6,11.4c13.7,5.8,26.2,13.7,37.7,23.3c12.7,10.6,23.4,22.9,31.8,37.2
				c8.9,15.1,14.8,31.3,18,48.5c1.8,9.4,2.4,18.9,2.4,28.4c0,42.1,0,84.2,0,126.2c0,10.6-8.5,19-19.1,19.1
				C-3453-1569.3-3476.3-1569.3-3499.6-1569.3z M-3522.8-1626.1C-3522.8-1626.1-3522.8-1626.1-3522.8-1626.1c15.5,0,31.1,0,46.6,0
				c3.6,0,6.5-2.1,7.1-5.2c0.3-1.7,0.5-3.5,0.5-5.2c0-26.9,0.1-53.7-0.1-80.6c0-5.4-0.6-10.9-1.6-16.3c-3.3-18.2-11.8-33.8-24.7-47
				c-8.3-8.4-18-14.9-29-19.4c-9.5-4-19.5-6.7-29.8-6.8c-20.3-0.3-40.6-0.1-60.9-0.1c-10.4,0-20.8,0-31.1,0c-3.8,0-6.4,2-7,5.4
				c-0.2,1.2-0.2,2.4-0.2,3.7c-0.1,26.7-0.4,53.5-0.2,80.2c0,6.8,0.6,13.7,2.2,20.3c7.1,30.5,25.1,52,53.9,64.5
				c8.8,3.8,18.1,6.2,27.6,6.5C-3554-1625.8-3538.4-1626.1-3522.8-1626.1z"/>
		</g>
		<g>
			<path class="st2" d="M-3660.7-1318.4c-22.1,0-44.2,0.1-66.4,0c-31.2-0.2-59.5-9.6-84.7-28.1c-20.1-14.7-35.9-33-46.5-55.7
				c-5.9-12.7-9.9-25.9-12.2-39.7c-1.5-8.9-2-17.9-2-26.9c0-41.5,0-83.1,0-124.6c0-7.3,5.3-15.1,12.4-17.5c2.9-1,6.2-1.6,9.3-1.7
				c43.5-0.1,87-0.1,130.5-0.1c20.3,0,39.9,3.5,58.6,11.4c13.7,5.8,26.2,13.7,37.7,23.3c12.7,10.6,23.4,22.9,31.8,37.2
				c8.9,15.1,14.8,31.3,18,48.5c1.8,9.4,2.4,18.9,2.4,28.4c0,42.1,0,84.2,0,126.2c0,10.6-8.5,19-19.1,19.1
				C-3614.1-1318.4-3637.4-1318.4-3660.7-1318.4z M-3683.9-1375.2C-3683.9-1375.2-3683.9-1375.2-3683.9-1375.2c15.5,0,31.1,0,46.6,0
				c3.6,0,6.5-2.1,7.1-5.2c0.3-1.7,0.5-3.5,0.5-5.2c0-26.9,0.1-53.7-0.1-80.6c0-5.4-0.6-10.9-1.6-16.3c-3.3-18.2-11.8-33.8-24.7-47
				c-8.3-8.4-18-14.9-29-19.4c-9.5-4-19.5-6.7-29.8-6.8c-20.3-0.3-40.6-0.1-60.9-0.1c-10.4,0-20.8,0-31.1,0c-3.8,0-6.4,2-7,5.4
				c-0.2,1.2-0.2,2.4-0.2,3.7c-0.1,26.7-0.4,53.5-0.2,80.2c0,6.8,0.6,13.7,2.2,20.3c7.1,30.5,25.1,52,53.9,64.5
				c8.8,3.8,18.1,6.2,27.6,6.5C-3715.1-1374.9-3699.5-1375.2-3683.9-1375.2z"/>
		</g>
	</g>
</g>
<g>
	<g>
		
			<text transform="matrix(1 0 0 1 -3536.9507 -1180.6595)" class="st19" style="font-family:'Fraunces72ptSoft-Regular'; font-size:34.4196px;">mintly.so</text>
	</g>
	<g class="st6">
		<path class="st2" d="M-3561.9-1171.8c-2.6,0-5.2,0-7.8,0c-3.7,0-7-1.1-10-3.3c-2.4-1.7-4.2-3.9-5.5-6.6c-0.7-1.5-1.2-3.1-1.4-4.7
			c-0.2-1.1-0.2-2.1-0.2-3.2c0-4.9,0-9.8,0-14.7c0-0.9,0.6-1.8,1.5-2.1c0.3-0.1,0.7-0.2,1.1-0.2c5.1,0,10.3,0,15.4,0
			c2.4,0,4.7,0.4,6.9,1.3c1.6,0.7,3.1,1.6,4.5,2.8c1.5,1.3,2.8,2.7,3.8,4.4c1.1,1.8,1.7,3.7,2.1,5.7c0.2,1.1,0.3,2.2,0.3,3.4
			c0,5,0,9.9,0,14.9c0,1.2-1,2.3-2.3,2.3C-3556.4-1171.8-3559.2-1171.8-3561.9-1171.8z M-3564.7-1178.5
			C-3564.7-1178.5-3564.7-1178.5-3564.7-1178.5c1.8,0,3.7,0,5.5,0c0.4,0,0.8-0.2,0.8-0.6c0-0.2,0.1-0.4,0.1-0.6c0-3.2,0-6.4,0-9.5
			c0-0.6-0.1-1.3-0.2-1.9c-0.4-2.2-1.4-4-2.9-5.6c-1-1-2.1-1.8-3.4-2.3c-1.1-0.5-2.3-0.8-3.5-0.8c-2.4,0-4.8,0-7.2,0
			c-1.2,0-2.5,0-3.7,0c-0.4,0-0.8,0.2-0.8,0.6c0,0.1,0,0.3,0,0.4c0,3.2,0,6.3,0,9.5c0,0.8,0.1,1.6,0.3,2.4c0.8,3.6,3,6.1,6.4,7.6
			c1,0.5,2.1,0.7,3.3,0.8C-3568.3-1178.5-3566.5-1178.5-3564.7-1178.5z"/>
	</g>
</g>
<g>
	<g>
		<g class="st6">
			<g>
				<g>
					<g>
						<path class="st8" d="M-4803.9-1978.7v8.4h-3.7v-14.7h2.6l4.7,4.7l4.7-4.7h2.6v14.7h-3.7v-8.4l-3.7,3.7L-4803.9-1978.7z"/>
						<path class="st8" d="M-4787.3-1970.2h-3.7v-14.7h3.7V-1970.2z"/>
						<path class="st8" d="M-4781.8-1978.7v8.4h-3.7v-14.7h2.6l8.4,8.4v-8.4h3.7v14.7h-2.6L-4781.8-1978.7z"/>
						<path class="st8" d="M-4754.3-1984.9v3.7h-5.5v11h-3.7v-11h-5.5v-3.7H-4754.3z"/>
						<path class="st8" d="M-4748.8-1973.9h11v3.7h-14.7v-14.7h3.7L-4748.8-1973.9L-4748.8-1973.9z"/>
						<path class="st8" d="M-4735-1976.8l-5.5-5.5v-2.6h2.6l4.7,4.7l4.7-4.7h2.6v2.6l-5.5,5.5v6.6h-3.7V-1976.8z"/>
					</g>
				</g>
			</g>
		</g>
		<g class="st6">
			<path class="st8" d="M-4825.4-1955.9c-3.3,0-6.5,0-9.8,0c-4.6,0-8.8-1.4-12.5-4.1c-3-2.2-5.3-4.9-6.8-8.2
				c-0.9-1.9-1.5-3.8-1.8-5.8c-0.2-1.3-0.3-2.6-0.3-4c0-6.1,0-12.2,0-18.4c0-1.1,0.8-2.2,1.8-2.6c0.4-0.1,0.9-0.2,1.4-0.2
				c6.4,0,12.8,0,19.2,0c3,0,5.9,0.5,8.6,1.7c2,0.9,3.9,2,5.5,3.4c1.9,1.6,3.5,3.4,4.7,5.5c1.3,2.2,2.2,4.6,2.6,7.2
				c0.3,1.4,0.4,2.8,0.4,4.2c0,6.2,0,12.4,0,18.6c0,1.6-1.3,2.8-2.8,2.8C-4818.5-1955.9-4821.9-1955.9-4825.4-1955.9z
				 M-4828.8-1964.3C-4828.8-1964.3-4828.8-1964.3-4828.8-1964.3c2.3,0,4.6,0,6.9,0c0.5,0,1-0.3,1-0.8c0-0.3,0.1-0.5,0.1-0.8
				c0-4,0-7.9,0-11.9c0-0.8-0.1-1.6-0.2-2.4c-0.5-2.7-1.7-5-3.6-6.9c-1.2-1.2-2.7-2.2-4.3-2.9c-1.4-0.6-2.9-1-4.4-1c-3,0-6,0-9,0
				c-1.5,0-3.1,0-4.6,0c-0.6,0-0.9,0.3-1,0.8c0,0.2,0,0.4,0,0.5c0,3.9-0.1,7.9,0,11.8c0,1,0.1,2,0.3,3c1,4.5,3.7,7.7,7.9,9.5
				c1.3,0.6,2.7,0.9,4.1,1C-4833.4-1964.2-4831.1-1964.3-4828.8-1964.3z"/>
		</g>
	</g>
</g>
<image style="overflow:visible;" width="109" height="451" xlink:href="C1CBA002.jpg"  transform="matrix(14.7405 0 0 1.9687 -4971.8076 -1023.3669)">
</image>
<linearGradient id="SVGID_00000028314897719089125210000017208990355680189347_" gradientUnits="userSpaceOnUse" x1="-1703.3503" y1="-3858.8411" x2="-1338.7546" y2="-3858.8411" gradientTransform="matrix(4.489659e-11 1 1 -4.489659e-11 -309.3604 673.9562)">
	<stop  offset="0" style="stop-color:#51DE83"/>
	<stop  offset="1" style="stop-color:#4AD97E;stop-opacity:0"/>
</linearGradient>
<polygon style="fill:url(#SVGID_00000028314897719089125210000017208990355680189347_);" points="-3365.5,-664.8 -3365.5,-1029.4 
	-4970.9,-1029.4 -4970.9,-664.8 "/>
<g>
	<g>
		
			<text transform="matrix(1 0 0 1 -3530.823 -174.1915)" class="st19" style="font-family:'Fraunces72ptSoft-Regular'; font-size:34.4196px;">mintly.so</text>
	</g>
	<g class="st6">
		<path class="st2" d="M-3555.8-165.3c-2.6,0-5.2,0-7.8,0c-3.7,0-7-1.1-10-3.3c-2.4-1.7-4.2-3.9-5.5-6.6c-0.7-1.5-1.2-3.1-1.4-4.7
			c-0.2-1.1-0.2-2.1-0.2-3.2c0-4.9,0-9.8,0-14.7c0-0.9,0.6-1.8,1.5-2.1c0.3-0.1,0.7-0.2,1.1-0.2c5.1,0,10.3,0,15.4,0
			c2.4,0,4.7,0.4,6.9,1.3c1.6,0.7,3.1,1.6,4.5,2.8c1.5,1.3,2.8,2.7,3.8,4.4c1,1.8,1.7,3.7,2.1,5.7c0.2,1.1,0.3,2.2,0.3,3.4
			c0,5,0,9.9,0,14.9c0,1.2-1,2.3-2.3,2.3C-3550.3-165.3-3553-165.3-3555.8-165.3z M-3558.5-172.1
			C-3558.5-172.1-3558.5-172.1-3558.5-172.1c1.8,0,3.7,0,5.5,0c0.4,0,0.8-0.2,0.8-0.6c0-0.2,0.1-0.4,0.1-0.6c0-3.2,0-6.4,0-9.5
			c0-0.6-0.1-1.3-0.2-1.9c-0.4-2.2-1.4-4-2.9-5.6c-1-1-2.1-1.8-3.4-2.3c-1.1-0.5-2.3-0.8-3.5-0.8c-2.4,0-4.8,0-7.2,0
			c-1.2,0-2.5,0-3.7,0c-0.4,0-0.8,0.2-0.8,0.6c0,0.1,0,0.3,0,0.4c0,3.2,0,6.3,0,9.5c0,0.8,0.1,1.6,0.3,2.4c0.8,3.6,3,6.1,6.4,7.6
			c1,0.5,2.1,0.7,3.3,0.8C-3562.2-172-3560.4-172.1-3558.5-172.1z"/>
	</g>
</g>
<g>
	<g>
		<g class="st6">
			<g>
				<g>
					<g>
						<path class="st8" d="M-4797.7-972.2v8.4h-3.7v-14.7h2.6l4.7,4.7l4.7-4.7h2.6v14.7h-3.7v-8.4l-3.7,3.7L-4797.7-972.2z"/>
						<path class="st8" d="M-4781.2-963.8h-3.7v-14.7h3.7V-963.8z"/>
						<path class="st8" d="M-4775.7-972.2v8.4h-3.7v-14.7h2.6l8.4,8.4v-8.4h3.7v14.7h-2.6L-4775.7-972.2z"/>
						<path class="st8" d="M-4748.2-978.5v3.7h-5.5v11h-3.7v-11h-5.5v-3.7H-4748.2z"/>
						<path class="st8" d="M-4742.7-967.4h11v3.7h-14.7v-14.7h3.7L-4742.7-967.4L-4742.7-967.4z"/>
						<path class="st8" d="M-4728.9-970.4l-5.5-5.5v-2.6h2.6l4.7,4.7l4.7-4.7h2.6v2.6l-5.5,5.5v6.6h-3.7V-970.4z"/>
					</g>
				</g>
			</g>
		</g>
		<g class="st6">
			<path class="st8" d="M-4819.2-949.5c-3.3,0-6.5,0-9.8,0c-4.6,0-8.8-1.4-12.5-4.1c-3-2.2-5.3-4.9-6.8-8.2
				c-0.9-1.9-1.5-3.8-1.8-5.8c-0.2-1.3-0.3-2.6-0.3-4c0-6.1,0-12.2,0-18.4c0-1.1,0.8-2.2,1.8-2.6c0.4-0.1,0.9-0.2,1.4-0.2
				c6.4,0,12.8,0,19.2,0c3,0,5.9,0.5,8.6,1.7c2,0.9,3.9,2,5.5,3.4c1.9,1.6,3.5,3.4,4.7,5.5c1.3,2.2,2.2,4.6,2.6,7.2
				c0.3,1.4,0.4,2.8,0.4,4.2c0,6.2,0,12.4,0,18.6c0,1.6-1.3,2.8-2.8,2.8C-4812.4-949.5-4815.8-949.5-4819.2-949.5z M-4822.7-957.8
				C-4822.7-957.8-4822.7-957.8-4822.7-957.8c2.3,0,4.6,0,6.9,0c0.5,0,1-0.3,1-0.8c0-0.3,0.1-0.5,0.1-0.8c0-4,0-7.9,0-11.9
				c0-0.8-0.1-1.6-0.2-2.4c-0.5-2.7-1.7-5-3.6-6.9c-1.2-1.2-2.7-2.2-4.3-2.9c-1.4-0.6-2.9-1-4.4-1c-3,0-6,0-9,0c-1.5,0-3.1,0-4.6,0
				c-0.6,0-0.9,0.3-1,0.8c0,0.2,0,0.4,0,0.5c0,3.9-0.1,7.9,0,11.8c0,1,0.1,2,0.3,3c1,4.5,3.7,7.7,7.9,9.5c1.3,0.6,2.7,0.9,4.1,1
				C-4827.3-957.8-4825-957.8-4822.7-957.8z"/>
		</g>
	</g>
</g>
<image style="overflow:visible;" width="109" height="451" xlink:href="C1CBA003.jpg"  transform="matrix(14.7405 0 0 1.9687 -4982.5312 -3924.8303)">
</image>
<linearGradient id="SVGID_00000060030449139952436850000010533506513055263116_" gradientUnits="userSpaceOnUse" x1="-4598.6694" y1="-3869.5645" x2="-4234.0737" y2="-3869.5645" gradientTransform="matrix(4.489659e-11 1 1 -4.489659e-11 -309.3604 673.9562)">
	<stop  offset="0" style="stop-color:#51DE83"/>
	<stop  offset="1" style="stop-color:#4AD97E;stop-opacity:0"/>
</linearGradient>
<polygon style="fill:url(#SVGID_00000060030449139952436850000010533506513055263116_);" points="-3376.2,-3560.1 -3376.2,-3924.7 
	-4981.6,-3924.7 -4981.6,-3560.1 "/>
<g>
	<g>
		
			<text transform="matrix(1 0 0 1 -3541.5464 -3069.5107)" class="st19" style="font-family:'Fraunces72ptSoft-Regular'; font-size:34.4196px;">mintly.so</text>
	</g>
	<g class="st6">
		<path class="st2" d="M-3566.5-3060.7c-2.6,0-5.2,0-7.8,0c-3.7,0-7-1.1-10-3.3c-2.4-1.7-4.2-3.9-5.5-6.6c-0.7-1.5-1.2-3.1-1.4-4.7
			c-0.2-1.1-0.2-2.1-0.2-3.2c0-4.9,0-9.8,0-14.7c0-0.9,0.6-1.8,1.5-2.1c0.3-0.1,0.7-0.2,1.1-0.2c5.1,0,10.3,0,15.4,0
			c2.4,0,4.7,0.4,6.9,1.3c1.6,0.7,3.1,1.6,4.5,2.8c1.5,1.3,2.8,2.7,3.8,4.4c1,1.8,1.7,3.7,2.1,5.7c0.2,1.1,0.3,2.2,0.3,3.4
			c0,5,0,9.9,0,14.9c0,1.2-1,2.3-2.3,2.3C-3561-3060.7-3563.8-3060.7-3566.5-3060.7z M-3569.2-3067.4
			C-3569.2-3067.4-3569.2-3067.4-3569.2-3067.4c1.8,0,3.7,0,5.5,0c0.4,0,0.8-0.2,0.8-0.6c0-0.2,0.1-0.4,0.1-0.6c0-3.2,0-6.4,0-9.5
			c0-0.6-0.1-1.3-0.2-1.9c-0.4-2.2-1.4-4-2.9-5.6c-1-1-2.1-1.8-3.4-2.3c-1.1-0.5-2.3-0.8-3.5-0.8c-2.4,0-4.8,0-7.2,0
			c-1.2,0-2.5,0-3.7,0c-0.4,0-0.8,0.2-0.8,0.6c0,0.1,0,0.3,0,0.4c0,3.2,0,6.3,0,9.5c0,0.8,0.1,1.6,0.3,2.4c0.8,3.6,3,6.1,6.4,7.6
			c1,0.5,2.1,0.7,3.3,0.8C-3572.9-3067.3-3571.1-3067.4-3569.2-3067.4z"/>
	</g>
</g>
<g>
	<g>
		<g class="st6">
			<g>
				<g>
					<g>
						<path class="st8" d="M-4808.5-3867.5v8.4h-3.7v-14.7h2.6l4.7,4.7l4.7-4.7h2.6v14.7h-3.7v-8.4l-3.7,3.7L-4808.5-3867.5z"/>
						<path class="st8" d="M-4791.9-3859.1h-3.7v-14.7h3.7V-3859.1z"/>
						<path class="st8" d="M-4786.4-3867.5v8.4h-3.7v-14.7h2.6l8.4,8.4v-8.4h3.7v14.7h-2.6L-4786.4-3867.5z"/>
						<path class="st8" d="M-4758.9-3873.8v3.7h-5.5v11h-3.7v-11h-5.5v-3.7H-4758.9z"/>
						<path class="st8" d="M-4753.4-3862.8h11v3.7h-14.7v-14.7h3.7L-4753.4-3862.8L-4753.4-3862.8z"/>
						<path class="st8" d="M-4739.6-3865.7l-5.5-5.5v-2.6h2.6l4.7,4.7l4.7-4.7h2.6v2.6l-5.5,5.5v6.6h-3.7V-3865.7z"/>
					</g>
				</g>
			</g>
		</g>
		<g class="st6">
			<path class="st8" d="M-4830-3844.8c-3.3,0-6.5,0-9.8,0c-4.6,0-8.8-1.4-12.5-4.1c-3-2.2-5.3-4.9-6.8-8.2c-0.9-1.9-1.5-3.8-1.8-5.8
				c-0.2-1.3-0.3-2.6-0.3-4c0-6.1,0-12.2,0-18.4c0-1.1,0.8-2.2,1.8-2.6c0.4-0.1,0.9-0.2,1.4-0.2c6.4,0,12.8,0,19.2,0
				c3,0,5.9,0.5,8.6,1.7c2,0.9,3.9,2,5.5,3.4c1.9,1.6,3.5,3.4,4.7,5.5c1.3,2.2,2.2,4.6,2.6,7.2c0.3,1.4,0.4,2.8,0.4,4.2
				c0,6.2,0,12.4,0,18.6c0,1.6-1.3,2.8-2.8,2.8C-4823.1-3844.8-4826.5-3844.8-4830-3844.8z M-4833.4-3853.1
				C-4833.4-3853.1-4833.4-3853.1-4833.4-3853.1c2.3,0,4.6,0,6.9,0c0.5,0,1-0.3,1-0.8c0-0.3,0.1-0.5,0.1-0.8c0-4,0-7.9,0-11.9
				c0-0.8-0.1-1.6-0.2-2.4c-0.5-2.7-1.7-5-3.6-6.9c-1.2-1.2-2.7-2.2-4.3-2.9c-1.4-0.6-2.9-1-4.4-1c-3,0-6,0-9,0c-1.5,0-3.1,0-4.6,0
				c-0.6,0-0.9,0.3-1,0.8c0,0.2,0,0.4,0,0.5c0,3.9-0.1,7.9,0,11.8c0,1,0.1,2,0.3,3c1,4.5,3.7,7.7,7.9,9.5c1.3,0.6,2.7,0.9,4.1,1
				C-4838-3853.1-4835.7-3853.1-4833.4-3853.1z"/>
		</g>
	</g>
</g>
<image style="overflow:visible;" width="109" height="451" xlink:href="C1CBA00E.jpg"  transform="matrix(14.7405 0 0 1.9687 -3040.8291 -2346.958)">
</image>
<linearGradient id="SVGID_00000096058592359301075870000005644642698863315591_" gradientUnits="userSpaceOnUse" x1="-4972.4565" y1="-2378.2451" x2="-4607.8608" y2="-2378.2451" gradientTransform="matrix(4.489659e-11 1 1 -4.489659e-11 -309.3604 673.9562)">
	<stop  offset="0" style="stop-color:#51DE83"/>
	<stop  offset="1" style="stop-color:#4AD97E;stop-opacity:0"/>
</linearGradient>
<polygon style="fill:url(#SVGID_00000096058592359301075870000005644642698863315591_);" points="-1884.9,-3933.9 -1884.9,-4298.5 
	-3490.3,-4298.5 -3490.3,-3933.9 "/>
<g>
	<text transform="matrix(1 0 0 1 -1167.864 -2978.6726)"><tspan x="0" y="0" class="st19" style="font-family:'Fraunces72ptSoft-Black'; font-size:112.5536px;">Effortless Wealth </tspan><tspan x="0" y="135.1" class="st19" style="font-family:'Fraunces72ptSoft-Black'; font-size:112.5536px;">Building</tspan></text>
</g>
<g>
	<text transform="matrix(1 0 0 1 -4858.6304 -3600.6301)"><tspan x="0" y="0" class="st19" style="font-family:'Fraunces72ptSoft-Black'; font-size:112.5536px;">Everything You </tspan><tspan x="0" y="135.1" class="st19" style="font-family:'Fraunces72ptSoft-Black'; font-size:112.5536px;">Need to Grow</tspan></text>
</g>
<g>
	<text transform="matrix(1 0 0 1 -1163.7434 -2756.1702)"><tspan x="0" y="0" class="st8" style="font-family:'Fraunces72ptSoft-Black'; font-size:50px;">Smart strategies to grow your savings</tspan><tspan x="0" y="60" class="st8" style="font-family:'Fraunces72ptSoft-Black'; font-size:50px;">while you relax.</tspan></text>
</g>
<g class="st6">
	<path class="st7" d="M-1801.3-3466.3c-22.1,0-44.2,0.1-66.4,0c-31.2-0.2-59.5-9.6-84.7-28.1c-20.1-14.7-35.9-33-46.5-55.7
		c-5.9-12.7-9.9-25.9-12.2-39.7c-1.5-8.9-2-17.9-2-26.9c0-41.5,0-83.1,0-124.6c0-7.3,5.3-15.1,12.4-17.5c2.9-1,6.2-1.6,9.3-1.7
		c43.5-0.1,87-0.1,130.5-0.1c20.3,0,39.9,3.5,58.6,11.4c13.7,5.8,26.2,13.7,37.7,23.3c12.7,10.6,23.4,22.9,31.8,37.2
		c8.9,15.1,14.8,31.3,18,48.5c1.8,9.4,2.4,18.9,2.4,28.4c0,42.1,0,84.2,0,126.2c0,10.6-8.5,19-19.1,19.1
		C-1754.8-3466.2-1778-3466.3-1801.3-3466.3z M-1824.5-3523C-1824.5-3523-1824.5-3523-1824.5-3523c15.5,0,31.1,0,46.6,0
		c3.6,0,6.5-2.1,7.1-5.2c0.3-1.7,0.5-3.5,0.5-5.2c0-26.9,0.1-53.7-0.1-80.6c0-5.4-0.6-10.9-1.6-16.3c-3.3-18.2-11.8-33.8-24.7-47
		c-8.3-8.4-18-14.9-29-19.4c-9.5-4-19.5-6.7-29.8-6.8c-20.3-0.3-40.6-0.1-60.9-0.1c-10.4,0-20.8,0-31.1,0c-3.8,0-6.4,2-7,5.4
		c-0.2,1.2-0.2,2.4-0.2,3.7c-0.1,26.7-0.4,53.5-0.2,80.2c0,6.8,0.6,13.7,2.2,20.3c7.1,30.5,25.1,52,53.9,64.5
		c8.8,3.8,18.1,6.2,27.6,6.5C-1855.7-3522.7-1840.1-3523-1824.5-3523z"/>
</g>
<g>
	<g class="st6">
		<path class="st7" d="M-1312-3717.9c-22.1,0-44.2,0.1-66.4,0c-31.2-0.2-59.5-9.6-84.7-28.1c-20.1-14.7-35.9-33-46.5-55.7
			c-5.9-12.7-9.9-25.9-12.2-39.7c-1.5-8.9-2-17.9-2-26.9c0-41.5,0-83.1,0-124.6c0-7.3,5.3-15.1,12.4-17.5c2.9-1,6.2-1.6,9.3-1.7
			c43.5-0.1,87-0.1,130.5-0.1c20.3,0,39.9,3.5,58.6,11.4c13.7,5.8,26.2,13.7,37.7,23.3c12.7,10.6,23.4,22.9,31.8,37.2
			c8.9,15.1,14.8,31.3,18,48.5c1.8,9.4,2.4,18.9,2.4,28.4c0,42.1,0,84.2,0,126.2c0,10.6-8.5,19-19.1,19.1
			C-1265.5-3717.8-1288.7-3717.9-1312-3717.9z M-1335.2-3774.6C-1335.2-3774.6-1335.2-3774.6-1335.2-3774.6c15.5,0,31.1,0,46.6,0
			c3.6,0,6.5-2.1,7.1-5.2c0.3-1.7,0.5-3.5,0.5-5.2c0-26.9,0.1-53.7-0.1-80.6c0-5.4-0.6-10.9-1.6-16.3c-3.3-18.2-11.8-33.8-24.7-47
			c-8.3-8.4-18-14.9-29-19.4c-9.5-4-19.5-6.7-29.8-6.8c-20.3-0.3-40.6-0.1-60.9-0.1c-10.4,0-20.8,0-31.1,0c-3.8,0-6.4,2-7,5.4
			c-0.2,1.2-0.2,2.4-0.2,3.7c-0.1,26.7-0.4,53.5-0.2,80.2c0,6.8,0.6,13.7,2.2,20.3c7.1,30.5,25.1,52,53.9,64.5
			c8.8,3.8,18.1,6.2,27.6,6.5C-1366.4-3774.3-1350.8-3774.6-1335.2-3774.6z"/>
	</g>
	<g>
		<path class="st2" d="M-1473.1-3466.9c-22.1,0-44.2,0.1-66.4,0c-31.2-0.2-59.5-9.6-84.7-28.1c-20.1-14.7-35.9-33-46.5-55.7
			c-5.9-12.7-9.9-25.9-12.2-39.7c-1.5-8.9-2-17.9-2-26.9c0-41.5,0-83.1,0-124.6c0-7.3,5.3-15.1,12.4-17.5c2.9-1,6.2-1.6,9.3-1.7
			c43.5-0.1,87-0.1,130.5-0.1c20.3,0,39.9,3.5,58.6,11.4c13.7,5.8,26.2,13.7,37.7,23.3c12.7,10.6,23.4,22.9,31.8,37.2
			c8.9,15.1,14.8,31.3,18,48.5c1.8,9.4,2.4,18.9,2.4,28.4c0,42.1,0,84.2,0,126.2c0,10.6-8.5,19-19.1,19.1
			C-1426.5-3466.9-1449.8-3466.9-1473.1-3466.9z M-1496.3-3523.7C-1496.3-3523.7-1496.3-3523.7-1496.3-3523.7c15.5,0,31.1,0,46.6,0
			c3.6,0,6.5-2.1,7.1-5.2c0.3-1.7,0.5-3.5,0.5-5.2c0-26.9,0.1-53.7-0.1-80.6c0-5.4-0.6-10.9-1.6-16.3c-3.3-18.2-11.8-33.8-24.7-47
			c-8.3-8.4-18-14.9-29-19.4c-9.5-4-19.5-6.7-29.8-6.8c-20.3-0.3-40.6-0.1-60.9-0.1c-10.4,0-20.8,0-31.1,0c-3.8,0-6.4,2-7,5.4
			c-0.2,1.2-0.2,2.4-0.2,3.7c-0.1,26.7-0.4,53.5-0.2,80.2c0,6.8,0.6,13.7,2.2,20.3c7.1,30.5,25.1,52,53.9,64.5
			c8.8,3.8,18.1,6.2,27.6,6.5C-1527.5-3523.4-1511.9-3523.7-1496.3-3523.7z"/>
	</g>
</g>
<g>
	<g>
		
			<text transform="matrix(1 0 0 1 -1592.9506 -2352.5745)" class="st19" style="font-family:'Fraunces72ptSoft-Regular'; font-size:34.4196px;">mintly.so</text>
	</g>
	<g class="st6">
		<path class="st2" d="M-1617.9-2343.7c-2.6,0-5.2,0-7.8,0c-3.7,0-7-1.1-10-3.3c-2.4-1.7-4.2-3.9-5.5-6.6c-0.7-1.5-1.2-3.1-1.4-4.7
			c-0.2-1.1-0.2-2.1-0.2-3.2c0-4.9,0-9.8,0-14.7c0-0.9,0.6-1.8,1.5-2.1c0.3-0.1,0.7-0.2,1.1-0.2c5.1,0,10.3,0,15.4,0
			c2.4,0,4.7,0.4,6.9,1.3c1.6,0.7,3.1,1.6,4.5,2.8c1.5,1.3,2.8,2.7,3.8,4.4c1,1.8,1.7,3.7,2.1,5.7c0.2,1.1,0.3,2.2,0.3,3.4
			c0,5,0,9.9,0,14.9c0,1.2-1,2.3-2.3,2.3C-1612.4-2343.7-1615.2-2343.7-1617.9-2343.7z M-1620.7-2350.4
			C-1620.7-2350.4-1620.7-2350.4-1620.7-2350.4c1.8,0,3.7,0,5.5,0c0.4,0,0.8-0.2,0.8-0.6c0-0.2,0.1-0.4,0.1-0.6c0-3.2,0-6.4,0-9.5
			c0-0.6-0.1-1.3-0.2-1.9c-0.4-2.2-1.4-4-2.9-5.6c-1-1-2.1-1.8-3.4-2.3c-1.1-0.5-2.3-0.8-3.5-0.8c-2.4,0-4.8,0-7.2,0
			c-1.2,0-2.5,0-3.7,0c-0.4,0-0.8,0.2-0.8,0.6c0,0.1,0,0.3,0,0.4c0,3.2,0,6.3,0,9.5c0,0.8,0.1,1.6,0.3,2.4c0.8,3.6,3,6.1,6.4,7.6
			c1,0.5,2.1,0.7,3.3,0.8C-1624.3-2350.4-1622.5-2350.4-1620.7-2350.4z"/>
	</g>
</g>
<g>
	<g>
		<g class="st6">
			<g>
				<g>
					<g>
						<path class="st8" d="M-1111.2-3279.3v8.4h-3.7v-14.7h2.6l4.7,4.7l4.7-4.7h2.6v14.7h-3.7v-8.4l-3.7,3.7L-1111.2-3279.3z"/>
						<path class="st8" d="M-1094.7-3270.8h-3.7v-14.7h3.7V-3270.8z"/>
						<path class="st8" d="M-1089.2-3279.3v8.4h-3.7v-14.7h2.6l8.4,8.4v-8.4h3.7v14.7h-2.6L-1089.2-3279.3z"/>
						<path class="st8" d="M-1061.6-3285.5v3.7h-5.5v11h-3.7v-11h-5.5v-3.7H-1061.6z"/>
						<path class="st8" d="M-1056.1-3274.5h11v3.7h-14.7v-14.7h3.7L-1056.1-3274.5L-1056.1-3274.5z"/>
						<path class="st8" d="M-1042.4-3277.4l-5.5-5.5v-2.6h2.6l4.7,4.7l4.7-4.7h2.6v2.6l-5.5,5.5v6.6h-3.7V-3277.4z"/>
					</g>
				</g>
			</g>
		</g>
		<g class="st6">
			<path class="st8" d="M-1132.7-3256.5c-3.3,0-6.5,0-9.8,0c-4.6,0-8.8-1.4-12.5-4.1c-3-2.2-5.3-4.9-6.8-8.2
				c-0.9-1.9-1.5-3.8-1.8-5.8c-0.2-1.3-0.3-2.6-0.3-4c0-6.1,0-12.2,0-18.4c0-1.1,0.8-2.2,1.8-2.6c0.4-0.1,0.9-0.2,1.4-0.2
				c6.4,0,12.8,0,19.2,0c3,0,5.9,0.5,8.6,1.7c2,0.9,3.9,2,5.5,3.4c1.9,1.6,3.5,3.4,4.7,5.5c1.3,2.2,2.2,4.6,2.6,7.2
				c0.3,1.4,0.4,2.8,0.4,4.2c0,6.2,0,12.4,0,18.6c0,1.6-1.3,2.8-2.8,2.8C-1125.8-3256.5-1129.3-3256.5-1132.7-3256.5z
				 M-1136.1-3264.9C-1136.1-3264.9-1136.1-3264.9-1136.1-3264.9c2.3,0,4.6,0,6.9,0c0.5,0,1-0.3,1-0.8c0-0.3,0.1-0.5,0.1-0.8
				c0-4,0-7.9,0-11.9c0-0.8-0.1-1.6-0.2-2.4c-0.5-2.7-1.7-5-3.6-6.9c-1.2-1.2-2.7-2.2-4.3-2.9c-1.4-0.6-2.9-1-4.4-1c-3,0-6,0-9,0
				c-1.5,0-3.1,0-4.6,0c-0.6,0-0.9,0.3-1,0.8c0,0.2,0,0.4,0,0.5c0,3.9-0.1,7.9,0,11.8c0,1,0.1,2,0.3,3c1,4.5,3.7,7.7,7.9,9.5
				c1.3,0.6,2.7,0.9,4.1,1C-1140.7-3264.8-1138.4-3264.9-1136.1-3264.9z"/>
		</g>
	</g>
</g>
<linearGradient id="SVGID_00000031174081260735728080000017136431456654451604_" gradientUnits="userSpaceOnUse" x1="-2501.478" y1="-5504.6133" x2="-1782.627" y2="-5504.6133" gradientTransform="matrix(4.489659e-11 -1 1 4.489659e-11 -309.3604 -4647.6382)">
	<stop  offset="0" style="stop-color:#51DE83"/>
	<stop  offset="1" style="stop-color:#4AD97E;stop-opacity:0"/>
</linearGradient>
<polygon style="fill:url(#SVGID_00000031174081260735728080000017136431456654451604_);" points="-5011.2,-2865 -5011.2,-2146.2 
	-6616.7,-2146.2 -6616.7,-2865 "/>
<g>
	<g>
		
			<text transform="matrix(1 0 0 1 -3537.2866 -2133.876)" class="st19" style="font-family:'Fraunces72ptSoft-Regular'; font-size:34.4196px;">mintly.so</text>
	</g>
	<g class="st6">
		<path class="st2" d="M-3562.2-2125c-2.6,0-5.2,0-7.8,0c-3.7,0-7-1.1-10-3.3c-2.4-1.7-4.2-3.9-5.5-6.6c-0.7-1.5-1.2-3.1-1.4-4.7
			c-0.2-1.1-0.2-2.1-0.2-3.2c0-4.9,0-9.8,0-14.7c0-0.9,0.6-1.8,1.5-2.1c0.3-0.1,0.7-0.2,1.1-0.2c5.1,0,10.3,0,15.4,0
			c2.4,0,4.7,0.4,6.9,1.3c1.6,0.7,3.1,1.6,4.5,2.8c1.5,1.3,2.8,2.7,3.8,4.4c1.1,1.8,1.7,3.7,2.1,5.7c0.2,1.1,0.3,2.2,0.3,3.4
			c0,5,0,9.9,0,14.9c0,1.2-1,2.3-2.3,2.3C-3556.7-2125-3559.5-2125-3562.2-2125z M-3565-2131.7
			C-3565-2131.7-3565-2131.7-3565-2131.7c1.8,0,3.7,0,5.5,0c0.4,0,0.8-0.2,0.8-0.6c0-0.2,0.1-0.4,0.1-0.6c0-3.2,0-6.4,0-9.5
			c0-0.6-0.1-1.3-0.2-1.9c-0.4-2.2-1.4-4-2.9-5.6c-1-1-2.1-1.8-3.4-2.3c-1.1-0.5-2.3-0.8-3.5-0.8c-2.4,0-4.8,0-7.2,0
			c-1.2,0-2.5,0-3.7,0c-0.4,0-0.8,0.2-0.8,0.6c0,0.1,0,0.3,0,0.4c0,3.2,0,6.3,0,9.5c0,0.8,0.1,1.6,0.3,2.4c0.8,3.6,3,6.1,6.4,7.6
			c1,0.5,2.1,0.7,3.3,0.8C-3568.7-2131.7-3566.8-2131.7-3565-2131.7z"/>
	</g>
</g>
<g>
	<g>
		<g>
			<polygon class="st13" points="-1715.1,-2932.4 -1809.7,-2909.1 -1882.7,-2844.4 -1917.2,-2753.3 -1905.5,-2656.6 
				-1850.1,-2576.4 -1763.8,-2531.2 -1666.4,-2531.2 -1580.1,-2576.4 -1524.8,-2656.6 -1513.1,-2753.3 -1547.6,-2844.4 
				-1620.5,-2909.1 			"/>
			<polygon class="st7" points="-1726.6,-2942.5 -1821.2,-2919.2 -1894.1,-2854.6 -1928.6,-2763.5 -1916.9,-2666.8 -1861.6,-2586.6 
				-1775.3,-2541.3 -1677.8,-2541.3 -1591.6,-2586.6 -1536.2,-2666.8 -1524.5,-2763.5 -1559,-2854.6 -1632,-2919.2 			"/>
		</g>
		<g>
			<path class="st2" d="M-1692.1-2652.1c-12.6,0-25.3,0.1-37.9,0c-17.9-0.1-34-5.5-48.4-16c-11.5-8.4-20.5-18.9-26.5-31.8
				c-3.4-7.2-5.7-14.8-7-22.7c-0.8-5.1-1.1-10.2-1.1-15.4c0-23.7,0-47.5,0-71.2c0-4.2,3-8.6,7.1-10c1.7-0.6,3.5-0.9,5.3-0.9
				c24.9-0.1,49.7,0,74.6,0c11.6,0,22.8,2,33.5,6.5c7.9,3.3,15,7.8,21.5,13.3c7.2,6.1,13.4,13.1,18.2,21.2
				c5.1,8.6,8.4,17.9,10.3,27.7c1,5.4,1.4,10.8,1.4,16.2c0,24,0,48.1,0,72.1c0,6-4.9,10.9-10.9,10.9
				C-1665.5-2652.1-1678.8-2652.1-1692.1-2652.1z M-1705.4-2684.5C-1705.4-2684.5-1705.4-2684.5-1705.4-2684.5c8.9,0,17.8,0,26.6,0
				c2.1,0,3.7-1.2,4-3c0.2-1,0.3-2,0.3-3c0-15.4,0-30.7,0-46.1c0-3.1-0.4-6.2-0.9-9.3c-1.9-10.4-6.7-19.3-14.1-26.8
				c-4.7-4.8-10.3-8.5-16.6-11.1c-5.5-2.3-11.1-3.8-17-3.9c-11.6-0.2-23.2-0.1-34.8-0.1c-5.9,0-11.9,0-17.8,0c-2.2,0-3.6,1.1-4,3.1
				c-0.1,0.7-0.1,1.4-0.1,2.1c-0.1,15.3-0.2,30.5-0.1,45.8c0,3.9,0.4,7.8,1.2,11.6c4.1,17.4,14.4,29.7,30.8,36.8
				c5,2.2,10.3,3.6,15.8,3.7C-1723.2-2684.3-1714.3-2684.5-1705.4-2684.5z"/>
		</g>
	</g>
	<g>
		<g>
			<polygon class="st13" points="-1808.1,-3126.9 -1865.6,-3119.1 -1912.9,-3085.5 -1939.1,-3033.7 -1938.3,-2975.7 
				-1910.6,-2924.8 -1862.4,-2892.5 -1804.8,-2886.3 -1750.8,-2907.6 -1713,-2951.5 -1699.9,-3008 -1714.5,-3064.2 -1753.6,-3107 
							"/>
			<polygon class="st7" points="-1814.2,-3133.6 -1871.7,-3125.8 -1919,-3092.2 -1945.2,-3040.5 -1944.4,-2982.5 -1916.7,-2931.5 
				-1868.6,-2899.2 -1810.9,-2893 -1756.9,-2914.3 -1719.1,-2958.3 -1706,-3014.8 -1720.6,-3070.9 -1759.7,-3113.8 			"/>
		</g>
		<g>
			<path class="st2" d="M-1812.3-2959.5c-7.5-0.8-15-1.6-22.4-2.4c-10.6-1.2-19.8-5.4-27.6-12.6c-6.3-5.7-10.9-12.5-13.7-20.5
				c-1.5-4.5-2.4-9.1-2.7-13.9c-0.2-3.1,0-6.1,0.3-9.2c1.5-14,3-28.1,4.5-42.1c0.3-2.5,2.3-4.9,4.8-5.5c1-0.2,2.1-0.3,3.2-0.2
				c14.7,1.5,29.4,3.1,44.1,4.7c6.9,0.7,13.4,2.6,19.4,6c4.4,2.5,8.4,5.6,11.9,9.3c3.9,4.1,7.1,8.6,9.4,13.7
				c2.5,5.4,3.9,11.1,4.3,17.1c0.3,3.2,0.1,6.5-0.2,9.7c-1.5,14.2-3.1,28.5-4.6,42.7c-0.4,3.6-3.6,6.1-7.2,5.7
				C-1796.6-2957.8-1804.4-2958.6-1812.3-2959.5z M-1818.1-2979.5C-1818.1-2979.5-1818.1-2979.5-1818.1-2979.5
				c5.3,0.6,10.5,1.1,15.8,1.7c1.2,0.1,2.3-0.5,2.6-1.5c0.2-0.6,0.3-1.2,0.4-1.8c1-9.1,2-18.2,2.9-27.3c0.2-1.8,0.2-3.7,0.1-5.6
				c-0.4-6.3-2.8-11.9-6.7-16.8c-2.5-3.1-5.6-5.7-9.1-7.6c-3.1-1.7-6.3-3-9.8-3.4c-6.8-0.8-13.7-1.5-20.6-2.2
				c-3.5-0.4-7-0.8-10.5-1.1c-1.3-0.1-2.2,0.4-2.6,1.6c-0.1,0.4-0.1,0.8-0.2,1.2c-1,9-2.1,18.1-3,27.1c-0.2,2.3-0.3,4.7,0,6.9
				c1.3,10.6,6.6,18.5,15.9,23.8c2.8,1.6,5.9,2.8,9.1,3.2C-1828.7-2980.6-1823.4-2980.1-1818.1-2979.5z"/>
		</g>
	</g>
	<g>
		<g>
			<polygon class="st13" points="-1892.2,-2626.3 -1928.8,-2621.4 -1958.8,-2600 -1975.5,-2567.1 -1975,-2530.2 -1957.4,-2497.7 
				-1926.8,-2477.2 -1890.1,-2473.2 -1855.7,-2486.8 -1831.7,-2514.8 -1823.3,-2550.7 -1832.7,-2586.4 -1857.5,-2613.7 			"/>
			<polygon class="st7" points="-1896.1,-2630.6 -1932.7,-2625.6 -1962.7,-2604.3 -1979.4,-2571.3 -1978.9,-2534.4 -1961.3,-2502 
				-1930.7,-2481.5 -1894,-2477.5 -1859.6,-2491.1 -1835.6,-2519 -1827.2,-2555 -1836.5,-2590.7 -1861.4,-2618 			"/>
		</g>
		<g>
			<path class="st2" d="M-1894.9-2519.8c-4.8-0.5-9.5-1-14.3-1.5c-6.7-0.8-12.6-3.4-17.6-8c-4-3.6-7-7.9-8.7-13.1
				c-1-2.9-1.5-5.8-1.7-8.8c-0.1-1.9,0-3.9,0.2-5.8c1-8.9,1.9-17.9,2.9-26.8c0.2-1.6,1.5-3.1,3.1-3.5c0.7-0.1,1.4-0.2,2-0.1
				c9.4,1,18.7,2,28.1,3c4.4,0.5,8.5,1.7,12.4,3.8c2.8,1.6,5.3,3.6,7.6,5.9c2.5,2.6,4.5,5.5,6,8.7c1.6,3.5,2.5,7.1,2.7,10.9
				c0.2,2.1,0.1,4.1-0.1,6.2c-1,9.1-1.9,18.1-2.9,27.2c-0.2,2.3-2.3,3.9-4.6,3.7C-1884.8-2518.7-1889.9-2519.3-1894.9-2519.8z
				 M-1898.5-2532.6C-1898.6-2532.6-1898.6-2532.6-1898.5-2532.6c3.3,0.4,6.7,0.7,10,1.1c0.8,0.1,1.4-0.3,1.6-1
				c0.1-0.4,0.2-0.7,0.2-1.1c0.6-5.8,1.3-11.6,1.8-17.3c0.1-1.2,0.1-2.4,0-3.5c-0.3-4-1.8-7.6-4.2-10.7c-1.6-2-3.5-3.6-5.8-4.9
				c-2-1.1-4-1.9-6.3-2.2c-4.4-0.5-8.7-1-13.1-1.4c-2.2-0.2-4.5-0.5-6.7-0.7c-0.8-0.1-1.4,0.3-1.6,1c-0.1,0.2-0.1,0.5-0.1,0.8
				c-0.6,5.7-1.3,11.5-1.9,17.3c-0.1,1.5-0.2,3,0,4.4c0.8,6.7,4.2,11.8,10.1,15.1c1.8,1,3.7,1.8,5.8,2
				C-1905.3-2533.2-1901.9-2532.9-1898.5-2532.6z"/>
		</g>
	</g>
	<g>
		<g>
			<polygon class="st13" points="-1543.5,-2993.7 -1585.9,-2988 -1620.8,-2963.2 -1640.1,-2925.1 -1639.5,-2882.3 -1619.1,-2844.7 
				-1583.6,-2820.9 -1541.1,-2816.3 -1501.3,-2832 -1473.4,-2864.4 -1463.7,-2906.1 -1474.5,-2947.5 -1503.3,-2979.1 			"/>
			<polygon class="st7" points="-1548,-2998.7 -1590.4,-2993 -1625.3,-2968.2 -1644.6,-2930 -1644,-2887.3 -1623.6,-2849.7 
				-1588.1,-2825.8 -1545.6,-2821.3 -1505.8,-2837 -1477.9,-2869.4 -1468.2,-2911.1 -1479,-2952.5 -1507.8,-2984.1 			"/>
		</g>
		<g>
			<path class="st2" d="M-1546.6-2870.3c-5.5-0.6-11-1.2-16.6-1.8c-7.8-0.9-14.6-4-20.4-9.3c-4.6-4.2-8.1-9.2-10.1-15.1
				c-1.1-3.3-1.8-6.7-2-10.2c-0.1-2.3,0-4.5,0.2-6.8c1.1-10.4,2.2-20.7,3.3-31.1c0.2-1.8,1.7-3.6,3.6-4c0.8-0.2,1.6-0.2,2.4-0.2
				c10.9,1.1,21.7,2.3,32.5,3.5c5.1,0.5,9.9,1.9,14.3,4.4c3.3,1.8,6.2,4.1,8.8,6.8c2.9,3,5.2,6.3,6.9,10.1c1.8,4,2.8,8.2,3.2,12.6
				c0.2,2.4,0.1,4.8-0.2,7.2c-1.1,10.5-2.3,21-3.4,31.5c-0.3,2.6-2.6,4.5-5.3,4.2C-1535-2869-1540.8-2869.7-1546.6-2870.3z
				 M-1550.9-2885.1C-1550.9-2885.1-1550.9-2885.1-1550.9-2885.1c3.9,0.4,7.7,0.8,11.6,1.2c0.9,0.1,1.7-0.3,1.9-1.1
				c0.1-0.4,0.2-0.9,0.3-1.3c0.7-6.7,1.5-13.4,2.1-20.1c0.1-1.4,0.1-2.7,0-4.1c-0.3-4.6-2-8.8-4.9-12.4c-1.8-2.3-4.1-4.2-6.7-5.6
				c-2.3-1.3-4.7-2.2-7.3-2.5c-5-0.6-10.1-1.1-15.2-1.7c-2.6-0.3-5.2-0.6-7.8-0.8c-0.9-0.1-1.6,0.3-1.9,1.2
				c-0.1,0.3-0.1,0.6-0.1,0.9c-0.7,6.7-1.5,13.3-2.2,20c-0.2,1.7-0.2,3.4,0,5.1c1,7.8,4.9,13.6,11.7,17.5c2.1,1.2,4.3,2,6.7,2.3
				C-1558.7-2885.8-1554.8-2885.5-1550.9-2885.1z"/>
		</g>
	</g>
</g>
<g>
	<g>
		<polygon class="st13" points="-6338.5,-2260.2 -6433.1,-2236.9 -6506,-2172.3 -6540.5,-2081.2 -6528.8,-1984.5 -6473.4,-1904.3 
			-6387.2,-1859 -6289.7,-1859 -6203.5,-1904.3 -6148.1,-1984.5 -6136.4,-2081.2 -6170.9,-2172.3 -6243.8,-2236.9 		"/>
		<polygon class="st7" points="-6349.9,-2270.4 -6444.5,-2247.1 -6517.4,-2182.5 -6552,-2091.4 -6540.2,-1994.7 -6484.9,-1914.5 
			-6398.6,-1869.2 -6301.2,-1869.2 -6214.9,-1914.5 -6159.5,-1994.7 -6147.8,-2091.4 -6182.4,-2182.5 -6255.3,-2247.1 		"/>
	</g>
	<g>
		<path class="st2" d="M-6315.4-1979.9c-12.6,0-25.3,0.1-37.9,0c-17.9-0.1-34-5.5-48.4-16c-11.5-8.4-20.5-18.9-26.5-31.8
			c-3.4-7.2-5.7-14.8-7-22.7c-0.8-5.1-1.1-10.2-1.1-15.4c0-23.7,0-47.5,0-71.2c0-4.2,3-8.6,7.1-10c1.7-0.6,3.5-0.9,5.3-0.9
			c24.9-0.1,49.7,0,74.6,0c11.6,0,22.8,2,33.5,6.5c7.9,3.3,15,7.8,21.5,13.3c7.2,6.1,13.4,13.1,18.2,21.2
			c5.1,8.6,8.4,17.9,10.3,27.7c1,5.4,1.4,10.8,1.4,16.2c0,24,0,48.1,0,72.1c0,6-4.9,10.9-10.9,10.9
			C-6288.9-1979.9-6302.2-1979.9-6315.4-1979.9z M-6328.7-2012.4C-6328.7-2012.4-6328.7-2012.4-6328.7-2012.4c8.9,0,17.8,0,26.6,0
			c2.1,0,3.7-1.2,4-3c0.2-1,0.3-2,0.3-3c0-15.4,0-30.7,0-46.1c0-3.1-0.4-6.2-0.9-9.3c-1.9-10.4-6.7-19.3-14.1-26.8
			c-4.7-4.8-10.3-8.5-16.6-11.1c-5.5-2.3-11.1-3.8-17-3.9c-11.6-0.2-23.2-0.1-34.8-0.1c-5.9,0-11.9,0-17.8,0c-2.2,0-3.6,1.1-4,3.1
			c-0.1,0.7-0.1,1.4-0.1,2.1c-0.1,15.3-0.2,30.5-0.1,45.8c0,3.9,0.4,7.8,1.2,11.6c4.1,17.4,14.4,29.7,30.8,36.8
			c5,2.2,10.3,3.6,15.8,3.7C-6346.5-2012.2-6337.6-2012.4-6328.7-2012.4z"/>
	</g>
</g>
<g>
	<g>
		<polygon class="st13" points="-6523.1,-2509.8 -6579.4,-2495.9 -6622.8,-2457.4 -6643.4,-2403.2 -6636.4,-2345.6 -6603.5,-2297.9 
			-6552.1,-2270.9 -6494.1,-2270.9 -6442.7,-2297.9 -6409.8,-2345.6 -6402.8,-2403.2 -6423.4,-2457.4 -6466.8,-2495.9 		"/>
		<polygon class="st7" points="-6529.9,-2515.8 -6586.2,-2501.9 -6629.6,-2463.5 -6650.2,-2409.2 -6643.2,-2351.7 -6610.3,-2303.9 
			-6558.9,-2277 -6500.9,-2277 -6449.5,-2303.9 -6416.6,-2351.7 -6409.6,-2409.2 -6430.2,-2463.5 -6473.6,-2501.9 		"/>
	</g>
	<g>
		<path class="st2" d="M-6509.4-2342.9c-7.5,0-15,0-22.6,0c-10.6-0.1-20.2-3.3-28.8-9.5c-6.8-5-12.2-11.2-15.8-18.9
			c-2-4.3-3.4-8.8-4.1-13.5c-0.5-3-0.7-6.1-0.7-9.1c0-14.1,0-28.3,0-42.4c0-2.5,1.8-5.1,4.2-5.9c1-0.3,2.1-0.6,3.1-0.6
			c14.8,0,29.6,0,44.4,0c6.9,0,13.6,1.2,19.9,3.9c4.7,2,8.9,4.7,12.8,7.9c4.3,3.6,8,7.8,10.8,12.6c3,5.1,5,10.7,6.1,16.5
			c0.6,3.2,0.8,6.4,0.8,9.7c0,14.3,0,28.6,0,42.9c0,3.6-2.9,6.5-6.5,6.5C-6493.6-2342.9-6501.5-2342.9-6509.4-2342.9z
			 M-6517.3-2362.2C-6517.3-2362.2-6517.3-2362.2-6517.3-2362.2c5.3,0,10.6,0,15.9,0c1.2,0,2.2-0.7,2.4-1.8c0.1-0.6,0.2-1.2,0.2-1.8
			c0-9.1,0-18.3,0-27.4c0-1.8-0.2-3.7-0.5-5.5c-1.1-6.2-4-11.5-8.4-16c-2.8-2.9-6.1-5.1-9.9-6.6c-3.2-1.4-6.6-2.3-10.1-2.3
			c-6.9-0.1-13.8,0-20.7,0c-3.5,0-7.1,0-10.6,0c-1.3,0-2.2,0.7-2.4,1.9c-0.1,0.4-0.1,0.8-0.1,1.2c0,9.1-0.1,18.2-0.1,27.3
			c0,2.3,0.2,4.7,0.7,6.9c2.4,10.4,8.6,17.7,18.3,21.9c3,1.3,6.1,2.1,9.4,2.2C-6527.9-2362.1-6522.6-2362.2-6517.3-2362.2z"/>
	</g>
</g>
<image style="overflow:visible;" width="626" height="544" xlink:href="C1CBA00F.jpg"  transform="matrix(1 0 0 1 -2632.946 -3726.99)">
</image>
<g>
	<g>
		<g>
			<path class="st2" d="M-3688.7-3423.6h-6c-4.1,0-7.4-3.3-7.4-7.4v-239.4c0-4.1,3.3-7.4,7.4-7.4h6c4.1,0,7.4,3.3,7.4,7.4v239.4
				C-3681.3-3426.9-3684.6-3423.6-3688.7-3423.6z"/>
			<g>
				<path class="st2" d="M-3714.5-3651.9c-8.3,0-16.5,0-24.8,0c-11.7-0.1-22.2-3.6-31.6-10.5c-7.5-5.5-13.4-12.3-17.3-20.8
					c-2.2-4.7-3.7-9.7-4.5-14.8c-0.5-3.3-0.7-6.7-0.7-10c0-15.5,0-31,0-46.5c0-2.7,2-5.6,4.6-6.5c1.1-0.4,2.3-0.6,3.5-0.6
					c16.2,0,32.5,0,48.7,0c7.6,0,14.9,1.3,21.9,4.3c5.1,2.2,9.8,5.1,14.1,8.7c4.7,4,8.7,8.5,11.9,13.9c3.3,5.6,5.5,11.7,6.7,18.1
					c0.7,3.5,0.9,7.1,0.9,10.6c0,15.7,0,31.4,0,47.1c0,3.9-3.2,7.1-7.1,7.1C-3697.1-3651.9-3705.8-3651.9-3714.5-3651.9z
					 M-3723.1-3673.1C-3723.1-3673.1-3723.1-3673-3723.1-3673.1c5.8,0,11.6,0,17.4,0c1.4,0,2.4-0.8,2.6-1.9c0.1-0.6,0.2-1.3,0.2-2
					c0-10,0-20.1,0-30.1c0-2-0.2-4.1-0.6-6.1c-1.2-6.8-4.4-12.6-9.2-17.5c-3.1-3.1-6.7-5.5-10.8-7.3c-3.6-1.5-7.3-2.5-11.1-2.5
					c-7.6-0.1-15.1,0-22.7,0c-3.9,0-7.7,0-11.6,0c-1.4,0-2.4,0.7-2.6,2c-0.1,0.4-0.1,0.9-0.1,1.4c0,10-0.1,20-0.1,29.9
					c0,2.5,0.2,5.1,0.8,7.6c2.6,11.4,9.4,19.4,20.1,24.1c3.3,1.4,6.7,2.3,10.3,2.4C-3734.8-3673-3729-3673.1-3723.1-3673.1z"/>
			</g>
			<g>
				<path class="st2" d="M-3668.5-3552.9c8.3,0,16.5,0,24.8,0c11.7-0.1,22.2-3.6,31.6-10.5c7.5-5.5,13.4-12.3,17.3-20.8
					c2.2-4.7,3.7-9.7,4.5-14.8c0.5-3.3,0.7-6.7,0.7-10c0-15.5,0-31,0-46.5c0-2.7-2-5.6-4.6-6.5c-1.1-0.4-2.3-0.6-3.5-0.6
					c-16.2,0-32.5,0-48.7,0c-7.6,0-14.9,1.3-21.9,4.3c-5.1,2.2-9.8,5.1-14.1,8.7c-4.7,4-8.7,8.5-11.9,13.9
					c-3.3,5.6-5.5,11.7-6.7,18.1c-0.7,3.5-0.9,7.1-0.9,10.6c0,15.7,0,31.4,0,47.1c0,3.9,3.2,7.1,7.1,7.1
					C-3685.9-3552.9-3677.2-3552.9-3668.5-3552.9z M-3659.9-3574.1C-3659.9-3574.1-3659.9-3574.1-3659.9-3574.1
					c-5.8,0-11.6,0-17.4,0c-1.4,0-2.4-0.8-2.6-1.9c-0.1-0.6-0.2-1.3-0.2-2c0-10,0-20.1,0-30.1c0-2,0.2-4.1,0.6-6.1
					c1.2-6.8,4.4-12.6,9.2-17.5c3.1-3.1,6.7-5.5,10.8-7.3c3.6-1.5,7.3-2.5,11.1-2.5c7.6-0.1,15.1,0,22.7,0c3.9,0,7.7,0,11.6,0
					c1.4,0,2.4,0.7,2.6,2c0.1,0.4,0.1,0.9,0.1,1.4c0,10,0.1,20,0.1,29.9c0,2.5-0.2,5.1-0.8,7.6c-2.6,11.4-9.4,19.4-20.1,24.1
					c-3.3,1.4-6.7,2.3-10.3,2.4C-3648.2-3574-3654-3574.1-3659.9-3574.1z"/>
			</g>
			<g>
				<path class="st2" d="M-3714.6-3474.3c-8.3,0-16.5,0-24.8,0c-11.7-0.1-22.2-3.6-31.6-10.5c-7.5-5.5-13.4-12.3-17.3-20.8
					c-2.2-4.7-3.7-9.7-4.5-14.8c-0.5-3.3-0.7-6.7-0.7-10c0-15.5,0-31,0-46.5c0-2.7,2-5.6,4.6-6.5c1.1-0.4,2.3-0.6,3.5-0.6
					c16.2,0,32.5,0,48.7,0c7.6,0,14.9,1.3,21.9,4.3c5.1,2.2,9.8,5.1,14.1,8.7c4.7,4,8.7,8.5,11.9,13.9c3.3,5.6,5.5,11.7,6.7,18.1
					c0.7,3.5,0.9,7.1,0.9,10.6c0,15.7,0,31.4,0,47.1c0,3.9-3.2,7.1-7.1,7.1C-3697.2-3474.3-3705.9-3474.3-3714.6-3474.3z
					 M-3723.3-3495.5C-3723.3-3495.5-3723.3-3495.5-3723.3-3495.5c5.8,0,11.6,0,17.4,0c1.4,0,2.4-0.8,2.6-1.9c0.1-0.6,0.2-1.3,0.2-2
					c0-10,0-20.1,0-30.1c0-2-0.2-4.1-0.6-6.1c-1.2-6.8-4.4-12.6-9.2-17.5c-3.1-3.1-6.7-5.5-10.8-7.3c-3.6-1.5-7.3-2.5-11.1-2.5
					c-7.6-0.1-15.1,0-22.7,0c-3.9,0-7.7,0-11.6,0c-1.4,0-2.4,0.7-2.6,2c-0.1,0.4-0.1,0.9-0.1,1.4c0,10-0.1,20-0.1,29.9
					c0,2.5,0.2,5.1,0.8,7.6c2.6,11.4,9.4,19.4,20.1,24.1c3.3,1.4,6.7,2.3,10.3,2.4C-3734.9-3495.4-3729.1-3495.5-3723.3-3495.5z"/>
			</g>
		</g>
		<ellipse class="st14" cx="-3697.6" cy="-3353.4" rx="90.4" ry="83.7"/>
		<path class="st15" d="M-3611.2-3175.6h-167.9c-13,0-23.6-10.5-23.6-23.6v-122.7c0-13,10.5-23.6,23.6-23.6h167.9
			c13,0,23.6,10.5,23.6,23.6v122.7C-3587.6-3186.2-3598.2-3175.6-3611.2-3175.6z"/>
		<path class="st16" d="M-3581.8-3296.6h-232.7c-13,0-23.6-10.5-23.6-23.6v-44.5c0-13,10.5-23.6,23.6-23.6h232.7
			c13,0,23.6,10.5,23.6,23.6v44.5C-3558.3-3307.1-3568.8-3296.6-3581.8-3296.6z"/>
	</g>
	<g>
		<path class="st17" d="M-3730.6-3833.1v35.8c0,5.2-4.2,9.4-9.4,9.4h-3.1c-5.2,0-9.4-4.2-9.4-9.4v-35.8c0-5.2,4.2-9.4,9.4-9.4h3.1
			C-3734.8-3842.5-3730.6-3838.3-3730.6-3833.1z"/>
		<path class="st17" d="M-3673.2-3814.2l-26.7,23.9c-3.9,3.5-9.8,3.1-13.3-0.7l-2.1-2.3c-3.5-3.9-3.1-9.8,0.7-13.3l26.7-23.9
			c3.9-3.5,9.8-3.1,13.3,0.7l2.1,2.3C-3669.1-3823.6-3669.4-3817.7-3673.2-3814.2z"/>
		<path class="st17" d="M-3809.9-3814.2l26.7,23.9c3.9,3.5,9.8,3.1,13.3-0.7l2.1-2.3c3.5-3.9,3.1-9.8-0.7-13.3l-26.7-23.9
			c-3.9-3.5-9.8-3.1-13.3,0.7l-2.1,2.3C-3814.1-3823.6-3813.8-3817.7-3809.9-3814.2z"/>
	</g>
</g>
<g>
	<text transform="matrix(1 0 0 1 -4855.4663 -3364.3403)"><tspan x="0" y="0" class="st8" style="font-family:'Fraunces72ptSoft-Black'; font-size:50px;">Simple tools, powerful results. </tspan><tspan x="0" y="60" class="st8" style="font-family:'Fraunces72ptSoft-Black'; font-size:50px;">Let your money work while you </tspan><tspan x="0" y="120" class="st8" style="font-family:'Fraunces72ptSoft-Black'; font-size:50px;">focus on what matters.</tspan></text>
</g>
<g>
	<g>
		<g>
			<g>
				<path class="st18" d="M-4614.3-607.4c5,4.9,9.5,10.2,13,16.2c5.3,9,8.8,18.6,10.6,28.9c0.7,4.3,1.3,8.6,1.3,12.9
					c0,0.8,0.4,1.1,0.9,1.4c9.8,7.3,17.8,16.1,23.6,27c4,7.6,6.4,15.7,6.6,24.3c0.4,13.1-4.8,23.6-14.8,31.9
					c-8.2,6.9-17.8,11-27.9,14.2c-10.7,3.4-21.8,5.3-32.9,6.6c-13.6,1.5-27.2,2-40.9,1.7c-15.5-0.4-31-1.7-46.3-4.6
					c-8.6-1.6-17.2-3.6-25.2-7.4c-19.5-9.3-31.7-24.4-35.2-46c-2-12.3-0.3-24.3,3.4-36c7.2-22.6,19.4-42,38-56.9
					c15-12.1,32.1-20.1,50.6-25.2c4.7-1.3,9.5-2.3,14.3-3c2.1-0.3,4.2-0.8,6.3-1.3c2.2,0.6,4.4,0.9,6.7,0.8
					c5.7-0.2,11.3,0.5,16.9,1.8c8.2,1.9,15.7,5.4,23.1,9.2C-4619.7-609.5-4617.2-607.9-4614.3-607.4z M-4674.4-482.5
					c2,0,3.9-0.1,5.9-0.4c1.9-0.3,3.8-0.7,5.6-1.3c17.2-5.4,22.4-21.4,19-34.8c-1.1-4.3-3.9-7.6-6.9-10.8c-4.9-5.4-10.7-9.7-17-13.2
					c-0.6-0.3-1.2-0.5-0.9-1.5c2.2-8.3,4.6-16.5,7.3-24.6c0.3-0.9,0.6-0.8,1.3-0.5c2.7,1.3,5.1,3,7.5,4.8c2.5,1.9,3.3,4.3,3,7.3
					c-0.2,1.4-0.3,2.9,0,4.3c1.1,4,3.9,6.3,7.7,7.4c5.2,1.5,13.3-2,12.3-10.5c-0.8-6.6-3.9-12.2-8.6-16.7c-4.7-4.5-10.4-7.6-16.4-10
					c-1.2-0.5-1.3-0.9-0.8-2c1.6-3.5,3-7,4.6-10.5c0.3-0.8,0.2-1.1-0.5-1.5c-2.5-1.1-5-2.3-7.4-3.5c-0.8-0.4-1.2-0.3-1.6,0.6
					c-1.8,4-3.6,8.1-5.2,12.2c-0.4,1.1-0.9,1.3-2,1.1c-4.4-0.6-8.7-1-13.1-0.3c-10.2,1.5-17.5,7.2-22.6,16c-2.3,3.9-3,8-2.5,12.4
					c0.8,6.7,4.1,12.1,8.7,16.8c3.6,3.7,8.1,6.3,12.5,8.8c2.1,1.2,2.1,1.2,1.6,3.6c-1.9,8.9-3.5,17.9-4.8,26.9
					c-0.1,0.9-0.4,1-1.2,0.7c-2.6-1.1-4.9-2.6-7-4.4c-3.3-3-5.2-6.6-5-11.1c0.1-1.3-0.1-2.6-0.3-3.9c-0.7-4.1-4.1-7-7.9-6.7
					c-6.2,0.5-10.6,5.3-10.6,11.4c0,4.3,1.4,8.3,3.7,12c5.7,9.3,13.9,15.6,24.3,18.8c1.3,0.4,1.7,0.9,1.5,2.3
					c-0.4,3.6-0.7,7.3-1.1,10.9c-0.1,0.9,0.2,1.2,1.1,1.2c2.6,0.1,5.2,0.3,7.8,0.5c1.2,0.1,1.5-0.3,1.5-1.4c0.2-3.3,0.6-6.5,0.9-9.7
					c0.1-0.9,0.4-1.2,1.3-1C-4677.3-482.6-4675.8-482.6-4674.4-482.5z"/>
				<path class="st18" d="M-4663.8-632.8c-2.6-7-3.7-14.3-4.6-21.6c-0.6-5.3-0.8-10.7,0.3-16c1.1-5.4,3.2-10.2,8.1-13.3
					c4.8-3.1,9.4-3,14.1,0.2c2.8,2,5.3,4.3,7.8,6.7c0.7,0.7,1.1,0.6,1.8,0c5-4.3,10.1-8.4,15.9-11.5c5.6-3,11.4-4.8,17.8-4.6
					c8.8,0.2,16.2,5.4,18.9,13.1c1.6,4.7,1.1,9.3-0.2,14c-0.4,1.4-0.7,2.8-1,4.2c-0.3,1-0.1,2,0.4,2.9c1.3,2.4,3,4.5,5.3,5.9
					c0.7,0.5,1.5,1,2.2,1.4c4,2.4,4.5,7.5,2.3,11c-1,1.6-2.2,3-3.5,4.2c-7.7,6.7-16.1,12.4-25.8,16c-3.4,1.2-6.9,2.1-10.4,2.8
					c-0.5-1-0.9-2.1-1.4-3.1c-3.2-5.8-7.9-10-13.9-12.6c-8.3-3.5-16.8-5-25.8-3.1C-4658.5-635.4-4661.2-634.1-4663.8-632.8z"/>
				<path class="st18" d="M-4663.8-632.8c2.7-1.3,5.3-2.7,8.3-3.3c8.9-1.9,17.5-0.4,25.8,3.1c6.1,2.6,10.8,6.8,13.9,12.6
					c0.5,1,0.9,2,1.4,3.1c0.9,2.5,1.7,5,1.5,7.7c0,1-0.3,1.9-1.4,2.2c-2.9-0.6-5.4-2.1-8-3.4c-7.4-3.8-15-7.3-23.1-9.2
					c-5.6-1.3-11.2-2-16.9-1.8c-2.3,0.1-4.5-0.1-6.7-0.8c-1.5-2.4-1.4-3.7,0.5-6C-4667.2-630.3-4665.4-631.4-4663.8-632.8z"/>
				<path class="st18" d="M-4674.4-482.5c-1.5-0.1-3-0.1-4.4-0.3c-0.9-0.1-1.2,0.2-1.3,1c-0.3,3.2-0.6,6.5-0.9,9.7
					c-0.1,1.1-0.4,1.5-1.5,1.4c-2.6-0.3-5.2-0.4-7.8-0.5c-0.9,0-1.2-0.3-1.1-1.2c0.4-3.6,0.6-7.3,1.1-10.9c0.2-1.3-0.2-1.9-1.5-2.3
					c-10.5-3.2-18.6-9.4-24.3-18.8c-2.2-3.6-3.6-7.6-3.7-12c0-6.2,4.5-11,10.6-11.4c3.8-0.3,7.2,2.6,7.9,6.7
					c0.2,1.3,0.3,2.6,0.3,3.9c-0.3,4.6,1.6,8.2,5,11.1c2.1,1.9,4.5,3.3,7,4.4c0.8,0.4,1.1,0.2,1.2-0.7c1.3-9,3-18,4.8-26.9
					c0.5-2.4,0.5-2.4-1.6-3.6c-4.5-2.6-8.9-5.1-12.5-8.8c-4.6-4.7-7.9-10.1-8.7-16.8c-0.5-4.4,0.2-8.5,2.5-12.4
					c5.1-8.8,12.3-14.5,22.6-16c4.4-0.7,8.8-0.3,13.1,0.3c1.1,0.2,1.6-0.1,2-1.1c1.6-4.1,3.4-8.2,5.2-12.2c0.4-0.8,0.7-1,1.6-0.6
					c2.5,1.2,4.9,2.4,7.4,3.5c0.8,0.4,0.9,0.7,0.5,1.5c-1.6,3.5-3,7-4.6,10.5c-0.5,1-0.4,1.5,0.8,2c6,2.4,11.7,5.5,16.4,10
					c4.8,4.5,7.8,10.1,8.6,16.7c1,8.5-7,12.1-12.3,10.5c-3.8-1.1-6.6-3.4-7.7-7.4c-0.4-1.4-0.2-2.9,0-4.3c0.3-3-0.4-5.4-3-7.3
					c-2.4-1.8-4.8-3.5-7.5-4.8c-0.7-0.3-1-0.3-1.3,0.5c-2.7,8.1-5.1,16.3-7.3,24.6c-0.3,1,0.3,1.2,0.9,1.5c6.3,3.5,12.1,7.9,17,13.2
					c2.9,3.2,5.8,6.5,6.9,10.8c3.4,13.4-1.8,29.4-19,34.8c-1.8,0.6-3.7,1-5.6,1.3C-4670.4-482.7-4672.4-482.5-4674.4-482.5z
					 M-4675-499.3c1.4,0,3.1-0.2,4.7-0.5c3.9-0.8,6.5-3.1,7.8-6.9c1.2-3.5,0.3-6.8-1.4-10c-1.9-3.5-4.9-5.9-8.1-8.2
					c-1.2-0.8-1.2-0.8-1.5,0.6c-1.5,7.4-2.9,14.9-4,22.4C-4677.8-499.2-4677.8-499.2-4675-499.3z M-4687.6-561.9
					c0.5,5.8,3.6,10,8.5,12.9c0.9,0.5,0.8-0.3,0.9-0.7c0.7-2.4,1.3-4.9,2-7.3c1.4-4.8,2.9-9.7,4.4-14.4c0.1-0.4,0.7-1.1-0.4-1.2
					c-4.6-0.2-8.8,0.7-12.4,3.8C-4686.6-567-4687.7-564.8-4687.6-561.9z"/>
				<path class="st18" d="M-4675-499.3c-2.9,0.1-2.8,0.1-2.4-2.5c1.1-7.5,2.5-15,4-22.4c0.3-1.4,0.3-1.4,1.5-0.6
					c3.2,2.2,6.2,4.7,8.1,8.2c1.7,3.2,2.6,6.5,1.4,10c-1.3,3.8-3.9,6.1-7.8,6.9C-4671.9-499.5-4673.5-499.3-4675-499.3z"/>
				<path class="st18" d="M-4687.6-561.9c-0.1-2.9,1.1-5.1,3.1-6.9c3.6-3.1,7.8-4,12.4-3.8c1.1,0.1,0.6,0.7,0.4,1.2
					c-1.6,4.8-3.1,9.6-4.4,14.4c-0.7,2.4-1.3,4.9-2,7.3c-0.1,0.4-0.1,1.2-0.9,0.7C-4684-552-4687.1-556.1-4687.6-561.9z"/>
			</g>
		</g>
		<g>
			
				<text transform="matrix(1 0 0 1 -4522.5264 -510.9713)" class="st19" style="font-family:'Fraunces72ptSoft-Black'; font-size:164.7648px;">+</text>
		</g>
		<g>
			<g>
				<path class="st18" d="M-4244.4-473.6c-14.1,0-28.2,0.1-42.4,0c-19.9-0.1-38-6.1-54.1-17.9c-12.8-9.4-22.9-21.1-29.7-35.5
					c-3.8-8.1-6.3-16.5-7.8-25.3c-0.9-5.7-1.3-11.4-1.3-17.1c0-26.5,0-53,0-79.5c0-4.7,3.4-9.6,7.9-11.2c1.9-0.6,3.9-1.1,5.9-1.1
					c27.8-0.1,55.5,0,83.3,0c12.9,0,25.5,2.2,37.4,7.3c8.8,3.7,16.7,8.8,24,14.9c8.1,6.8,15,14.6,20.3,23.7c5.7,9.6,9.4,20,11.5,31
					c1.1,6,1.5,12.1,1.5,18.1c0,26.9,0,53.7,0,80.6c0,6.7-5.4,12.2-12.2,12.2C-4214.7-473.6-4229.6-473.6-4244.4-473.6z
					 M-4259.3-509.8C-4259.3-509.8-4259.3-509.8-4259.3-509.8c9.9,0,19.8,0,29.7,0c2.3,0,4.1-1.3,4.5-3.3c0.2-1.1,0.3-2.2,0.3-3.3
					c0-17.1,0.1-34.3-0.1-51.4c0-3.5-0.4-7-1-10.4c-2.1-11.6-7.5-21.6-15.8-30c-5.3-5.4-11.5-9.5-18.5-12.4
					c-6.1-2.5-12.4-4.3-19-4.4c-12.9-0.2-25.9-0.1-38.8-0.1c-6.6,0-13.3,0-19.9,0c-2.4,0-4.1,1.3-4.5,3.5c-0.1,0.8-0.1,1.6-0.1,2.3
					c-0.1,17.1-0.2,34.1-0.2,51.2c0,4.3,0.4,8.8,1.4,13c4.5,19.4,16,33.2,34.4,41.2c5.6,2.4,11.5,4,17.6,4.1
					C-4279.2-509.6-4269.2-509.8-4259.3-509.8z"/>
			</g>
		</g>
	</g>
	<g>
		<g>
			<g>
				<path class="st18" d="M-3658.2-750.1c5,4.9,9.5,10.2,13,16.2c5.3,9,8.8,18.6,10.6,28.9c0.7,4.3,1.3,8.6,1.3,12.9
					c0,0.8,0.4,1.1,0.9,1.4c9.8,7.3,17.8,16.1,23.6,27c4,7.6,6.4,15.7,6.6,24.3c0.4,13.1-4.8,23.6-14.8,31.9
					c-8.2,6.9-17.8,11-27.9,14.2c-10.7,3.4-21.8,5.3-32.9,6.6c-13.6,1.5-27.2,2-40.9,1.7c-15.5-0.4-31-1.7-46.3-4.6
					c-8.6-1.6-17.2-3.6-25.2-7.4c-19.5-9.3-31.7-24.4-35.2-46c-2-12.3-0.3-24.3,3.4-36c7.2-22.6,19.4-42,38-56.9
					c15-12.1,32.1-20.1,50.6-25.2c4.7-1.3,9.5-2.3,14.3-3c2.1-0.3,4.2-0.8,6.3-1.3c2.2,0.6,4.4,0.9,6.7,0.8
					c5.7-0.2,11.3,0.5,16.9,1.8c8.2,1.9,15.7,5.4,23.1,9.2C-3663.6-752.2-3661.1-750.7-3658.2-750.1z M-3718.3-625.2
					c2,0,3.9-0.1,5.9-0.4c1.9-0.3,3.8-0.7,5.6-1.3c17.2-5.4,22.4-21.4,19-34.8c-1.1-4.3-3.9-7.6-6.9-10.8c-4.9-5.4-10.7-9.7-17-13.2
					c-0.6-0.3-1.2-0.5-0.9-1.5c2.2-8.3,4.6-16.5,7.3-24.6c0.3-0.9,0.6-0.8,1.3-0.5c2.7,1.3,5.1,3,7.5,4.8c2.5,1.9,3.3,4.3,3,7.3
					c-0.2,1.4-0.3,2.9,0,4.3c1.1,4,3.9,6.3,7.7,7.4c5.2,1.5,13.3-2,12.3-10.5c-0.8-6.6-3.9-12.2-8.6-16.7c-4.7-4.5-10.4-7.6-16.4-10
					c-1.2-0.5-1.3-0.9-0.8-2c1.6-3.5,3-7,4.6-10.5c0.3-0.8,0.2-1.1-0.5-1.5c-2.5-1.1-5-2.3-7.4-3.5c-0.8-0.4-1.2-0.3-1.6,0.6
					c-1.8,4-3.6,8.1-5.2,12.2c-0.4,1.1-0.9,1.3-2,1.1c-4.4-0.6-8.7-1-13.1-0.3c-10.2,1.5-17.5,7.2-22.6,16c-2.3,3.9-3,8-2.5,12.4
					c0.8,6.7,4.1,12.1,8.7,16.8c3.6,3.7,8.1,6.3,12.5,8.8c2.1,1.2,2.1,1.2,1.6,3.6c-1.9,8.9-3.5,17.9-4.8,26.9
					c-0.1,0.9-0.4,1-1.2,0.7c-2.6-1.1-4.9-2.6-7-4.4c-3.3-3-5.2-6.6-5-11.1c0.1-1.3-0.1-2.6-0.3-3.9c-0.7-4.1-4.1-7-7.9-6.7
					c-6.2,0.5-10.6,5.3-10.6,11.4c0,4.3,1.4,8.3,3.7,12c5.7,9.3,13.9,15.6,24.3,18.8c1.3,0.4,1.7,0.9,1.5,2.3
					c-0.4,3.6-0.7,7.3-1.1,10.9c-0.1,0.9,0.2,1.2,1.1,1.2c2.6,0.1,5.2,0.3,7.8,0.5c1.2,0.1,1.5-0.3,1.5-1.4c0.2-3.3,0.6-6.5,0.9-9.7
					c0.1-0.9,0.4-1.2,1.3-1C-3721.3-625.3-3719.8-625.3-3718.3-625.2z"/>
				<path class="st18" d="M-3707.8-775.5c-2.6-7-3.7-14.3-4.6-21.6c-0.6-5.3-0.8-10.7,0.3-16c1.1-5.4,3.2-10.2,8.1-13.3
					c4.8-3.1,9.4-3,14.1,0.2c2.8,2,5.3,4.3,7.8,6.7c0.7,0.7,1.1,0.6,1.8,0c5-4.3,10.1-8.4,15.9-11.5c5.6-3,11.4-4.8,17.8-4.6
					c8.8,0.2,16.2,5.4,18.9,13.1c1.6,4.7,1.1,9.3-0.2,14c-0.4,1.4-0.7,2.8-1,4.2c-0.3,1-0.1,2,0.4,2.9c1.3,2.4,3,4.5,5.3,5.9
					c0.7,0.5,1.5,1,2.2,1.4c4,2.4,4.5,7.5,2.3,11c-1,1.6-2.2,3-3.5,4.2c-7.7,6.7-16.1,12.4-25.8,16c-3.4,1.2-6.9,2.1-10.4,2.8
					c-0.5-1-0.9-2.1-1.4-3.1c-3.2-5.8-7.9-10-13.9-12.6c-8.3-3.5-16.8-5-25.8-3.1C-3702.4-778.1-3705.1-776.8-3707.8-775.5z"/>
				<path class="st18" d="M-3707.8-775.5c2.7-1.3,5.3-2.7,8.3-3.3c8.9-1.9,17.5-0.4,25.8,3.1c6.1,2.6,10.8,6.8,13.9,12.6
					c0.5,1,0.9,2,1.4,3.1c0.9,2.5,1.7,5,1.5,7.7c0,1-0.3,1.9-1.4,2.2c-2.9-0.6-5.4-2.1-8-3.4c-7.4-3.8-15-7.3-23.1-9.2
					c-5.6-1.3-11.2-2-16.9-1.8c-2.3,0.1-4.5-0.1-6.7-0.8c-1.5-2.4-1.4-3.7,0.5-6C-3711.1-773-3709.3-774.1-3707.8-775.5z"/>
				<path class="st18" d="M-3718.3-625.2c-1.5-0.1-3-0.1-4.4-0.3c-0.9-0.1-1.2,0.2-1.3,1c-0.3,3.2-0.6,6.5-0.9,9.7
					c-0.1,1.1-0.4,1.5-1.5,1.4c-2.6-0.3-5.2-0.4-7.8-0.5c-0.9,0-1.2-0.3-1.1-1.2c0.4-3.6,0.6-7.3,1.1-10.9c0.2-1.3-0.2-1.9-1.5-2.3
					c-10.5-3.2-18.6-9.4-24.3-18.8c-2.2-3.6-3.6-7.6-3.7-12c0-6.2,4.5-11,10.6-11.4c3.8-0.3,7.2,2.6,7.9,6.7
					c0.2,1.3,0.3,2.6,0.3,3.9c-0.3,4.6,1.6,8.2,5,11.1c2.1,1.9,4.5,3.3,7,4.4c0.8,0.4,1.1,0.2,1.2-0.7c1.3-9,3-18,4.8-26.9
					c0.5-2.4,0.5-2.4-1.6-3.6c-4.5-2.6-8.9-5.1-12.5-8.8c-4.6-4.7-7.9-10.1-8.7-16.8c-0.5-4.4,0.2-8.5,2.5-12.4
					c5.1-8.8,12.3-14.5,22.6-16c4.4-0.7,8.8-0.3,13.1,0.3c1.1,0.2,1.6-0.1,2-1.1c1.6-4.1,3.4-8.2,5.2-12.2c0.4-0.8,0.7-1,1.6-0.6
					c2.5,1.2,4.9,2.4,7.4,3.5c0.8,0.4,0.9,0.7,0.5,1.5c-1.6,3.5-3,7-4.6,10.5c-0.5,1-0.4,1.5,0.8,2c6,2.4,11.7,5.5,16.4,10
					c4.8,4.5,7.8,10.1,8.6,16.7c1,8.5-7,12.1-12.3,10.5c-3.8-1.1-6.6-3.4-7.7-7.4c-0.4-1.4-0.2-2.9,0-4.3c0.3-3-0.4-5.4-3-7.3
					c-2.4-1.8-4.8-3.5-7.5-4.8c-0.7-0.3-1-0.3-1.3,0.5c-2.7,8.1-5.1,16.3-7.3,24.6c-0.3,1,0.3,1.2,0.9,1.5c6.3,3.5,12.1,7.9,17,13.2
					c2.9,3.2,5.8,6.5,6.9,10.8c3.4,13.4-1.8,29.4-19,34.8c-1.8,0.6-3.7,1-5.6,1.3C-3714.4-625.4-3716.3-625.2-3718.3-625.2z
					 M-3718.9-642c1.4,0,3.1-0.2,4.7-0.5c3.9-0.8,6.5-3.1,7.8-6.9c1.2-3.5,0.3-6.8-1.4-10c-1.9-3.5-4.9-5.9-8.1-8.2
					c-1.2-0.8-1.2-0.8-1.5,0.6c-1.5,7.4-2.9,14.9-4,22.4C-3721.7-641.9-3721.8-641.9-3718.9-642z M-3731.6-704.6
					c0.5,5.8,3.6,10,8.5,12.9c0.9,0.5,0.8-0.3,0.9-0.7c0.7-2.4,1.3-4.9,2-7.3c1.4-4.8,2.9-9.7,4.4-14.4c0.1-0.4,0.7-1.1-0.4-1.2
					c-4.6-0.2-8.8,0.7-12.4,3.8C-3730.5-709.7-3731.6-707.5-3731.6-704.6z"/>
				<path class="st18" d="M-3718.9-642c-2.9,0.1-2.8,0.1-2.4-2.5c1.1-7.5,2.5-15,4-22.4c0.3-1.4,0.3-1.4,1.5-0.6
					c3.2,2.2,6.2,4.7,8.1,8.2c1.7,3.2,2.6,6.5,1.4,10c-1.3,3.8-3.9,6.1-7.8,6.9C-3715.8-642.2-3717.5-642-3718.9-642z"/>
				<path class="st18" d="M-3731.6-704.6c-0.1-2.9,1.1-5.1,3.1-6.9c3.6-3.1,7.8-4,12.4-3.8c1.1,0.1,0.6,0.7,0.4,1.2
					c-1.6,4.8-3.1,9.6-4.4,14.4c-0.7,2.4-1.3,4.9-2,7.3c-0.1,0.4-0.1,1.2-0.9,0.7C-3728-694.7-3731-698.8-3731.6-704.6z"/>
			</g>
		</g>
		<g>
			<g>
				<path class="st18" d="M-3844.6-495.8c5,4.9,9.5,10.2,13,16.2c5.3,9,8.8,18.6,10.6,28.9c0.7,4.3,1.3,8.6,1.3,12.9
					c0,0.8,0.4,1.1,0.9,1.4c9.8,7.3,17.8,16.1,23.6,27c4,7.6,6.4,15.7,6.6,24.3c0.4,13.1-4.8,23.6-14.8,31.9
					c-8.2,6.9-17.8,11-27.9,14.2c-10.7,3.4-21.8,5.3-32.9,6.6c-13.6,1.5-27.2,2-40.9,1.7c-15.5-0.4-31-1.7-46.3-4.6
					c-8.6-1.6-17.2-3.6-25.2-7.4c-19.5-9.3-31.7-24.4-35.2-46c-2-12.3-0.3-24.3,3.4-36c7.2-22.6,19.4-42,38-56.9
					c15-12.1,32.1-20.1,50.6-25.2c4.7-1.3,9.5-2.3,14.3-3c2.1-0.3,4.2-0.8,6.3-1.3c2.2,0.6,4.4,0.9,6.7,0.8
					c5.7-0.2,11.3,0.5,16.9,1.8c8.2,1.9,15.7,5.4,23.1,9.2C-3850-497.9-3847.5-496.4-3844.6-495.8z M-3904.7-370.9
					c2,0,3.9-0.1,5.9-0.4c1.9-0.3,3.8-0.7,5.6-1.3c17.2-5.4,22.4-21.4,19-34.8c-1.1-4.3-3.9-7.6-6.9-10.8c-4.9-5.4-10.7-9.7-17-13.2
					c-0.6-0.3-1.2-0.5-0.9-1.5c2.2-8.3,4.6-16.5,7.3-24.6c0.3-0.9,0.6-0.8,1.3-0.5c2.7,1.3,5.1,3,7.5,4.8c2.5,1.9,3.3,4.3,3,7.3
					c-0.2,1.4-0.3,2.9,0,4.3c1.1,4,3.9,6.3,7.7,7.4c5.2,1.5,13.3-2,12.3-10.5c-0.8-6.6-3.9-12.2-8.6-16.7c-4.7-4.5-10.4-7.6-16.4-10
					c-1.2-0.5-1.3-0.9-0.8-2c1.6-3.5,3-7,4.6-10.5c0.3-0.8,0.2-1.1-0.5-1.5c-2.5-1.1-5-2.3-7.4-3.5c-0.8-0.4-1.2-0.3-1.6,0.6
					c-1.8,4-3.6,8.1-5.2,12.2c-0.4,1.1-0.9,1.3-2,1.1c-4.4-0.6-8.7-1-13.1-0.3c-10.2,1.5-17.5,7.2-22.6,16c-2.3,3.9-3,8-2.5,12.4
					c0.8,6.7,4.1,12.1,8.7,16.8c3.6,3.7,8.1,6.3,12.5,8.8c2.1,1.2,2.1,1.2,1.6,3.6c-1.9,8.9-3.5,17.9-4.8,26.9
					c-0.1,0.9-0.4,1-1.2,0.7c-2.6-1.1-4.9-2.6-7-4.4c-3.3-3-5.2-6.6-5-11.1c0.1-1.3-0.1-2.6-0.3-3.9c-0.7-4.1-4.1-7-7.9-6.7
					c-6.2,0.5-10.6,5.3-10.6,11.4c0,4.3,1.4,8.3,3.7,12c5.7,9.3,13.9,15.6,24.3,18.8c1.3,0.4,1.7,0.9,1.5,2.3
					c-0.4,3.6-0.7,7.3-1.1,10.9c-0.1,0.9,0.2,1.2,1.1,1.2c2.6,0.1,5.2,0.3,7.8,0.5c1.2,0.1,1.5-0.3,1.5-1.4c0.2-3.3,0.6-6.5,0.9-9.7
					c0.1-0.9,0.4-1.2,1.3-1C-3907.6-371-3906.2-371-3904.7-370.9z"/>
				<path class="st18" d="M-3894.1-521.2c-2.6-7-3.7-14.3-4.6-21.6c-0.6-5.3-0.8-10.7,0.3-16c1.1-5.4,3.2-10.2,8.1-13.3
					c4.8-3.1,9.4-3,14.1,0.2c2.8,2,5.3,4.3,7.8,6.7c0.7,0.7,1.1,0.6,1.8,0c5-4.3,10.1-8.4,15.9-11.5c5.6-3,11.4-4.8,17.8-4.6
					c8.8,0.2,16.2,5.4,18.9,13.1c1.6,4.7,1.1,9.3-0.2,14c-0.4,1.4-0.7,2.8-1,4.2c-0.3,1-0.1,2,0.4,2.9c1.3,2.4,3,4.5,5.4,5.9
					c0.7,0.5,1.5,1,2.2,1.4c4,2.4,4.5,7.5,2.3,11c-1,1.6-2.2,3-3.5,4.2c-7.7,6.7-16.1,12.4-25.8,16c-3.4,1.2-6.9,2.1-10.4,2.8
					c-0.5-1-0.9-2.1-1.4-3.1c-3.2-5.8-7.9-10-13.9-12.6c-8.3-3.5-16.8-5-25.8-3.1C-3888.8-523.9-3891.5-522.5-3894.1-521.2z"/>
				<path class="st18" d="M-3894.1-521.2c2.7-1.3,5.3-2.7,8.3-3.3c8.9-1.9,17.5-0.4,25.8,3.1c6.1,2.6,10.8,6.8,13.9,12.6
					c0.5,1,0.9,2,1.4,3.1c0.9,2.5,1.7,5,1.5,7.7c0,1-0.3,1.9-1.4,2.2c-2.9-0.6-5.4-2.1-8-3.4c-7.4-3.8-15-7.3-23.1-9.2
					c-5.6-1.3-11.2-2-16.9-1.8c-2.3,0.1-4.5-0.1-6.7-0.8c-1.5-2.4-1.4-3.7,0.5-6C-3897.5-518.7-3895.7-519.8-3894.1-521.2z"/>
				<path class="st18" d="M-3904.7-370.9c-1.5-0.1-3-0.1-4.4-0.3c-0.9-0.1-1.2,0.2-1.3,1c-0.3,3.2-0.6,6.5-0.9,9.7
					c-0.1,1.1-0.4,1.5-1.5,1.4c-2.6-0.3-5.2-0.4-7.8-0.5c-0.9,0-1.2-0.3-1.1-1.2c0.4-3.6,0.6-7.3,1.1-10.9c0.2-1.3-0.2-1.9-1.5-2.3
					c-10.5-3.2-18.6-9.4-24.3-18.8c-2.2-3.6-3.6-7.6-3.7-12c0-6.2,4.5-11,10.6-11.4c3.8-0.3,7.2,2.6,7.9,6.7
					c0.2,1.3,0.3,2.6,0.3,3.9c-0.3,4.6,1.6,8.2,5,11.1c2.1,1.9,4.5,3.3,7,4.4c0.8,0.4,1.1,0.2,1.2-0.7c1.3-9,3-18,4.8-26.9
					c0.5-2.4,0.5-2.4-1.6-3.6c-4.5-2.6-8.9-5.1-12.5-8.8c-4.6-4.7-7.9-10.1-8.7-16.8c-0.5-4.4,0.2-8.5,2.5-12.4
					c5.1-8.8,12.3-14.5,22.6-16c4.4-0.7,8.8-0.3,13.1,0.3c1.1,0.2,1.6-0.1,2-1.1c1.6-4.1,3.4-8.2,5.2-12.2c0.4-0.8,0.7-1,1.6-0.6
					c2.5,1.2,4.9,2.4,7.4,3.5c0.8,0.4,0.9,0.7,0.5,1.5c-1.6,3.5-3,7-4.6,10.5c-0.5,1-0.4,1.5,0.8,2c6,2.4,11.7,5.5,16.4,10
					c4.8,4.5,7.8,10.1,8.6,16.7c1,8.5-7,12.1-12.3,10.5c-3.8-1.1-6.6-3.4-7.7-7.4c-0.4-1.4-0.2-2.9,0-4.3c0.3-3-0.4-5.4-3-7.3
					c-2.4-1.8-4.8-3.5-7.5-4.8c-0.7-0.3-1-0.3-1.3,0.5c-2.7,8.1-5.1,16.3-7.3,24.6c-0.3,1,0.3,1.2,0.9,1.5c6.3,3.5,12.1,7.9,17,13.2
					c2.9,3.2,5.8,6.5,6.9,10.8c3.4,13.4-1.8,29.4-19,34.8c-1.8,0.6-3.7,1-5.6,1.3C-3900.8-371.1-3902.7-370.9-3904.7-370.9z
					 M-3905.3-387.7c1.4,0,3.1-0.2,4.7-0.5c3.9-0.8,6.5-3.1,7.8-6.9c1.2-3.5,0.3-6.8-1.4-10c-1.9-3.5-4.9-5.9-8.1-8.2
					c-1.2-0.8-1.2-0.8-1.5,0.6c-1.5,7.4-2.9,14.9-4,22.4C-3908.1-387.6-3908.2-387.6-3905.3-387.7z M-3917.9-450.4
					c0.5,5.8,3.6,10,8.5,12.9c0.9,0.5,0.8-0.3,0.9-0.7c0.7-2.4,1.3-4.9,2-7.3c1.4-4.8,2.9-9.7,4.4-14.4c0.1-0.4,0.7-1.1-0.4-1.2
					c-4.6-0.2-8.8,0.7-12.4,3.8C-3916.9-455.5-3918-453.2-3917.9-450.4z"/>
				<path class="st18" d="M-3905.3-387.7c-2.9,0.1-2.8,0.1-2.4-2.5c1.1-7.5,2.5-15,4-22.4c0.3-1.4,0.3-1.4,1.5-0.6
					c3.2,2.2,6.2,4.7,8.1,8.2c1.7,3.2,2.6,6.5,1.4,10c-1.3,3.8-3.9,6.1-7.8,6.9C-3902.2-387.9-3903.8-387.7-3905.3-387.7z"/>
				<path class="st18" d="M-3917.9-450.4c-0.1-2.9,1.1-5.1,3.1-6.9c3.6-3.1,7.8-4,12.4-3.8c1.1,0.1,0.6,0.7,0.4,1.2
					c-1.6,4.8-3.1,9.6-4.4,14.4c-0.7,2.4-1.3,4.9-2,7.3c-0.1,0.4-0.1,1.2-0.9,0.7C-3914.4-440.4-3917.4-444.6-3917.9-450.4z"/>
			</g>
		</g>
		<g>
			<g>
				<path class="st18" d="M-3553.5-488.6c5,4.9,9.5,10.2,13,16.2c5.3,9,8.8,18.6,10.6,28.9c0.7,4.3,1.3,8.6,1.3,12.9
					c0,0.8,0.4,1.1,0.9,1.4c9.8,7.3,17.8,16.1,23.6,27c4,7.6,6.4,15.7,6.6,24.3c0.4,13.1-4.8,23.6-14.8,31.9
					c-8.2,6.9-17.8,11-27.9,14.2c-10.7,3.4-21.8,5.3-32.9,6.6c-13.6,1.5-27.2,2-40.9,1.7c-15.5-0.4-31-1.7-46.3-4.6
					c-8.6-1.6-17.2-3.6-25.2-7.4c-19.5-9.3-31.7-24.4-35.2-46c-2-12.3-0.3-24.3,3.4-36c7.2-22.6,19.4-42,38-56.9
					c15-12.1,32.1-20.1,50.6-25.2c4.7-1.3,9.5-2.3,14.3-3c2.1-0.3,4.2-0.8,6.3-1.3c2.2,0.6,4.4,0.9,6.7,0.8
					c5.7-0.2,11.3,0.5,16.9,1.8c8.2,1.9,15.7,5.4,23.1,9.2C-3558.9-490.7-3556.4-489.2-3553.5-488.6z M-3613.6-363.8
					c2,0,3.9-0.1,5.9-0.4c1.9-0.3,3.8-0.7,5.6-1.3c17.2-5.4,22.4-21.4,19-34.8c-1.1-4.3-3.9-7.6-6.9-10.8c-4.9-5.4-10.7-9.7-17-13.2
					c-0.6-0.3-1.2-0.5-0.9-1.5c2.2-8.3,4.6-16.5,7.3-24.6c0.3-0.9,0.6-0.8,1.3-0.5c2.7,1.3,5.1,3,7.5,4.8c2.5,1.9,3.3,4.3,3,7.3
					c-0.2,1.4-0.3,2.9,0,4.3c1.1,4,3.9,6.3,7.7,7.4c5.2,1.5,13.3-2,12.3-10.5c-0.8-6.6-3.9-12.2-8.6-16.7c-4.7-4.5-10.4-7.6-16.4-10
					c-1.2-0.5-1.3-0.9-0.8-2c1.6-3.5,3-7,4.6-10.5c0.3-0.8,0.2-1.1-0.5-1.5c-2.5-1.1-5-2.3-7.4-3.5c-0.8-0.4-1.2-0.3-1.6,0.6
					c-1.8,4-3.6,8.1-5.2,12.2c-0.4,1.1-0.9,1.3-2,1.1c-4.4-0.6-8.7-1-13.1-0.3c-10.2,1.5-17.5,7.2-22.6,16c-2.3,3.9-3,8-2.5,12.4
					c0.8,6.7,4.1,12.1,8.7,16.8c3.6,3.7,8.1,6.3,12.5,8.8c2.1,1.2,2.1,1.2,1.6,3.6c-1.9,8.9-3.5,17.9-4.8,26.9
					c-0.1,0.9-0.4,1-1.2,0.7c-2.6-1.1-4.9-2.6-7-4.4c-3.3-3-5.2-6.6-5-11.1c0.1-1.3-0.1-2.6-0.3-3.9c-0.7-4.1-4.1-7-7.9-6.7
					c-6.2,0.5-10.6,5.3-10.6,11.4c0,4.3,1.4,8.3,3.7,12c5.7,9.3,13.9,15.6,24.3,18.8c1.3,0.4,1.7,0.9,1.5,2.3
					c-0.4,3.6-0.7,7.3-1.1,10.9c-0.1,0.9,0.2,1.2,1.1,1.2c2.6,0.1,5.2,0.3,7.8,0.5c1.2,0.1,1.5-0.3,1.5-1.4c0.2-3.3,0.6-6.5,0.9-9.7
					c0.1-0.9,0.4-1.2,1.3-1C-3616.6-363.9-3615.1-363.9-3613.6-363.8z"/>
				<path class="st18" d="M-3603.1-514c-2.6-7-3.7-14.3-4.6-21.6c-0.6-5.3-0.8-10.7,0.3-16c1.1-5.4,3.2-10.2,8.1-13.3
					c4.8-3.1,9.4-3,14.1,0.2c2.8,2,5.3,4.3,7.8,6.7c0.7,0.7,1.1,0.6,1.8,0c5-4.3,10.1-8.4,15.9-11.5c5.6-3,11.4-4.8,17.8-4.6
					c8.8,0.2,16.2,5.4,18.9,13.1c1.6,4.7,1.1,9.3-0.2,14c-0.4,1.4-0.7,2.8-1,4.2c-0.3,1-0.1,2,0.4,2.9c1.3,2.4,3,4.5,5.3,5.9
					c0.7,0.5,1.5,1,2.2,1.4c4,2.4,4.5,7.5,2.3,11c-1,1.6-2.2,3-3.5,4.2c-7.7,6.7-16.1,12.4-25.8,16c-3.4,1.2-6.9,2.1-10.4,2.8
					c-0.5-1-0.9-2.1-1.4-3.1c-3.2-5.8-7.9-10-13.9-12.6c-8.3-3.5-16.8-5-25.8-3.1C-3597.7-516.7-3600.4-515.4-3603.1-514z"/>
				<path class="st18" d="M-3603.1-514c2.7-1.3,5.3-2.7,8.3-3.3c8.9-1.9,17.5-0.4,25.8,3.1c6.1,2.6,10.8,6.8,13.9,12.6
					c0.5,1,0.9,2,1.4,3.1c0.9,2.5,1.7,5,1.5,7.7c0,1-0.3,1.9-1.4,2.2c-2.9-0.6-5.4-2.1-8-3.4c-7.4-3.8-15-7.3-23.1-9.2
					c-5.6-1.3-11.2-2-16.9-1.8c-2.3,0.1-4.5-0.1-6.7-0.8c-1.5-2.4-1.4-3.7,0.5-6C-3606.4-511.6-3604.7-512.7-3603.1-514z"/>
				<path class="st18" d="M-3613.6-363.8c-1.5-0.1-3-0.1-4.4-0.3c-0.9-0.1-1.2,0.2-1.3,1c-0.3,3.2-0.6,6.5-0.9,9.7
					c-0.1,1.1-0.4,1.5-1.5,1.4c-2.6-0.3-5.2-0.4-7.8-0.5c-0.9,0-1.2-0.3-1.1-1.2c0.4-3.6,0.6-7.3,1.1-10.9c0.2-1.3-0.2-1.9-1.5-2.3
					c-10.5-3.2-18.6-9.4-24.3-18.8c-2.2-3.6-3.6-7.6-3.7-12c0-6.2,4.5-11,10.6-11.4c3.8-0.3,7.2,2.6,7.9,6.7
					c0.2,1.3,0.3,2.6,0.3,3.9c-0.3,4.6,1.6,8.2,5,11.1c2.1,1.9,4.5,3.3,7,4.4c0.8,0.4,1.1,0.2,1.2-0.7c1.3-9,3-18,4.8-26.9
					c0.5-2.4,0.5-2.4-1.6-3.6c-4.5-2.6-8.9-5.1-12.5-8.8c-4.6-4.7-7.9-10.1-8.7-16.8c-0.5-4.4,0.2-8.5,2.5-12.4
					c5.1-8.8,12.3-14.5,22.6-16c4.4-0.7,8.8-0.3,13.1,0.3c1.1,0.2,1.6-0.1,2-1.1c1.6-4.1,3.4-8.2,5.2-12.2c0.4-0.8,0.7-1,1.6-0.6
					c2.5,1.2,4.9,2.4,7.4,3.5c0.8,0.4,0.9,0.7,0.5,1.5c-1.6,3.5-3,7-4.6,10.5c-0.5,1-0.4,1.5,0.8,2c6,2.4,11.7,5.5,16.4,10
					c4.8,4.5,7.8,10.1,8.6,16.7c1,8.5-7,12.1-12.3,10.5c-3.8-1.1-6.6-3.4-7.7-7.4c-0.4-1.4-0.2-2.9,0-4.3c0.3-3-0.4-5.4-3-7.3
					c-2.4-1.8-4.8-3.5-7.5-4.8c-0.7-0.3-1-0.3-1.3,0.5c-2.7,8.1-5.1,16.3-7.3,24.6c-0.3,1,0.3,1.2,0.9,1.5c6.3,3.5,12.1,7.9,17,13.2
					c2.9,3.2,5.8,6.5,6.9,10.8c3.4,13.4-1.8,29.4-19,34.8c-1.8,0.6-3.7,1-5.6,1.3C-3609.7-363.9-3611.7-363.8-3613.6-363.8z
					 M-3614.2-380.5c1.4,0,3.1-0.2,4.7-0.5c3.9-0.8,6.5-3.1,7.8-6.9c1.2-3.5,0.3-6.8-1.4-10c-1.9-3.5-4.9-5.9-8.1-8.2
					c-1.2-0.8-1.2-0.8-1.5,0.6c-1.5,7.4-2.9,14.9-4,22.4C-3617.1-380.4-3617.1-380.4-3614.2-380.5z M-3626.9-443.2
					c0.5,5.8,3.6,10,8.5,12.9c0.9,0.5,0.8-0.3,0.9-0.7c0.7-2.4,1.3-4.9,2-7.3c1.4-4.8,2.9-9.7,4.4-14.4c0.1-0.4,0.7-1.1-0.4-1.2
					c-4.6-0.2-8.8,0.7-12.4,3.8C-3625.8-448.3-3627-446.1-3626.9-443.2z"/>
				<path class="st18" d="M-3614.2-380.5c-2.9,0.1-2.8,0.1-2.4-2.5c1.1-7.5,2.5-15,4-22.4c0.3-1.4,0.3-1.4,1.5-0.6
					c3.2,2.2,6.2,4.7,8.1,8.2c1.7,3.2,2.6,6.5,1.4,10c-1.3,3.8-3.9,6.1-7.8,6.9C-3611.1-380.8-3612.8-380.6-3614.2-380.5z"/>
				<path class="st18" d="M-3626.9-443.2c-0.1-2.9,1.1-5.1,3.1-6.9c3.6-3.1,7.8-4,12.4-3.8c1.1,0.1,0.6,0.7,0.4,1.2
					c-1.6,4.8-3.1,9.6-4.4,14.4c-0.7,2.4-1.3,4.9-2,7.3c-0.1,0.4-0.1,1.2-0.9,0.7C-3623.3-433.2-3626.3-437.4-3626.9-443.2z"/>
			</g>
		</g>
	</g>
	<g>
		<path class="st19" d="M-4064.3-571.6h-52.7c-4,0-7.2-3.2-7.2-7.2v0c0-4,3.2-7.2,7.2-7.2h52.7c4,0,7.2,3.2,7.2,7.2v0
			C-4057.1-574.8-4060.3-571.6-4064.3-571.6z"/>
		<path class="st19" d="M-4064.5-548.9h-52.7c-4,0-7.2-3.2-7.2-7.2l0,0c0-4,3.2-7.2,7.2-7.2h52.7c4,0,7.2,3.2,7.2,7.2l0,0
			C-4057.4-552.1-4060.6-548.9-4064.5-548.9z"/>
	</g>
</g>
<rect x="-6691.3" y="-1238.5" class="st7" width="220.6" height="220.6"/>
<rect x="-6470.7" y="-1238.5" class="st7" width="220.6" height="220.6"/>
<rect x="-6250.1" y="-1238.5" class="st7" width="220.6" height="220.6"/>
<g>
	<path class="st2" d="M-6099-1030.2c-14.4,0-28.9,0.1-43.3,0c-20.4-0.1-38.9-6.3-55.3-18.3c-13.1-9.6-23.4-21.5-30.3-36.4
		c-3.8-8.3-6.5-16.9-7.9-25.9c-0.9-5.8-1.3-11.7-1.3-17.5c0-27.1,0-54.2,0-81.3c0-4.8,3.5-9.8,8.1-11.4c1.9-0.7,4-1.1,6-1.1
		c28.4-0.1,56.8,0,85.2,0c13.2,0,26,2.3,38.3,7.4c9,3.8,17.1,9,24.6,15.2c8.3,6.9,15.3,14.9,20.8,24.3c5.8,9.9,9.6,20.4,11.7,31.7
		c1.1,6.1,1.6,12.3,1.6,18.6c0,27.5,0,54.9,0,82.4c0,6.9-5.5,12.4-12.5,12.4C-6068.6-1030.2-6083.8-1030.2-6099-1030.2z
		 M-6114.2-1067.2C-6114.2-1067.2-6114.2-1067.2-6114.2-1067.2c10.1,0,20.3,0,30.4,0c2.4,0,4.2-1.4,4.6-3.4c0.2-1.1,0.3-2.3,0.3-3.4
		c0-17.5,0.1-35.1-0.1-52.6c0-3.5-0.4-7.1-1-10.6c-2.1-11.9-7.7-22.1-16.2-30.7c-5.4-5.5-11.8-9.7-18.9-12.7
		c-6.2-2.6-12.7-4.3-19.5-4.5c-13.2-0.2-26.5-0.1-39.7-0.1c-6.8,0-13.6,0-20.3,0c-2.5,0-4.2,1.3-4.6,3.6c-0.2,0.8-0.1,1.6-0.1,2.4
		c-0.1,17.5-0.2,34.9-0.2,52.4c0,4.4,0.4,9,1.4,13.2c4.6,19.9,16.4,34,35.2,42.1c5.7,2.5,11.8,4.1,18,4.2
		C-6134.6-1067-6124.4-1067.2-6114.2-1067.2z"/>
</g>
<rect x="-6029.5" y="-1240.8" class="st7" width="220.6" height="220.6"/>
<rect x="-5808.9" y="-1240.8" class="st7" width="220.6" height="220.6"/>
<rect x="-5588.3" y="-1240.8" class="st7" width="220.6" height="220.6"/>
<g>
	<path class="st2" d="M-5437.3-1032.5c-14.4,0-28.9,0.1-43.3,0c-20.4-0.1-38.9-6.3-55.3-18.3c-13.1-9.6-23.4-21.5-30.3-36.4
		c-3.8-8.3-6.5-16.9-7.9-25.9c-0.9-5.8-1.3-11.7-1.3-17.5c0-27.1,0-54.2,0-81.3c0-4.8,3.5-9.8,8.1-11.4c1.9-0.7,4-1.1,6-1.1
		c28.4-0.1,56.8,0,85.2,0c13.2,0,26,2.3,38.3,7.4c9,3.8,17.1,9,24.6,15.2c8.3,6.9,15.3,14.9,20.8,24.3c5.8,9.9,9.6,20.4,11.7,31.7
		c1.1,6.1,1.6,12.3,1.6,18.6c0,27.5,0,54.9,0,82.4c0,6.9-5.5,12.4-12.5,12.4C-5406.9-1032.5-5422.1-1032.5-5437.3-1032.5z
		 M-5452.4-1069.5C-5452.4-1069.5-5452.4-1069.5-5452.4-1069.5c10.1,0,20.3,0,30.4,0c2.4,0,4.2-1.4,4.6-3.4c0.2-1.1,0.3-2.3,0.3-3.4
		c0-17.5,0.1-35.1-0.1-52.6c0-3.5-0.4-7.1-1-10.6c-2.1-11.9-7.7-22.1-16.2-30.7c-5.4-5.5-11.8-9.7-18.9-12.7
		c-6.2-2.6-12.7-4.3-19.5-4.5c-13.2-0.2-26.5-0.1-39.7-0.1c-6.8,0-13.6,0-20.3,0c-2.5,0-4.2,1.3-4.6,3.6c-0.2,0.8-0.1,1.6-0.1,2.4
		c-0.1,17.5-0.2,34.9-0.2,52.4c0,4.4,0.4,9,1.4,13.2c4.6,19.9,16.4,34,35.2,42.1c5.7,2.5,11.8,4.1,18,4.2
		C-5472.8-1069.3-5462.6-1069.5-5452.4-1069.5z"/>
</g>
<g>
	<g class="st6">
		<g>
			<g>
				<g>
					<path class="st2" d="M-4645-2532v28.6h-12.5v-49.8h8.8l16.1,16.1l16.1-16.1h8.8v49.8h-12.5v-28.6l-12.5,12.5L-4645-2532z"/>
					<path class="st2" d="M-4588.9-2503.4h-12.5v-49.8h12.5V-2503.4z"/>
					<path class="st2" d="M-4570.2-2532v28.6h-12.5v-49.8h8.8l28.6,28.6v-28.6h12.5v49.8h-8.8L-4570.2-2532z"/>
					<path class="st2" d="M-4476.8-2553.3v12.5h-18.7v37.4h-12.5v-37.4h-18.7v-12.5H-4476.8z"/>
					<path class="st2" d="M-4458.1-2515.9h37.4v12.5h-49.8v-49.8h12.5L-4458.1-2515.9L-4458.1-2515.9z"/>
					<path class="st2" d="M-4411.4-2525.8l-18.7-18.7v-8.8h8.8l16.1,16.1l16.1-16.1h8.8v8.8l-18.7,18.7v22.3h-12.5V-2525.8z"/>
				</g>
			</g>
		</g>
	</g>
	<g class="st6">
		<path class="st2" d="M-4718-2454.8c-11.1,0-22.1,0.1-33.2,0c-15.6-0.1-29.8-4.8-42.3-14c-10-7.4-18-16.5-23.2-27.8
			c-2.9-6.3-5-13-6.1-19.9c-0.7-4.5-1-8.9-1-13.4c0-20.8,0-41.5,0-62.3c0-3.7,2.7-7.5,6.2-8.7c1.5-0.5,3.1-0.8,4.6-0.8
			c21.7-0.1,43.5,0,65.2,0c10.1,0,19.9,1.7,29.3,5.7c6.9,2.9,13.1,6.9,18.8,11.7c6.3,5.3,11.7,11.4,15.9,18.6
			c4.4,7.6,7.4,15.7,9,24.3c0.9,4.7,1.2,9.4,1.2,14.2c0,21,0,42.1,0,63.1c0,5.3-4.2,9.5-9.6,9.5
			C-4694.7-2454.8-4706.4-2454.8-4718-2454.8z M-4729.6-2483.2C-4729.6-2483.2-4729.6-2483.2-4729.6-2483.2c7.8,0,15.5,0,23.3,0
			c1.8,0,3.2-1,3.5-2.6c0.2-0.9,0.2-1.7,0.2-2.6c0-13.4,0-26.9,0-40.3c0-2.7-0.3-5.5-0.8-8.1c-1.6-9.1-5.9-16.9-12.4-23.5
			c-4.2-4.2-9-7.4-14.5-9.7c-4.8-2-9.7-3.3-14.9-3.4c-10.1-0.2-20.3-0.1-30.4-0.1c-5.2,0-10.4,0-15.6,0c-1.9,0-3.2,1-3.5,2.7
			c-0.1,0.6-0.1,1.2-0.1,1.8c-0.1,13.4-0.2,26.7-0.1,40.1c0,3.4,0.3,6.9,1.1,10.1c3.5,15.2,12.6,26,26.9,32.2
			c4.4,1.9,9,3.1,13.8,3.2C-4745.2-2483.1-4737.4-2483.2-4729.6-2483.2z"/>
	</g>
</g>
<g>
	<g class="st6">
		<g>
			<g>
				<g>
					<path class="st2" d="M-3745.2-2532v28.6h-12.5v-49.8h8.8l16.1,16.1l16.1-16.1h8.8v49.8h-12.5v-28.6l-12.5,12.5L-3745.2-2532z"
						/>
					<path class="st2" d="M-3689.1-2503.4h-12.5v-49.8h12.5V-2503.4z"/>
					<path class="st2" d="M-3670.4-2532v28.6h-12.5v-49.8h8.8l28.6,28.6v-28.6h12.5v49.8h-8.8L-3670.4-2532z"/>
					<path class="st2" d="M-3577-2553.3v12.5h-18.7v37.4h-12.5v-37.4h-18.7v-12.5H-3577z"/>
					<path class="st2" d="M-3558.3-2515.9h37.4v12.5h-49.8v-49.8h12.5L-3558.3-2515.9L-3558.3-2515.9z"/>
					<path class="st2" d="M-3511.6-2525.8l-18.7-18.7v-8.8h8.8l16.1,16.1l16.1-16.1h8.8v8.8l-18.7,18.7v22.3h-12.5V-2525.8z"/>
				</g>
			</g>
		</g>
	</g>
	<g class="st6">
		<path class="st2" d="M-3818.2-2454.8c-11.1,0-22.1,0.1-33.2,0c-15.6-0.1-29.8-4.8-42.3-14c-10-7.4-18-16.5-23.2-27.8
			c-2.9-6.3-5-13-6.1-19.9c-0.7-4.5-1-8.9-1-13.4c0-20.8,0-41.5,0-62.3c0-3.7,2.7-7.5,6.2-8.7c1.5-0.5,3.1-0.8,4.6-0.8
			c21.7-0.1,43.5,0,65.2,0c10.1,0,19.9,1.7,29.3,5.7c6.9,2.9,13.1,6.9,18.8,11.7c6.3,5.3,11.7,11.4,15.9,18.6
			c4.4,7.6,7.4,15.7,9,24.3c0.9,4.7,1.2,9.4,1.2,14.2c0,21,0,42.1,0,63.1c0,5.3-4.2,9.5-9.6,9.5
			C-3794.9-2454.8-3806.5-2454.8-3818.2-2454.8z M-3829.8-2483.2C-3829.8-2483.2-3829.8-2483.2-3829.8-2483.2c7.8,0,15.5,0,23.3,0
			c1.8,0,3.2-1,3.5-2.6c0.2-0.9,0.2-1.7,0.2-2.6c0-13.4,0-26.9,0-40.3c0-2.7-0.3-5.5-0.8-8.1c-1.6-9.1-5.9-16.9-12.4-23.5
			c-4.2-4.2-9-7.4-14.5-9.7c-4.8-2-9.7-3.3-14.9-3.4c-10.1-0.2-20.3-0.1-30.4-0.1c-5.2,0-10.4,0-15.6,0c-1.9,0-3.2,1-3.5,2.7
			c-0.1,0.6-0.1,1.2-0.1,1.8c-0.1,13.4-0.2,26.7-0.1,40.1c0,3.4,0.3,6.9,1.1,10.1c3.5,15.2,12.6,26,26.9,32.2
			c4.4,1.9,9,3.1,13.8,3.2C-3845.4-2483.1-3837.6-2483.2-3829.8-2483.2z"/>
	</g>
</g>
<image style="overflow:visible;" width="328" height="294" xlink:href="C1CBA004.jpg"  transform="matrix(1 0 0 1 -2881.478 -1493.1176)">
</image>
<rect x="-3204.6" y="-2436.5" style="fill:none;" width="2.3" height="2.3"/>
<rect x="-3137.2" y="-2454.1" style="fill:none;" width="677.1" height="1096.9"/>
<text transform="matrix(1 0 0 1 -3137.2227 -2314.124)" style="font-family:'Fraunces72ptSoft-Black'; font-size:185.3678px;"> </text>
<rect x="-1438.3" y="-358.4" style="fill:none;" width="885.4" height="1268.4"/>
<text transform="matrix(1 0 0 1 -1438.3292 -218.4646)"><tspan x="0" y="0" style="font-family:'Fraunces72ptSoft-Black'; font-size:185.3678px;">Lorem </tspan><tspan x="0" y="222.4" style="font-family:'Fraunces72ptSoft-Black'; font-size:185.3678px;">ipsum </tspan><tspan x="0" y="444.9" style="font-family:'Fraunces72ptSoft-Black'; font-size:185.3678px;">dolor sit </tspan><tspan x="0" y="667.3" style="font-family:'Fraunces72ptSoft-Black'; font-size:185.3678px;">amet, </tspan><tspan x="0" y="889.8" style="font-family:'Fraunces72ptSoft-Black'; font-size:185.3678px;">consecte</tspan><tspan x="771.5" y="889.8" style="font-family:'Fraunces72ptSoft-Black'; font-size:185.3678px;">-</tspan><tspan x="0" y="1112.2" style="font-family:'Fraunces72ptSoft-Black'; font-size:185.3678px;">tuer adi</tspan></text>
<path class="st2" d="M-550.8,2497.2c-0.1,0.6-0.1,1.1-0.2,1.7"/>
<g>
	<path class="st20" d="M-777.9,2899.1c6.5,1.6,11.8,4.9,15.7,10.3c11.9,17,4.5,38.9-15.2,45.3c-4,1.3-8,2-12.2,2.2
		c-1,0.1-1.2,0.4-1.2,1.3c0,3.9,0,7.8,0,11.7c0,1-0.3,1.2-1.2,1.2c-4.1,0-8.1-0.1-12.2,0c-0.9,0-1.1-0.2-1.1-1.1
		c0-3.9,0-7.7,0.1-11.6c0-1.1-0.3-1.4-1.4-1.3c-1.1,0.1-2.3,0.1-3.4,0c-1-0.1-1.2,0.3-1.2,1.2c0.1,3.9,0,7.7,0,11.6
		c0,0.9-0.2,1.2-1.2,1.2c-4.1-0.1-8.1-0.1-12.2,0c-1,0-1.1-0.4-1.1-1.2c0-3.8,0-7.6,0-11.4c0-1.1-0.3-1.4-1.3-1.3
		c-7.4,0-14.9,0-22.3,0.1c-1.2,0-1.6-0.2-1.6-1.5c0-36.8,0-73.6,0-110.3c0-1.1,0.2-1.4,1.4-1.4c7.5,0.1,15.1,0,22.6,0.1
		c1,0,1.3-0.2,1.3-1.2c-0.1-3.7,0-7.4,0-11.2c0-0.9,0.2-1.2,1.2-1.2c4,0.1,8,0.1,12,0c1,0,1.3,0.2,1.3,1.2c-0.1,3.7,0,7.4,0,11.2
		c0,0.9,0.2,1.3,1.2,1.2c1.2-0.1,2.5-0.1,3.7,0c0.9,0.1,1.1-0.3,1.1-1.1c0-3.8,0-7.5,0-11.3c0-0.9,0.2-1.2,1.2-1.2
		c4.1,0.1,8.1,0,12.2,0c0.9,0,1.1,0.2,1.1,1.1c-0.1,3.9,0,7.7,0,11.6c0,0.9,0.2,1.2,1.2,1.3c5.5,0.6,10.9,1.8,15.9,4.4
		c9.3,4.9,14.1,12.7,14.5,23.1c0.2,5.5-0.6,10.8-3.5,15.7c-3.2,5.4-7.9,8.9-13.8,11c-0.4,0.1-0.7,0.2-1.1,0.4
		C-777.7,2898.9-777.8,2899-777.9,2899.1z M-807.7,2931.7c2.8-0.1,6.2,0.2,9.6-0.2c3.3-0.4,6.3-1.5,8-4.7c3.5-6.9-0.6-14.6-8.3-15.3
		c-6.6-0.6-13.2-0.1-19.8-0.2c-1,0-0.8,0.6-0.8,1.2c0,6.1,0,12.1,0,18.2c0,0.9,0.2,1.1,1.1,1.1
		C-814.7,2931.6-811.5,2931.7-807.7,2931.7z M-819.1,2879c0,2.9,0.1,5.7,0,8.6c0,1.1,0.3,1.3,1.4,1.3c4.7-0.1,9.3,0,14,0
		c1.4,0,2.9,0,4.3-0.3c2.9-0.5,5.4-1.6,6.9-4.4c3.5-6.5-0.1-14-7.4-14.8c-6.1-0.7-12.2-0.1-18.3-0.3c-0.8,0-0.8,0.5-0.8,1
		C-819.1,2873.1-819.1,2876-819.1,2879z"/>
	<path class="st21" d="M-558.7,2887.2c0,22.1,0,44.1,0,66c0,2.4,0,2.4-2.5,2.4c-7.8,0-15.6,0-23.3,0c-1.2,0-1.5-0.3-1.5-1.5
		c0-36.3,0-72.7,0-109c0-1.1,0.2-1.5,1.4-1.5c8.3,0.1,16.5,0.1,24.8,0c1.1,0,1.5,0.5,2,1.3c14.4,22,28.9,43.9,43.3,65.9
		c0.4,0.5,0.7,1.1,1.3,2c0-1,0-1.5,0-2c0-21.7,0-43.4,0-65.1c0-2.3-0.3-2,2.1-2c7.9,0,15.8,0,23.8,0c1.2,0,1.5,0.4,1.5,1.5
		c0,36.3,0,72.7,0,109c0,1.3-0.4,1.5-1.6,1.5c-8.2,0-16.3,0-24.5,0c-1,0-1.5-0.4-2.1-1.2c-14.4-21.9-28.9-43.8-43.4-65.7
		C-557.7,2888.4-557.9,2887.7-558.7,2887.2z"/>
	<path class="st21" d="M-466.2,2899.7c0-18.1,0-36.2,0-54.4c0-1.2,0.2-1.6,1.5-1.6c13.5,0.1,27.1,0,40.6,0c12,0.1,23.4,2.4,33.7,8.8
		c13.3,8.3,21.1,20.3,23.7,35.6c2.1,11.8,1.3,23.5-3.3,34.7c-6.8,16.4-19.3,26.2-36.2,30.7c-6,1.6-12.1,2.2-18.3,2.2
		c-13.5,0-26.9,0-40.4,0c-1.3,0-1.6-0.3-1.6-1.6C-466.2,2936-466.2,2917.8-466.2,2899.7z M-438.8,2899.6c0,2.4,0,4.8,0,7.2
		c0,8,0,15.9,0,23.9c0,1.1,0.3,1.5,1.4,1.4c1.1-0.1,2.2,0,3.3,0c5.6-0.1,11.3,0.3,16.8-0.8c10.2-2,17.6-7.4,21.5-17.2
		c2.5-6.4,2.7-13.1,2.1-19.9c-1.5-15.2-12.3-25.7-27.5-26.8c-5.3-0.4-10.7-0.1-16-0.3c-1.3,0-1.6,0.3-1.6,1.6
		C-438.8,2879-438.8,2889.3-438.8,2899.6z"/>
	<path class="st21" d="M-672.2,2899.6c0-18,0-36.1,0-54.1c0-1.4,0.3-1.8,1.8-1.8c21.7,0.1,43.4,0.1,65.1,0c1.5,0,1.8,0.4,1.8,1.8
		c-0.1,6.2-0.1,12.3,0,18.5c0,1.5-0.5,1.7-1.8,1.7c-12.6-0.1-25.3,0-37.9-0.1c-1.3,0-1.6,0.3-1.6,1.6c0.1,6.5,0.1,13.1,0,19.6
		c0,1.2,0.3,1.4,1.4,1.4c11.2,0,22.3,0,33.5-0.1c1.3,0,1.7,0.4,1.6,1.7c-0.1,6-0.1,12,0,18c0,1.2-0.4,1.5-1.5,1.5
		c-11.2,0-22.3,0-33.5,0c-1.1,0-1.5,0.2-1.5,1.5c0.1,7.2,0.1,14.3,0,21.5c0,1.2,0.3,1.5,1.5,1.5c12.7,0,25.5,0,38.2-0.1
		c1.4,0,1.6,0.4,1.6,1.7c-0.1,6.3,0,12.7,0,19c0,1-0.2,1.3-1.3,1.3c-22,0-44.1,0-66.1,0c-1.4,0-1.3-0.7-1.3-1.6
		C-672.2,2936-672.2,2917.8-672.2,2899.6z"/>
	<path class="st21" d="M-705.2,2875.7c-4.4,0-8.8,0-13.2,0c-1,0-1.5-0.1-1.7-1.4c-0.8-5.6-5-9.6-10.8-10.1c-2-0.2-4-0.3-6,0.3
		c-3.7,1-6.3,3.2-7.1,7.1c-0.8,4,0.1,7.6,3.5,10.2c2.4,1.7,5,2.9,7.7,4c6.7,2.7,13.6,4.6,20.3,7.4c5.8,2.4,11.4,5.1,15.9,9.6
		c5.7,5.8,8,12.9,7.6,20.8c-0.9,15.5-9.3,25.5-23.5,30.4c-14,4.8-28,3.7-41.5-2.2c-1.5-0.6-2.8-1.6-4.3-2.3
		c-0.5-0.3-0.8-0.5-0.3-1.2c6.4-7.1,8.3-15.5,7.6-24.8c-0.1-1.2,0.2-1.6,1.4-1.5c1.3,0.1,2.6,0.1,3.9,0c0.9-0.1,1.3,0.1,1.4,1.2
		c0.5,3.6,1.9,6.7,4.8,9c4.8,3.8,14.1,3.6,18.7-0.4c3.9-3.4,4.2-10.2,0.6-13.9c-2.6-2.7-5.8-4.3-9.2-5.6c-6.4-2.4-13.1-4-19.5-6.6
		c-5.2-2-10.3-4.1-14.5-7.8c-0.9-0.8-1.1-1.1-0.1-2.1c5.9-5.5,8.5-12.5,9-20.4c0.6-8.7-1.7-16.4-7.5-23c-0.7-0.8-0.4-1,0.2-1.5
		c5.3-4,11.2-6.5,17.7-7.6c10.5-1.8,21-1.6,31.2,2.1c11.2,4.2,18.8,11.7,21.5,23.6c0.4,1.8,0.6,3.6,0.8,5.4c0.1,1.2-0.3,1.4-1.4,1.4
		C-696.2,2875.7-700.7,2875.7-705.2,2875.7z"/>
</g>
<g>
	<path class="st20" d="M-1148.5,2074.8c6.5,1.6,11.8,4.9,15.7,10.3c11.9,17,4.5,38.9-15.2,45.3c-4,1.3-8,2-12.2,2.2
		c-1,0.1-1.2,0.4-1.2,1.3c0,3.9,0,7.8,0,11.7c0,1-0.3,1.2-1.2,1.2c-4.1,0-8.1-0.1-12.2,0c-0.9,0-1.1-0.2-1.1-1.1
		c0-3.9,0-7.7,0.1-11.6c0-1.1-0.3-1.4-1.4-1.3c-1.1,0.1-2.3,0.1-3.4,0c-1-0.1-1.2,0.3-1.2,1.2c0.1,3.9,0,7.7,0,11.6
		c0,0.9-0.2,1.2-1.2,1.2c-4.1-0.1-8.1-0.1-12.2,0c-1,0-1.1-0.4-1.1-1.2c0-3.8,0-7.6,0-11.4c0-1.1-0.3-1.4-1.3-1.3
		c-7.4,0-14.9,0-22.3,0.1c-1.2,0-1.6-0.2-1.6-1.5c0-36.8,0-73.5,0-110.3c0-1.1,0.2-1.4,1.4-1.4c7.5,0.1,15.1,0,22.6,0.1
		c1,0,1.3-0.2,1.3-1.2c-0.1-3.7,0-7.4,0-11.2c0-0.9,0.2-1.2,1.2-1.2c4,0.1,8,0.1,12,0c1,0,1.3,0.2,1.3,1.2c-0.1,3.7,0,7.4,0,11.2
		c0,0.9,0.2,1.3,1.2,1.2c1.2-0.1,2.5-0.1,3.7,0c0.9,0.1,1.1-0.3,1.1-1.1c0-3.8,0-7.5,0-11.3c0-0.9,0.2-1.2,1.2-1.2
		c4.1,0.1,8.1,0,12.2,0c0.9,0,1.1,0.2,1.1,1.1c-0.1,3.9,0,7.7,0,11.6c0,0.9,0.2,1.2,1.2,1.3c5.5,0.6,10.9,1.8,15.9,4.4
		c9.3,4.9,14.1,12.7,14.5,23.1c0.2,5.5-0.6,10.8-3.5,15.7c-3.2,5.4-7.9,8.9-13.8,11c-0.4,0.1-0.7,0.2-1.1,0.4
		C-1148.4,2074.7-1148.4,2074.7-1148.5,2074.8z M-1178.4,2107.4c2.8-0.1,6.2,0.2,9.6-0.2c3.3-0.4,6.3-1.5,8-4.7
		c3.5-6.9-0.6-14.6-8.3-15.3c-6.6-0.6-13.2-0.1-19.8-0.2c-1,0-0.8,0.6-0.8,1.2c0,6.1,0,12.1,0,18.2c0,0.9,0.2,1.1,1.1,1.1
		C-1185.4,2107.4-1182.1,2107.4-1178.4,2107.4z M-1189.7,2054.7c0,2.9,0.1,5.7,0,8.6c0,1.1,0.3,1.3,1.4,1.3c4.7-0.1,9.3,0,14,0
		c1.4,0,2.9,0,4.3-0.3c2.9-0.5,5.4-1.6,6.9-4.4c3.5-6.5-0.1-14-7.4-14.8c-6.1-0.7-12.2-0.1-18.3-0.3c-0.8,0-0.8,0.5-0.8,1
		C-1189.7,2048.8-1189.7,2051.8-1189.7,2054.7z"/>
	<path class="st21" d="M-1075.8,2051.4c-4.4,0-8.8,0-13.2,0c-1,0-1.5-0.1-1.7-1.4c-0.8-5.6-5-9.6-10.8-10.1c-2-0.2-4-0.3-6,0.3
		c-3.7,1-6.3,3.2-7.1,7.1c-0.8,4,0.1,7.6,3.5,10.2c2.4,1.7,5,2.9,7.7,4c6.7,2.7,13.6,4.6,20.3,7.4c5.8,2.4,11.4,5.1,15.9,9.6
		c5.7,5.8,8,12.9,7.6,20.8c-0.9,15.5-9.3,25.5-23.5,30.4c-14,4.8-28,3.7-41.5-2.2c-1.5-0.6-2.8-1.6-4.3-2.3
		c-0.5-0.3-0.8-0.5-0.3-1.2c6.4-7.1,8.3-15.5,7.6-24.8c-0.1-1.2,0.2-1.6,1.4-1.5c1.3,0.1,2.6,0.1,3.9,0c0.9-0.1,1.3,0.1,1.4,1.2
		c0.5,3.6,1.9,6.7,4.8,9c4.8,3.8,14.1,3.6,18.7-0.4c3.9-3.4,4.2-10.2,0.6-13.9c-2.6-2.7-5.8-4.3-9.2-5.6c-6.4-2.4-13.1-4-19.5-6.6
		c-5.2-2-10.3-4.1-14.5-7.8c-0.9-0.8-1.1-1.1-0.1-2.1c5.9-5.5,8.5-12.5,9-20.4c0.6-8.7-1.7-16.4-7.5-23c-0.7-0.8-0.4-1,0.2-1.5
		c5.3-4,11.2-6.5,17.7-7.6c10.5-1.8,21-1.6,31.2,2.1c11.2,4.2,18.8,11.7,21.5,23.6c0.4,1.8,0.6,3.6,0.8,5.4c0.1,1.2-0.3,1.4-1.4,1.4
		C-1066.8,2051.4-1071.3,2051.4-1075.8,2051.4z"/>
</g>
<path class="st21" d="M-1424.5,1957.8h-53.6c-16.9,0-30.6-13.7-30.6-30.6v-53.6c0-16.9,13.7-30.6,30.6-30.6h53.6
	c16.9,0,30.6,13.7,30.6,30.6v53.6C-1393.9,1944.1-1407.6,1957.8-1424.5,1957.8z"/>
<g>
	<g>
		<path class="st22" d="M51,53.4H7.9c-3.2,0-5.8-2.6-5.8-5.8V8.1c0-3.2,2.6-5.8,5.8-5.8H51c3.2,0,5.8,2.6,5.8,5.8v39.5
			C56.8,50.8,54.2,53.4,51,53.4z"/>
		<g>
			<path class="st23" d="M27.4,27.3c1.6,0.4,3,1.2,4,2.6c3,4.3,1.1,9.8-3.9,11.5c-1,0.3-2,0.5-3.1,0.6c-0.2,0-0.3,0.1-0.3,0.3
				c0,1,0,2,0,3c0,0.2-0.1,0.3-0.3,0.3c-1,0-2.1,0-3.1,0c-0.2,0-0.3-0.1-0.3-0.3c0-1,0-2,0-2.9c0-0.3-0.1-0.4-0.3-0.3
				c-0.3,0-0.6,0-0.9,0C19,41.9,19,42,19,42.2c0,1,0,2,0,2.9c0,0.2,0,0.3-0.3,0.3c-1,0-2.1,0-3.1,0c-0.3,0-0.3-0.1-0.3-0.3
				c0-1,0-1.9,0-2.9c0-0.3-0.1-0.3-0.3-0.3c-1.9,0-3.8,0-5.6,0c-0.3,0-0.4,0-0.4-0.4c0-9.3,0-18.6,0-27.9c0-0.3,0-0.4,0.3-0.4
				c1.9,0,3.8,0,5.7,0c0.3,0,0.3-0.1,0.3-0.3c0-0.9,0-1.9,0-2.8c0-0.2,0-0.3,0.3-0.3c1,0,2,0,3,0c0.2,0,0.3,0.1,0.3,0.3
				c0,0.9,0,1.9,0,2.8c0,0.2,0,0.3,0.3,0.3c0.3,0,0.6,0,0.9,0c0.2,0,0.3-0.1,0.3-0.3c0-1,0-1.9,0-2.9c0-0.2,0.1-0.3,0.3-0.3
				c1,0,2.1,0,3.1,0c0.2,0,0.3,0.1,0.3,0.3c0,1,0,2,0,2.9c0,0.2,0.1,0.3,0.3,0.3c1.4,0.1,2.8,0.5,4,1.1c2.3,1.2,3.6,3.2,3.7,5.9
				c0.1,1.4-0.2,2.7-0.9,4c-0.8,1.4-2,2.3-3.5,2.8C27.6,27.1,27.5,27.2,27.4,27.3C27.4,27.2,27.4,27.2,27.4,27.3z M19.8,35.5
				c0.7,0,1.6,0,2.4,0c0.8-0.1,1.6-0.4,2-1.2c0.9-1.8-0.2-3.7-2.1-3.9c-1.7-0.1-3.3,0-5-0.1c-0.2,0-0.2,0.2-0.2,0.3
				c0,1.5,0,3.1,0,4.6c0,0.2,0.1,0.3,0.3,0.3C18.1,35.5,18.9,35.5,19.8,35.5z M17,22.2c0,0.7,0,1.4,0,2.2c0,0.3,0.1,0.3,0.3,0.3
				c1.2,0,2.4,0,3.5,0c0.4,0,0.7,0,1.1-0.1c0.7-0.1,1.4-0.4,1.7-1.1c0.9-1.6,0-3.5-1.9-3.7c-1.5-0.2-3.1,0-4.6-0.1
				c-0.2,0-0.2,0.1-0.2,0.3C17,20.7,17,21.4,17,22.2z"/>
			<path class="st21" d="M45.8,21.3c-1.1,0-2.2,0-3.3,0c-0.3,0-0.4,0-0.4-0.3c-0.2-1.4-1.3-2.4-2.7-2.6c-0.5,0-1-0.1-1.5,0.1
				c-0.9,0.2-1.6,0.8-1.8,1.8c-0.2,1,0,1.9,0.9,2.6c0.6,0.4,1.3,0.7,2,1c1.7,0.7,3.4,1.2,5.1,1.9c1.5,0.6,2.9,1.3,4,2.4
				c1.5,1.5,2,3.3,1.9,5.3c-0.2,3.9-2.4,6.5-5.9,7.7c-3.5,1.2-7.1,0.9-10.5-0.6c-0.4-0.2-0.7-0.4-1.1-0.6c-0.1-0.1-0.2-0.1-0.1-0.3
				c1.6-1.8,2.1-3.9,1.9-6.3c0-0.3,0.1-0.4,0.4-0.4c0.3,0,0.7,0,1,0c0.2,0,0.3,0,0.4,0.3c0.1,0.9,0.5,1.7,1.2,2.3
				c1.2,1,3.6,0.9,4.7-0.1c1-0.9,1.1-2.6,0.1-3.5c-0.7-0.7-1.5-1.1-2.3-1.4c-1.6-0.6-3.3-1-4.9-1.7c-1.3-0.5-2.6-1-3.7-2
				c-0.2-0.2-0.3-0.3,0-0.5c1.5-1.4,2.2-3.2,2.3-5.2c0.1-2.2-0.4-4.2-1.9-5.8c-0.2-0.2-0.1-0.3,0.1-0.4c1.3-1,2.8-1.6,4.5-1.9
				c2.7-0.5,5.3-0.4,7.9,0.5c2.8,1.1,4.8,3,5.5,6c0.1,0.4,0.2,0.9,0.2,1.4c0,0.3-0.1,0.4-0.4,0.4C48.1,21.3,46.9,21.3,45.8,21.3z"/>
		</g>
	</g>
	<g>
		<g>
			<path class="st23" d="M80.9,29.4c0.7,0.9,1.1,1.9,1.1,3.1c0,1-0.3,1.9-0.8,2.7S79.9,36.6,79,37c-1,0.4-2.1,0.7-3.4,0.7h-8.4V18.3
				h8c1.3,0,2.4,0.2,3.4,0.6c1,0.4,1.7,1,2.2,1.8c0.5,0.8,0.7,1.6,0.7,2.6c0,1.1-0.3,2.1-0.9,2.8c-0.6,0.8-1.4,1.3-2.4,1.6
				C79.3,27.9,80.2,28.5,80.9,29.4z M71.1,26.3h3.6c0.9,0,1.6-0.2,2.1-0.6c0.5-0.4,0.7-1,0.7-1.8c0-0.8-0.2-1.4-0.7-1.8
				c-0.5-0.4-1.2-0.6-2.1-0.6h-3.6V26.3z M77.2,33.8c0.5-0.4,0.8-1.1,0.8-1.9c0-0.8-0.3-1.5-0.8-2c-0.6-0.5-1.3-0.7-2.2-0.7h-3.8
				v5.2H75C76,34.5,76.7,34.3,77.2,33.8z"/>
			<path class="st23" d="M88.9,18.3v19.4h-3.9V18.3H88.9z"/>
			<path class="st23" d="M105.9,18.3v3.1h-5.2v16.2h-3.9V21.4h-5.2v-3.1H105.9z"/>
			<path class="st23" d="M111.8,37.2c-1.1-0.5-1.9-1.1-2.6-2c-0.6-0.9-1-1.9-1-3.1h4.2c0.1,0.8,0.3,1.4,0.8,1.9
				c0.5,0.5,1.2,0.7,2.1,0.7c0.9,0,1.6-0.2,2.1-0.7c0.5-0.4,0.8-1,0.8-1.7c0-0.6-0.2-1-0.5-1.4s-0.8-0.7-1.3-0.9
				c-0.5-0.2-1.3-0.4-2.2-0.7c-1.3-0.4-2.3-0.7-3.1-1.1c-0.8-0.4-1.5-0.9-2-1.6c-0.6-0.7-0.8-1.7-0.8-2.9c0-1.1,0.3-2.1,0.9-3
				s1.4-1.5,2.4-2s2.2-0.7,3.6-0.7c2,0,3.6,0.5,4.9,1.5c1.2,1,1.9,2.3,2.1,4.1h-4.3c0-0.7-0.3-1.2-0.8-1.7c-0.5-0.4-1.2-0.7-2.1-0.7
				c-0.8,0-1.4,0.2-1.8,0.6c-0.5,0.4-0.7,1-0.7,1.7c0,0.5,0.2,0.9,0.5,1.3c0.3,0.3,0.8,0.6,1.3,0.8c0.5,0.2,1.2,0.5,2.2,0.7
				c1.3,0.4,2.3,0.7,3.1,1.1c0.8,0.4,1.5,0.9,2.1,1.7c0.6,0.7,0.9,1.7,0.9,2.9c0,1-0.3,2-0.8,2.9c-0.5,0.9-1.3,1.6-2.4,2.1
				c-1,0.5-2.3,0.8-3.7,0.8C114.1,37.9,112.9,37.6,111.8,37.2z"/>
			<path class="st23" d="M129.6,21.4v4.9h6.5v3.1h-6.5v5.1h7.4v3.2h-11.2V18.3h11.2v3.2H129.6z"/>
			<path class="st23" d="M157,37.7h-3.9l-8.8-13.3v13.3h-3.9V18.3h3.9l8.8,13.3V18.3h3.9V37.7z"/>
			<path class="st23" d="M173,19.5c1.5,0.8,2.7,1.9,3.6,3.4c0.8,1.5,1.3,3.2,1.3,5.1c0,1.9-0.4,3.6-1.3,5.1c-0.8,1.5-2,2.6-3.6,3.4
				c-1.5,0.8-3.3,1.2-5.4,1.2h-6.8V18.3h6.8C169.6,18.3,171.4,18.7,173,19.5z M172.2,32.7c1.1-1.1,1.7-2.7,1.7-4.7
				c0-2-0.6-3.6-1.7-4.7c-1.1-1.1-2.7-1.7-4.7-1.7h-2.7v12.8h2.7C169.5,34.4,171.1,33.8,172.2,32.7z"/>
		</g>
	</g>
</g>
</svg>
