<?xml version="1.0" encoding="utf-8"?>
<!-- Generator: Adobe Illustrator 26.3.1, SVG Export Plug-In . SVG Version: 6.00 Build 0)  -->
<svg version="1.1" id="Capa_1" xmlns="http://www.w3.org/2000/svg" xmlns:xlink="http://www.w3.org/1999/xlink" x="0px" y="0px"
	 viewBox="0 0 501.5 145.5" style="enable-background:new 0 0 501.5 145.5;" xml:space="preserve">
<style type="text/css">
	.st0{fill:#83D59C;enable-background:new    ;}
	.st1{opacity:0.8;}
	.st2{fill:#FFFFFF;}
	.st3{opacity:0.2;}
	.st4{fill:url(#SVGID_1_);}
	.st5{fill:url(#SVGID_00000060709329045933798370000017883631539796634788_);}
	.st6{opacity:0.9;}
	.st7{fill:#4AD97E;stroke:#FFFFFF;stroke-miterlimit:10;}
	.st8{fill:#3D3129;}
	.st9{fill:url(#SVGID_00000109026194508300408280000017559766070429968308_);}
	.st10{fill:url(#SVGID_00000124152491584992592650000009447406933387744147_);}
	.st11{fill:url(#SVGID_00000142886800703240205920000004616309929117454250_);}
	.st12{fill:url(#SVGID_00000047055582610267289360000017495700103423650961_);}
	.st13{fill:#48C170;stroke:#FFFFFF;stroke-miterlimit:10;}
	.st14{fill:#6B463E;}
	.st15{fill:#A24D3A;}
	.st16{fill:#C36950;}
	.st17{fill:#4AD97E;stroke:#FFFFFF;stroke-width:2;stroke-miterlimit:10;}
	.st18{fill:#4AD97E;stroke:#FFFFFF;stroke-width:4;stroke-miterlimit:10;}
	.st19{fill:#F8F5EB;}
	.st20{fill:#FEFEFE;}
	.st21{fill:#ED9133;}
</style>
<image style="overflow:visible;" width="109" height="451" xlink:href="C9FCA90.jpg"  transform="matrix(14.7405 0 0 1.9687 -4124.6572 -5829.0532)">
</image>
<rect x="-482.7" y="-6250.1" class="st0" width="1607" height="888.8"/>
<g class="st1">
	<g>
		<g>
			<g>
				<path class="st2" d="M2990-4003.2v41.6h-18.2v-72.6h12.9l23.5,23.5l23.5-23.5h12.9v72.6h-18.2v-41.6l-18.2,18.2L2990-4003.2z"/>
				<path class="st2" d="M3071.6-3961.5h-18.2v-72.6h18.2V-3961.5z"/>
				<path class="st2" d="M3098.9-4003.2v41.6h-18.2v-72.6h12.9l41.6,41.6v-41.6h18.2v72.6h-12.9L3098.9-4003.2z"/>
				<path class="st2" d="M3235.1-4034.2v18.2h-27.2v54.5h-18.2v-54.5h-27.2v-18.2H3235.1z"/>
				<path class="st2" d="M3262.3-3979.7h54.5v18.2h-72.6v-72.6h18.2L3262.3-3979.7L3262.3-3979.7z"/>
				<path class="st2" d="M3330.4-3994.1l-27.2-27.2v-12.9h12.9l23.5,23.5l23.5-23.5h12.9v12.9l-27.2,27.2v32.5h-18.2V-3994.1z"/>
			</g>
		</g>
	</g>
</g>
<g class="st1">
	<path class="st2" d="M2817.2-3780c-35.3,0-70.7,0.2-106,0c-49.9-0.3-95.1-15.3-135.3-44.8c-32.1-23.5-57.4-52.7-74.2-89
		c-9.4-20.2-15.8-41.4-19.4-63.4c-2.3-14.2-3.1-28.6-3.2-42.9c-0.1-66.4,0-132.7,0-199.1c0-11.7,8.5-24.1,19.8-27.9
		c4.7-1.6,9.8-2.6,14.8-2.6c69.5-0.2,139-0.1,208.5-0.1c32.4,0,63.7,5.5,93.7,18.2c22,9.3,41.9,21.9,60.2,37.2
		c20.2,17,37.4,36.6,50.9,59.4c14.2,24.1,23.6,50,28.7,77.6c2.8,15,3.8,30.2,3.8,45.4c0,67.2,0,134.4,0,201.7
		c0,16.9-13.6,30.4-30.5,30.4C2891.5-3780,2854.4-3780,2817.2-3780z M2780.1-3870.6C2780.1-3870.6,2780.1-3870.6,2780.1-3870.6
		c24.8,0,49.6,0,74.5,0c5.8,0,10.4-3.3,11.3-8.3c0.5-2.7,0.8-5.6,0.8-8.4c0-42.9,0.1-85.9-0.1-128.8c-0.1-8.7-1-17.5-2.5-26
		c-5.2-29.1-18.8-54.1-39.5-75c-13.3-13.4-28.8-23.7-46.3-31.1c-15.2-6.4-31.1-10.6-47.6-10.9c-32.4-0.5-64.8-0.2-97.2-0.2
		c-16.6,0-33.2,0-49.8,0c-6,0-10.2,3.2-11.2,8.7c-0.4,1.9-0.3,3.9-0.3,5.8c-0.2,42.7-0.6,85.4-0.4,128.1c0.1,10.8,1,21.9,3.4,32.4
		c11.3,48.7,40.2,83.1,86.1,103c14,6.1,28.9,10,44.1,10.3C2730.2-3870.2,2755.2-3870.6,2780.1-3870.6z"/>
</g>
<image style="overflow:visible;" width="1500" height="500" xlink:href="C9FCA91.jpg"  transform="matrix(1 0 0 1 -38.6136 -5101.3828)">
</image>
<g class="st3">
	<path class="st2" d="M-3324.6-5517.6c44.7,0,82.7-15.7,114.2-47.1c31.5-31.4,47.2-69.4,47.2-114h161.4
		c0,88.9-31.5,164.8-94.6,227.8c-63.1,63-139.2,94.5-228.2,94.5c-89,0-165.1-31.5-228.2-94.5c-63.1-63-94.6-138.9-94.6-227.8h161.4
		c0,44.6,15.7,82.6,47.2,114C-3407.3-5533.3-3369.3-5517.6-3324.6-5517.6z M-3486-5034.3h-161.4c0-88.9,31.5-164.8,94.6-227.8
		c63.1-63,139.1-94.5,228.2-94.5c89,0,165.1,31.5,228.2,94.5c63.1,63,94.6,138.9,94.6,227.8h-161.4c0-44.6-15.7-82.6-47.2-114
		c-31.5-31.4-69.5-47.1-114.2-47.1c-44.7,0-82.7,15.7-114.2,47.1C-3470.3-5116.8-3486-5078.8-3486-5034.3z"/>
</g>
<circle class="st2" cx="-621.6" cy="-5863.4" r="94.2"/>
<linearGradient id="SVGID_1_" gradientUnits="userSpaceOnUse" x1="-2819.103" y1="-6698.7935" x2="-2318.1667" y2="-6698.7935" gradientTransform="matrix(4.489659e-11 1 1 -4.489659e-11 3377.4927 -3012.897)">
	<stop  offset="0" style="stop-color:#51DE83"/>
	<stop  offset="1" style="stop-color:#4AD97E;stop-opacity:0"/>
</linearGradient>
<polygon class="st4" points="-2518.6,-5331.1 -2518.6,-5832 -4124,-5832 -4124,-5331.1 "/>
<image style="overflow:visible;" width="109" height="451" xlink:href="C9FCA97.jpg"  transform="matrix(14.7405 0 0 1.9687 -4119.0498 -4863.9468)">
</image>
<linearGradient id="SVGID_00000173124587300224388450000001620652447462904502_" gradientUnits="userSpaceOnUse" x1="-1864.72" y1="-6481.5317" x2="-1500.1243" y2="-6481.5317" gradientTransform="matrix(4.489659e-11 1 1 -4.489659e-11 3377.4927 -3012.897)">
	<stop  offset="0" style="stop-color:#51DE83"/>
	<stop  offset="1" style="stop-color:#4AD97E;stop-opacity:0"/>
</linearGradient>
<polygon style="fill:url(#SVGID_00000173124587300224388450000001620652447462904502_);" points="-2301.3,-4513 -2301.3,-4877.6 
	-3906.8,-4877.6 -3906.8,-4513 "/>
<g>
	
		<text transform="matrix(1 0 0 1 -3993.6987 -5693.9272)" class="st19" style="font-family:'Fraunces72ptSoft-Black'; font-size:96px;"> </text>
</g>
<g>
	<text transform="matrix(1 0 0 1 -4001.6592 -4506.0444)"><tspan x="0" y="0" class="st19" style="font-family:'Fraunces72ptSoft-Black'; font-size:112.5536px;">Effortless Wealth </tspan><tspan x="0" y="135.1" class="st19" style="font-family:'Fraunces72ptSoft-Black'; font-size:112.5536px;">Building</tspan></text>
</g>
<g>
	<text transform="matrix(1 0 0 1 -3997.5386 -4283.542)"><tspan x="0" y="0" class="st8" style="font-family:'Fraunces72ptSoft-Black'; font-size:50px;">Smart strategies to grow your savings</tspan><tspan x="0" y="60" class="st8" style="font-family:'Fraunces72ptSoft-Black'; font-size:50px;">while you relax.</tspan></text>
</g>
<g>
	<g class="st6">
		<path class="st7" d="M-2721-4272.1c-22.1,0-44.2,0.1-66.4,0c-31.2-0.2-59.5-9.6-84.7-28.1c-20.1-14.7-35.9-33-46.5-55.7
			c-5.9-12.7-9.9-25.9-12.2-39.7c-1.5-8.9-2-17.9-2-26.9c0-41.5,0-83.1,0-124.6c0-7.3,5.3-15.1,12.4-17.5c2.9-1,6.2-1.6,9.3-1.7
			c43.5-0.1,87-0.1,130.5-0.1c20.3,0,39.9,3.5,58.6,11.4c13.7,5.8,26.2,13.7,37.7,23.3c12.7,10.6,23.4,22.9,31.8,37.2
			c8.9,15.1,14.8,31.3,18,48.5c1.8,9.4,2.4,18.9,2.4,28.4c0,42.1,0,84.2,0,126.2c0,10.6-8.5,19-19.1,19.1
			C-2674.4-4272.1-2697.7-4272.1-2721-4272.1z M-2744.2-4328.8C-2744.2-4328.8-2744.2-4328.8-2744.2-4328.8c15.5,0,31.1,0,46.6,0
			c3.6,0,6.5-2.1,7.1-5.2c0.3-1.7,0.5-3.5,0.5-5.2c0-26.9,0.1-53.7-0.1-80.6c0-5.4-0.6-10.9-1.6-16.3c-3.3-18.2-11.8-33.8-24.7-47
			c-8.3-8.4-18-14.9-29-19.4c-9.5-4-19.5-6.7-29.8-6.8c-20.3-0.3-40.6-0.1-60.9-0.1c-10.4,0-20.8,0-31.1,0c-3.8,0-6.4,2-7,5.4
			c-0.2,1.2-0.2,2.4-0.2,3.7c-0.1,26.7-0.4,53.5-0.2,80.2c0,6.8,0.6,13.7,2.2,20.3c7.1,30.5,25.1,52,53.9,64.5
			c8.8,3.8,18.1,6.2,27.6,6.5C-2775.4-4328.6-2759.8-4328.8-2744.2-4328.8z"/>
	</g>
	<g>
		<g class="st6">
			<path class="st7" d="M-2640.7-4397.3c-22.1,0-44.2,0.1-66.4,0c-31.2-0.2-59.5-9.6-84.7-28.1c-20.1-14.7-35.9-33-46.5-55.7
				c-5.9-12.7-9.9-25.9-12.2-39.7c-1.5-8.9-2-17.9-2-26.9c0-41.5,0-83.1,0-124.6c0-7.3,5.3-15.1,12.4-17.5c2.9-1,6.2-1.6,9.3-1.7
				c43.5-0.1,87-0.1,130.5-0.1c20.3,0,39.9,3.5,58.6,11.4c13.7,5.8,26.2,13.7,37.7,23.3c12.7,10.6,23.4,22.9,31.8,37.2
				c8.9,15.1,14.8,31.3,18,48.5c1.8,9.4,2.4,18.9,2.4,28.4c0,42.1,0,84.2,0,126.2c0,10.6-8.5,19-19.1,19.1
				C-2594.1-4397.3-2617.4-4397.3-2640.7-4397.3z M-2663.9-4454.1C-2663.9-4454.1-2663.9-4454.1-2663.9-4454.1c15.5,0,31.1,0,46.6,0
				c3.6,0,6.5-2.1,7.1-5.2c0.3-1.7,0.5-3.5,0.5-5.2c0-26.9,0.1-53.7-0.1-80.6c0-5.4-0.6-10.9-1.6-16.3c-3.3-18.2-11.8-33.8-24.7-47
				c-8.3-8.4-18-14.9-29-19.4c-9.5-4-19.5-6.7-29.8-6.8c-20.3-0.3-40.6-0.1-60.9-0.1c-10.4,0-20.8,0-31.1,0c-3.8,0-6.4,2-7,5.4
				c-0.2,1.2-0.2,2.4-0.2,3.7c-0.1,26.7-0.4,53.5-0.2,80.2c0,6.8,0.6,13.7,2.2,20.3c7.1,30.5,25.1,52,53.9,64.5
				c8.8,3.8,18.1,6.2,27.6,6.5C-2695.1-4453.8-2679.5-4454.1-2663.9-4454.1z"/>
		</g>
		<g>
			<path class="st2" d="M-2801.8-4146.4c-22.1,0-44.2,0.1-66.4,0c-31.2-0.2-59.5-9.6-84.7-28.1c-20.1-14.7-35.9-33-46.5-55.7
				c-5.9-12.7-9.9-25.9-12.2-39.7c-1.5-8.9-2-17.9-2-26.9c0-41.5,0-83.1,0-124.6c0-7.3,5.3-15.1,12.4-17.5c2.9-1,6.2-1.6,9.3-1.7
				c43.5-0.1,87-0.1,130.5-0.1c20.3,0,39.9,3.5,58.6,11.4c13.7,5.8,26.2,13.7,37.7,23.3c12.7,10.6,23.4,22.9,31.8,37.2
				c8.9,15.1,14.8,31.3,18,48.5c1.8,9.4,2.4,18.9,2.4,28.4c0,42.1,0,84.2,0,126.2c0,10.6-8.5,19-19.1,19.1
				C-2755.2-4146.4-2778.5-4146.4-2801.8-4146.4z M-2825-4203.1C-2825-4203.1-2825-4203.1-2825-4203.1c15.5,0,31.1,0,46.6,0
				c3.6,0,6.5-2.1,7.1-5.2c0.3-1.7,0.5-3.5,0.5-5.2c0-26.9,0.1-53.7-0.1-80.6c0-5.4-0.6-10.9-1.6-16.3c-3.3-18.2-11.8-33.8-24.7-47
				c-8.3-8.4-18-14.9-29-19.4c-9.5-4-19.5-6.7-29.8-6.8c-20.3-0.3-40.6-0.1-60.9-0.1c-10.4,0-20.8,0-31.1,0c-3.8,0-6.4,2-7,5.4
				c-0.2,1.2-0.2,2.4-0.2,3.7c-0.1,26.7-0.4,53.5-0.2,80.2c0,6.8,0.6,13.7,2.2,20.3c7.1,30.5,25.1,52,53.9,64.5
				c8.8,3.8,18.1,6.2,27.6,6.5C-2856.2-4202.9-2840.6-4203.1-2825-4203.1z"/>
		</g>
	</g>
</g>
<g>
	<g>
		
			<text transform="matrix(1 0 0 1 -2678.0649 -4008.6272)" class="st19" style="font-family:'Fraunces72ptSoft-Regular'; font-size:34.4196px;">mintly.so</text>
	</g>
	<g class="st6">
		<path class="st2" d="M-2703-3999.8c-2.6,0-5.2,0-7.8,0c-3.7,0-7-1.1-10-3.3c-2.4-1.7-4.2-3.9-5.5-6.6c-0.7-1.5-1.2-3.1-1.4-4.7
			c-0.2-1.1-0.2-2.1-0.2-3.2c0-4.9,0-9.8,0-14.7c0-0.9,0.6-1.8,1.5-2.1c0.3-0.1,0.7-0.2,1.1-0.2c5.1,0,10.3,0,15.4,0
			c2.4,0,4.7,0.4,6.9,1.3c1.6,0.7,3.1,1.6,4.5,2.8c1.5,1.3,2.8,2.7,3.8,4.4c1,1.8,1.7,3.7,2.1,5.7c0.2,1.1,0.3,2.2,0.3,3.4
			c0,5,0,9.9,0,14.9c0,1.2-1,2.3-2.3,2.3C-2697.5-3999.8-2700.3-3999.8-2703-3999.8z M-2705.8-4006.5
			C-2705.8-4006.5-2705.8-4006.5-2705.8-4006.5c1.8,0,3.7,0,5.5,0c0.4,0,0.8-0.2,0.8-0.6c0-0.2,0.1-0.4,0.1-0.6c0-3.2,0-6.4,0-9.5
			c0-0.6-0.1-1.3-0.2-1.9c-0.4-2.2-1.4-4-2.9-5.6c-1-1-2.1-1.8-3.4-2.3c-1.1-0.5-2.3-0.8-3.5-0.8c-2.4,0-4.8,0-7.2,0
			c-1.2,0-2.5,0-3.7,0c-0.4,0-0.8,0.2-0.8,0.6c0,0.1,0,0.3,0,0.4c0,3.2,0,6.3,0,9.5c0,0.8,0.1,1.6,0.3,2.4c0.8,3.6,3,6.1,6.4,7.6
			c1,0.5,2.1,0.7,3.3,0.8C-2709.5-4006.5-2707.6-4006.5-2705.8-4006.5z"/>
	</g>
</g>
<g>
	<g>
		<g class="st6">
			<g>
				<g>
					<g>
						<path class="st8" d="M-3945-4806.6v8.4h-3.7v-14.7h2.6l4.7,4.7l4.7-4.7h2.6v14.7h-3.7v-8.4l-3.7,3.7L-3945-4806.6z"/>
						<path class="st8" d="M-3928.5-4798.2h-3.7v-14.7h3.7V-4798.2z"/>
						<path class="st8" d="M-3923-4806.6v8.4h-3.7v-14.7h2.6l8.4,8.4v-8.4h3.7v14.7h-2.6L-3923-4806.6z"/>
						<path class="st8" d="M-3895.4-4812.9v3.7h-5.5v11h-3.7v-11h-5.5v-3.7H-3895.4z"/>
						<path class="st8" d="M-3889.9-4801.9h11v3.7h-14.7v-14.7h3.7L-3889.9-4801.9L-3889.9-4801.9z"/>
						<path class="st8" d="M-3876.2-4804.8l-5.5-5.5v-2.6h2.6l4.7,4.7l4.7-4.7h2.6v2.6l-5.5,5.5v6.6h-3.7V-4804.8z"/>
					</g>
				</g>
			</g>
		</g>
		<g class="st6">
			<path class="st8" d="M-3966.5-4783.9c-3.3,0-6.5,0-9.8,0c-4.6,0-8.8-1.4-12.5-4.1c-3-2.2-5.3-4.9-6.8-8.2
				c-0.9-1.9-1.5-3.8-1.8-5.8c-0.2-1.3-0.3-2.6-0.3-4c0-6.1,0-12.2,0-18.4c0-1.1,0.8-2.2,1.8-2.6c0.4-0.1,0.9-0.2,1.4-0.2
				c6.4,0,12.8,0,19.2,0c3,0,5.9,0.5,8.6,1.7c2,0.9,3.9,2,5.5,3.4c1.9,1.6,3.5,3.4,4.7,5.5c1.3,2.2,2.2,4.6,2.6,7.1
				c0.3,1.4,0.4,2.8,0.4,4.2c0,6.2,0,12.4,0,18.6c0,1.6-1.3,2.8-2.8,2.8C-3959.6-4783.9-3963.1-4783.9-3966.5-4783.9z
				 M-3969.9-4792.3C-3969.9-4792.3-3969.9-4792.3-3969.9-4792.3c2.3,0,4.6,0,6.9,0c0.5,0,1-0.3,1-0.8c0-0.3,0.1-0.5,0.1-0.8
				c0-4,0-7.9,0-11.9c0-0.8-0.1-1.6-0.2-2.4c-0.5-2.7-1.7-5-3.6-6.9c-1.2-1.2-2.7-2.2-4.3-2.9c-1.4-0.6-2.9-1-4.4-1c-3,0-6,0-9,0
				c-1.5,0-3.1,0-4.6,0c-0.6,0-0.9,0.3-1,0.8c0,0.2,0,0.4,0,0.5c0,3.9-0.1,7.9,0,11.8c0,1,0.1,2,0.3,3c1,4.5,3.7,7.7,7.9,9.5
				c1.3,0.6,2.7,0.9,4.1,1C-3974.5-4792.2-3972.2-4792.3-3969.9-4792.3z"/>
		</g>
	</g>
</g>
<image style="overflow:visible;" width="109" height="451" xlink:href="C9FCA92.jpg"  transform="matrix(14.7405 0 0 1.9687 -4112.9219 -3851.3345)">
</image>
<linearGradient id="SVGID_00000004540045621853855990000004542848119558400920_" gradientUnits="userSpaceOnUse" x1="-844.4647" y1="-6686.8086" x2="-479.8689" y2="-6686.8086" gradientTransform="matrix(4.489659e-11 1 1 -4.489659e-11 3377.4927 -3012.897)">
	<stop  offset="0" style="stop-color:#51DE83"/>
	<stop  offset="1" style="stop-color:#4AD97E;stop-opacity:0"/>
</linearGradient>
<polygon style="fill:url(#SVGID_00000004540045621853855990000004542848119558400920_);" points="-2506.6,-3492.8 -2506.6,-3857.4 
	-4112,-3857.4 -4112,-3492.8 "/>
<g>
	<g>
		
			<text transform="matrix(1 0 0 1 -2671.9373 -3002.1589)" class="st19" style="font-family:'Fraunces72ptSoft-Regular'; font-size:34.4196px;">mintly.so</text>
	</g>
	<g class="st6">
		<path class="st2" d="M-2696.9-2993.3c-2.6,0-5.2,0-7.8,0c-3.7,0-7-1.1-10-3.3c-2.4-1.7-4.2-3.9-5.5-6.6c-0.7-1.5-1.2-3.1-1.4-4.7
			c-0.2-1.1-0.2-2.1-0.2-3.2c0-4.9,0-9.8,0-14.7c0-0.9,0.6-1.8,1.5-2.1c0.3-0.1,0.7-0.2,1.1-0.2c5.1,0,10.3,0,15.4,0
			c2.4,0,4.7,0.4,6.9,1.3c1.6,0.7,3.1,1.6,4.5,2.8c1.5,1.3,2.8,2.7,3.8,4.4c1.1,1.8,1.7,3.7,2.1,5.7c0.2,1.1,0.3,2.2,0.3,3.4
			c0,5,0,9.9,0,14.9c0,1.2-1,2.3-2.3,2.3C-2691.4-2993.3-2694.1-2993.3-2696.9-2993.3z M-2699.6-3000
			C-2699.6-3000-2699.6-3000-2699.6-3000c1.8,0,3.7,0,5.5,0c0.4,0,0.8-0.2,0.8-0.6c0-0.2,0.1-0.4,0.1-0.6c0-3.2,0-6.4,0-9.5
			c0-0.6-0.1-1.3-0.2-1.9c-0.4-2.2-1.4-4-2.9-5.6c-1-1-2.1-1.8-3.4-2.3c-1.1-0.5-2.3-0.8-3.5-0.8c-2.4,0-4.8,0-7.2,0
			c-1.2,0-2.5,0-3.7,0c-0.4,0-0.8,0.2-0.8,0.6c0,0.1,0,0.3,0,0.4c0,3.2,0,6.3,0,9.5c0,0.8,0.1,1.6,0.3,2.4c0.8,3.6,3,6.1,6.4,7.6
			c1,0.5,2.1,0.7,3.3,0.8C-2703.3-3000-2701.5-3000-2699.6-3000z"/>
	</g>
</g>
<g>
	<g>
		<g class="st6">
			<g>
				<g>
					<g>
						<path class="st8" d="M-3938.8-3800.2v8.4h-3.7v-14.7h2.6l4.7,4.7l4.7-4.7h2.6v14.7h-3.7v-8.4l-3.7,3.7L-3938.8-3800.2z"/>
						<path class="st8" d="M-3922.3-3791.7h-3.7v-14.7h3.7V-3791.7z"/>
						<path class="st8" d="M-3916.8-3800.2v8.4h-3.7v-14.7h2.6l8.4,8.4v-8.4h3.7v14.7h-2.6L-3916.8-3800.2z"/>
						<path class="st8" d="M-3889.3-3806.4v3.7h-5.5v11h-3.7v-11h-5.5v-3.7H-3889.3z"/>
						<path class="st8" d="M-3883.8-3795.4h11v3.7h-14.7v-14.7h3.7L-3883.8-3795.4L-3883.8-3795.4z"/>
						<path class="st8" d="M-3870-3798.3l-5.5-5.5v-2.6h2.6l4.7,4.7l4.7-4.7h2.6v2.6l-5.5,5.5v6.6h-3.7V-3798.3z"/>
					</g>
				</g>
			</g>
		</g>
		<g class="st6">
			<path class="st8" d="M-3960.4-3777.4c-3.3,0-6.5,0-9.8,0c-4.6,0-8.8-1.4-12.5-4.1c-3-2.2-5.3-4.9-6.8-8.2
				c-0.9-1.9-1.5-3.8-1.8-5.8c-0.2-1.3-0.3-2.6-0.3-4c0-6.1,0-12.2,0-18.4c0-1.1,0.8-2.2,1.8-2.6c0.4-0.1,0.9-0.2,1.4-0.2
				c6.4,0,12.8,0,19.2,0c3,0,5.9,0.5,8.6,1.7c2,0.9,3.9,2,5.5,3.4c1.9,1.6,3.5,3.4,4.7,5.5c1.3,2.2,2.2,4.6,2.6,7.1
				c0.3,1.4,0.4,2.8,0.4,4.2c0,6.2,0,12.4,0,18.6c0,1.6-1.3,2.8-2.8,2.8C-3953.5-3777.4-3956.9-3777.4-3960.4-3777.4z
				 M-3963.8-3785.8C-3963.8-3785.8-3963.8-3785.8-3963.8-3785.8c2.3,0,4.6,0,6.9,0c0.5,0,1-0.3,1-0.8c0-0.3,0.1-0.5,0.1-0.8
				c0-4,0-7.9,0-11.9c0-0.8-0.1-1.6-0.2-2.4c-0.5-2.7-1.7-5-3.6-6.9c-1.2-1.2-2.7-2.2-4.3-2.9c-1.4-0.6-2.9-1-4.4-1c-3,0-6,0-9,0
				c-1.5,0-3.1,0-4.6,0c-0.6,0-0.9,0.3-1,0.8c0,0.2,0,0.4,0,0.5c0,3.9-0.1,7.9,0,11.8c0,1,0.1,2,0.3,3c1,4.5,3.7,7.7,7.9,9.5
				c1.3,0.6,2.7,0.9,4.1,1C-3968.4-3785.7-3966.1-3785.8-3963.8-3785.8z"/>
		</g>
	</g>
</g>
<image style="overflow:visible;" width="109" height="451" xlink:href="C9FCA93.jpg"  transform="matrix(14.7405 0 0 1.9687 -4123.6455 -6752.7979)">
</image>
<linearGradient id="SVGID_00000063628944871383818960000004847670759207977658_" gradientUnits="userSpaceOnUse" x1="-3739.7837" y1="-6697.5317" x2="-3375.188" y2="-6697.5317" gradientTransform="matrix(4.489659e-11 1 1 -4.489659e-11 3377.4927 -3012.897)">
	<stop  offset="0" style="stop-color:#51DE83"/>
	<stop  offset="1" style="stop-color:#4AD97E;stop-opacity:0"/>
</linearGradient>
<polygon style="fill:url(#SVGID_00000063628944871383818960000004847670759207977658_);" points="-2517.3,-6388.1 -2517.3,-6752.7 
	-4122.8,-6752.7 -4122.8,-6388.1 "/>
<g>
	<g>
		
			<text transform="matrix(1 0 0 1 -2682.6606 -5897.478)" class="st19" style="font-family:'Fraunces72ptSoft-Regular'; font-size:34.4196px;">mintly.so</text>
	</g>
	<g class="st6">
		<path class="st2" d="M-2707.6-5888.6c-2.6,0-5.2,0-7.8,0c-3.7,0-7-1.1-10-3.3c-2.4-1.7-4.2-3.9-5.5-6.6c-0.7-1.5-1.2-3.1-1.4-4.7
			c-0.2-1.1-0.2-2.1-0.2-3.2c0-4.9,0-9.8,0-14.7c0-0.9,0.6-1.8,1.5-2.1c0.3-0.1,0.7-0.2,1.1-0.2c5.1,0,10.3,0,15.4,0
			c2.4,0,4.7,0.4,6.9,1.3c1.6,0.7,3.1,1.6,4.5,2.8c1.5,1.3,2.8,2.7,3.8,4.4c1.1,1.8,1.7,3.7,2.1,5.7c0.2,1.1,0.3,2.2,0.3,3.4
			c0,5,0,9.9,0,14.9c0,1.2-1,2.3-2.3,2.3C-2702.1-5888.6-2704.9-5888.6-2707.6-5888.6z M-2710.4-5895.3
			C-2710.4-5895.3-2710.4-5895.3-2710.4-5895.3c1.8,0,3.7,0,5.5,0c0.4,0,0.8-0.2,0.8-0.6c0-0.2,0.1-0.4,0.1-0.6c0-3.2,0-6.4,0-9.5
			c0-0.6-0.1-1.3-0.2-1.9c-0.4-2.2-1.4-4-2.9-5.6c-1-1-2.1-1.8-3.4-2.3c-1.1-0.5-2.3-0.8-3.5-0.8c-2.4,0-4.8,0-7.2,0
			c-1.2,0-2.5,0-3.7,0c-0.4,0-0.8,0.2-0.8,0.6c0,0.1,0,0.3,0,0.4c0,3.2,0,6.3,0,9.5c0,0.8,0.1,1.6,0.3,2.4c0.8,3.6,3,6.1,6.4,7.6
			c1,0.5,2.1,0.7,3.3,0.8C-2714.1-5895.3-2712.2-5895.3-2710.4-5895.3z"/>
	</g>
</g>
<g>
	<g>
		<g class="st6">
			<g>
				<g>
					<g>
						<path class="st8" d="M-3949.6-6695.5v8.4h-3.7v-14.7h2.6l4.7,4.7l4.7-4.7h2.6v14.7h-3.7v-8.4l-3.7,3.7L-3949.6-6695.5z"/>
						<path class="st8" d="M-3933.1-6687.1h-3.7v-14.7h3.7V-6687.1z"/>
						<path class="st8" d="M-3927.5-6695.5v8.4h-3.7v-14.7h2.6l8.4,8.4v-8.4h3.7v14.7h-2.6L-3927.5-6695.5z"/>
						<path class="st8" d="M-3900-6701.7v3.7h-5.5v11h-3.7v-11h-5.5v-3.7H-3900z"/>
						<path class="st8" d="M-3894.5-6690.7h11v3.7h-14.7v-14.7h3.7L-3894.5-6690.7L-3894.5-6690.7z"/>
						<path class="st8" d="M-3880.7-6693.6l-5.5-5.5v-2.6h2.6l4.7,4.7l4.7-4.7h2.6v2.6l-5.5,5.5v6.6h-3.7V-6693.6z"/>
					</g>
				</g>
			</g>
		</g>
		<g class="st6">
			<path class="st8" d="M-3971.1-6672.7c-3.3,0-6.5,0-9.8,0c-4.6,0-8.8-1.4-12.5-4.1c-3-2.2-5.3-4.9-6.8-8.2
				c-0.9-1.9-1.5-3.8-1.8-5.8c-0.2-1.3-0.3-2.6-0.3-4c0-6.1,0-12.2,0-18.4c0-1.1,0.8-2.2,1.8-2.6c0.4-0.1,0.9-0.2,1.4-0.2
				c6.4,0,12.8,0,19.2,0c3,0,5.9,0.5,8.6,1.7c2,0.9,3.9,2,5.5,3.4c1.9,1.6,3.5,3.4,4.7,5.5c1.3,2.2,2.2,4.6,2.6,7.1
				c0.3,1.4,0.4,2.8,0.4,4.2c0,6.2,0,12.4,0,18.6c0,1.6-1.3,2.8-2.8,2.8C-3964.2-6672.7-3967.6-6672.7-3971.1-6672.7z
				 M-3974.5-6681.1C-3974.5-6681.1-3974.5-6681.1-3974.5-6681.1c2.3,0,4.6,0,6.9,0c0.5,0,1-0.3,1-0.8c0-0.3,0.1-0.5,0.1-0.8
				c0-4,0-7.9,0-11.9c0-0.8-0.1-1.6-0.2-2.4c-0.5-2.7-1.7-5-3.6-6.9c-1.2-1.2-2.7-2.2-4.3-2.9c-1.4-0.6-2.9-1-4.4-1c-3,0-6,0-9,0
				c-1.5,0-3.1,0-4.6,0c-0.6,0-0.9,0.3-1,0.8c0,0.2,0,0.4,0,0.5c0,3.9-0.1,7.9,0,11.8c0,1,0.1,2,0.3,3c1,4.5,3.7,7.7,7.9,9.5
				c1.3,0.6,2.7,0.9,4.1,1C-3979.1-6681.1-3976.8-6681.1-3974.5-6681.1z"/>
		</g>
	</g>
</g>
<image style="overflow:visible;" width="109" height="451" xlink:href="C9FCA9E.jpg"  transform="matrix(14.7405 0 0 1.9687 -2181.9434 -5174.9253)">
</image>
<linearGradient id="SVGID_00000080171051741842769040000016825719940090965384_" gradientUnits="userSpaceOnUse" x1="-4113.5708" y1="-5206.2129" x2="-3748.9753" y2="-5206.2129" gradientTransform="matrix(4.489659e-11 1 1 -4.489659e-11 3377.4927 -3012.897)">
	<stop  offset="0" style="stop-color:#51DE83"/>
	<stop  offset="1" style="stop-color:#4AD97E;stop-opacity:0"/>
</linearGradient>
<polygon style="fill:url(#SVGID_00000080171051741842769040000016825719940090965384_);" points="-1026,-6761.9 -1026,-7126.5 
	-2631.4,-7126.5 -2631.4,-6761.9 "/>
<g>
	<text transform="matrix(1 0 0 1 -308.9783 -5806.6401)"><tspan x="0" y="0" class="st19" style="font-family:'Fraunces72ptSoft-Black'; font-size:112.5536px;">Effortless Wealth </tspan><tspan x="0" y="135.1" class="st19" style="font-family:'Fraunces72ptSoft-Black'; font-size:112.5536px;">Building</tspan></text>
</g>
<g>
	<text transform="matrix(1 0 0 1 -3999.7444 -6428.5977)"><tspan x="0" y="0" class="st19" style="font-family:'Fraunces72ptSoft-Black'; font-size:112.5536px;">Everything You </tspan><tspan x="0" y="135.1" class="st19" style="font-family:'Fraunces72ptSoft-Black'; font-size:112.5536px;">Need to Grow</tspan></text>
</g>
<g>
	<text transform="matrix(1 0 0 1 -304.8577 -5584.1377)"><tspan x="0" y="0" class="st8" style="font-family:'Fraunces72ptSoft-Black'; font-size:50px;">Smart strategies to grow your savings</tspan><tspan x="0" y="60" class="st8" style="font-family:'Fraunces72ptSoft-Black'; font-size:50px;">while you relax.</tspan></text>
</g>
<g class="st6">
	<path class="st7" d="M-942.4-6294.2c-22.1,0-44.2,0.1-66.4,0c-31.2-0.2-59.5-9.6-84.7-28.1c-20.1-14.7-35.9-33-46.5-55.7
		c-5.9-12.7-9.9-25.9-12.2-39.7c-1.5-8.9-2-17.9-2-26.9c0-41.5,0-83.1,0-124.6c0-7.3,5.3-15.1,12.4-17.5c2.9-1,6.2-1.6,9.3-1.7
		c43.5-0.1,87-0.1,130.5-0.1c20.3,0,39.9,3.5,58.6,11.4c13.7,5.8,26.2,13.7,37.7,23.3c12.7,10.6,23.4,22.9,31.8,37.2
		c8.9,15.1,14.8,31.3,18,48.5c1.8,9.4,2.4,18.9,2.4,28.4c0,42.1,0,84.2,0,126.2c0,10.6-8.5,19-19.1,19.1
		C-895.9-6294.2-919.2-6294.2-942.4-6294.2z M-965.6-6351C-965.6-6351-965.6-6351-965.6-6351c15.5,0,31.1,0,46.6,0
		c3.6,0,6.5-2.1,7.1-5.2c0.3-1.7,0.5-3.5,0.5-5.2c0-26.9,0.1-53.7-0.1-80.6c0-5.4-0.6-10.9-1.6-16.3c-3.3-18.2-11.8-33.8-24.7-47
		c-8.3-8.4-18-14.9-29-19.4c-9.5-4-19.5-6.7-29.8-6.8c-20.3-0.3-40.6-0.1-60.9-0.1c-10.4,0-20.8,0-31.1,0c-3.8,0-6.4,2-7,5.4
		c-0.2,1.2-0.2,2.4-0.2,3.7c-0.1,26.7-0.4,53.5-0.2,80.2c0,6.8,0.6,13.7,2.2,20.3c7.1,30.5,25.1,52,53.9,64.5
		c8.8,3.8,18.1,6.2,27.6,6.5C-996.9-6350.7-981.3-6351-965.6-6351z"/>
</g>
<g>
	<g class="st6">
		<path class="st7" d="M-453.1-6545.8c-22.1,0-44.2,0.1-66.4,0c-31.2-0.2-59.5-9.6-84.7-28.1c-20.1-14.7-35.9-33-46.5-55.7
			c-5.9-12.7-9.9-25.9-12.2-39.7c-1.5-8.9-2-17.9-2-26.9c0-41.5,0-83.1,0-124.6c0-7.3,5.3-15.1,12.4-17.5c2.9-1,6.2-1.6,9.3-1.7
			c43.5-0.1,87-0.1,130.5-0.1c20.3,0,39.9,3.5,58.6,11.4c13.7,5.8,26.2,13.7,37.7,23.3c12.7,10.6,23.4,22.9,31.8,37.2
			c8.9,15.1,14.8,31.3,18,48.5c1.8,9.4,2.4,18.9,2.4,28.4c0,42.1,0,84.2,0,126.2c0,10.6-8.5,19-19.1,19.1
			C-406.6-6545.8-429.9-6545.8-453.1-6545.8z M-476.3-6602.6C-476.3-6602.6-476.3-6602.6-476.3-6602.6c15.5,0,31.1,0,46.6,0
			c3.6,0,6.5-2.1,7.1-5.2c0.3-1.7,0.5-3.5,0.5-5.2c0-26.9,0.1-53.7-0.1-80.6c0-5.4-0.6-10.9-1.6-16.3c-3.3-18.2-11.8-33.8-24.7-47
			c-8.3-8.4-18-14.9-29-19.4c-9.5-4-19.5-6.7-29.8-6.8c-20.3-0.3-40.6-0.1-60.9-0.1c-10.4,0-20.8,0-31.1,0c-3.8,0-6.4,2-7,5.4
			c-0.2,1.2-0.2,2.4-0.2,3.7c-0.1,26.7-0.4,53.5-0.2,80.2c0,6.8,0.6,13.7,2.2,20.3c7.1,30.5,25.1,52,53.9,64.5
			c8.8,3.8,18.1,6.2,27.6,6.5C-507.6-6602.3-491.9-6602.6-476.3-6602.6z"/>
	</g>
	<g>
		<path class="st2" d="M-614.2-6294.9c-22.1,0-44.2,0.1-66.4,0c-31.2-0.2-59.5-9.6-84.7-28.1c-20.1-14.7-35.9-33-46.5-55.7
			c-5.9-12.7-9.9-25.9-12.2-39.7c-1.5-8.9-2-17.9-2-26.9c0-41.5,0-83.1,0-124.6c0-7.3,5.3-15.1,12.4-17.5c2.9-1,6.2-1.6,9.3-1.7
			c43.5-0.1,87-0.1,130.5-0.1c20.3,0,39.9,3.5,58.6,11.4c13.7,5.8,26.2,13.7,37.7,23.3c12.7,10.6,23.4,22.9,31.8,37.2
			c8.9,15.1,14.8,31.3,18,48.5c1.8,9.4,2.4,18.9,2.4,28.4c0,42.1,0,84.2,0,126.2c0,10.6-8.5,19-19.1,19.1
			C-567.6-6294.9-590.9-6294.9-614.2-6294.9z M-637.4-6351.6C-637.4-6351.6-637.4-6351.6-637.4-6351.6c15.5,0,31.1,0,46.6,0
			c3.6,0,6.5-2.1,7.1-5.2c0.3-1.7,0.5-3.5,0.5-5.2c0-26.9,0.1-53.7-0.1-80.6c0-5.4-0.6-10.9-1.6-16.3c-3.3-18.2-11.8-33.8-24.7-47
			c-8.3-8.4-18-14.9-29-19.4c-9.5-4-19.5-6.7-29.8-6.8c-20.3-0.3-40.6-0.1-60.9-0.1c-10.4,0-20.8,0-31.1,0c-3.8,0-6.4,2-7,5.4
			c-0.2,1.2-0.2,2.4-0.2,3.7c-0.1,26.7-0.4,53.5-0.2,80.2c0,6.8,0.6,13.7,2.2,20.3c7.1,30.5,25.1,52,53.9,64.5
			c8.8,3.8,18.1,6.2,27.6,6.5C-668.6-6351.4-653-6351.6-637.4-6351.6z"/>
	</g>
</g>
<g>
	<g>
		
			<text transform="matrix(1 0 0 1 -734.0649 -5180.542)" class="st19" style="font-family:'Fraunces72ptSoft-Regular'; font-size:34.4196px;">mintly.so</text>
	</g>
	<g class="st6">
		<path class="st2" d="M-759-5171.7c-2.6,0-5.2,0-7.8,0c-3.7,0-7-1.1-10-3.3c-2.4-1.7-4.2-3.9-5.5-6.6c-0.7-1.5-1.2-3.1-1.4-4.7
			c-0.2-1.1-0.2-2.1-0.2-3.2c0-4.9,0-9.8,0-14.7c0-0.9,0.6-1.8,1.5-2.1c0.3-0.1,0.7-0.2,1.1-0.2c5.1,0,10.3,0,15.4,0
			c2.4,0,4.7,0.4,6.9,1.3c1.6,0.7,3.1,1.6,4.5,2.8c1.5,1.3,2.8,2.7,3.8,4.4c1.1,1.8,1.7,3.7,2.1,5.7c0.2,1.1,0.3,2.2,0.3,3.4
			c0,5,0,9.9,0,14.9c0,1.2-1,2.3-2.3,2.3C-753.5-5171.7-756.3-5171.7-759-5171.7z M-761.8-5178.4
			C-761.8-5178.4-761.8-5178.4-761.8-5178.4c1.8,0,3.7,0,5.5,0c0.4,0,0.8-0.2,0.8-0.6c0-0.2,0.1-0.4,0.1-0.6c0-3.2,0-6.4,0-9.5
			c0-0.6-0.1-1.3-0.2-1.9c-0.4-2.2-1.4-4-2.9-5.6c-1-1-2.1-1.8-3.4-2.3c-1.1-0.5-2.3-0.8-3.5-0.8c-2.4,0-4.8,0-7.2,0
			c-1.2,0-2.5,0-3.7,0c-0.4,0-0.8,0.2-0.8,0.6c0,0.1,0,0.3,0,0.4c0,3.2,0,6.3,0,9.5c0,0.8,0.1,1.6,0.3,2.4c0.8,3.6,3,6.1,6.4,7.6
			c1,0.5,2.1,0.7,3.3,0.8C-765.5-5178.4-763.6-5178.4-761.8-5178.4z"/>
	</g>
</g>
<g>
	<g>
		<g class="st6">
			<g>
				<g>
					<g>
						<path class="st8" d="M-252.3-6107.2v8.4h-3.7v-14.7h2.6l4.7,4.7l4.7-4.7h2.6v14.7h-3.7v-8.4l-3.7,3.7L-252.3-6107.2z"/>
						<path class="st8" d="M-235.8-6098.8h-3.7v-14.7h3.7V-6098.8z"/>
						<path class="st8" d="M-230.3-6107.2v8.4h-3.7v-14.7h2.6l8.4,8.4v-8.4h3.7v14.7h-2.6L-230.3-6107.2z"/>
						<path class="st8" d="M-202.7-6113.5v3.7h-5.5v11h-3.7v-11h-5.5v-3.7H-202.7z"/>
						<path class="st8" d="M-197.2-6102.5h11v3.7h-14.7v-14.7h3.7L-197.2-6102.5L-197.2-6102.5z"/>
						<path class="st8" d="M-183.5-6105.4l-5.5-5.5v-2.6h2.6l4.7,4.7l4.7-4.7h2.6v2.6l-5.5,5.5v6.6h-3.7V-6105.4z"/>
					</g>
				</g>
			</g>
		</g>
		<g class="st6">
			<path class="st8" d="M-273.8-6084.5c-3.3,0-6.5,0-9.8,0c-4.6,0-8.8-1.4-12.5-4.1c-3-2.2-5.3-4.9-6.8-8.2
				c-0.9-1.9-1.5-3.8-1.8-5.8c-0.2-1.3-0.3-2.6-0.3-4c0-6.1,0-12.2,0-18.4c0-1.1,0.8-2.2,1.8-2.6c0.4-0.1,0.9-0.2,1.4-0.2
				c6.4,0,12.8,0,19.2,0c3,0,5.9,0.5,8.6,1.7c2,0.9,3.9,2,5.5,3.4c1.9,1.6,3.5,3.4,4.7,5.5c1.3,2.2,2.2,4.6,2.6,7.1
				c0.3,1.4,0.4,2.8,0.4,4.2c0,6.2,0,12.4,0,18.6c0,1.6-1.3,2.8-2.8,2.8C-266.9-6084.5-270.4-6084.5-273.8-6084.5z M-277.2-6092.8
				C-277.2-6092.8-277.2-6092.8-277.2-6092.8c2.3,0,4.6,0,6.9,0c0.5,0,1-0.3,1-0.8c0-0.3,0.1-0.5,0.1-0.8c0-4,0-7.9,0-11.9
				c0-0.8-0.1-1.6-0.2-2.4c-0.5-2.7-1.7-5-3.6-6.9c-1.2-1.2-2.7-2.2-4.3-2.9c-1.4-0.6-2.9-1-4.4-1c-3,0-6,0-9,0c-1.5,0-3.1,0-4.6,0
				c-0.6,0-0.9,0.3-1,0.8c0,0.2,0,0.4,0,0.5c0,3.9-0.1,7.9,0,11.8c0,1,0.1,2,0.3,3c1,4.5,3.7,7.7,7.9,9.5c1.3,0.6,2.7,0.9,4.1,1
				C-281.8-6092.8-279.5-6092.8-277.2-6092.8z"/>
		</g>
	</g>
</g>
<linearGradient id="SVGID_00000002356136912932336720000017014749340352294798_" gradientUnits="userSpaceOnUse" x1="-1642.5923" y1="-8332.5811" x2="-923.7413" y2="-8332.5811" gradientTransform="matrix(4.489659e-11 -1 1 4.489659e-11 3377.4927 -6616.7197)">
	<stop  offset="0" style="stop-color:#51DE83"/>
	<stop  offset="1" style="stop-color:#4AD97E;stop-opacity:0"/>
</linearGradient>
<polygon style="fill:url(#SVGID_00000002356136912932336720000017014749340352294798_);" points="-4152.4,-5693 -4152.4,-4974.1 
	-5757.8,-4974.1 -5757.8,-5693 "/>
<g>
	<g>
		
			<text transform="matrix(1 0 0 1 -2678.4009 -4961.8438)" class="st19" style="font-family:'Fraunces72ptSoft-Regular'; font-size:34.4196px;">mintly.so</text>
	</g>
	<g class="st6">
		<path class="st2" d="M-2703.4-4953c-2.6,0-5.2,0-7.8,0c-3.7,0-7-1.1-10-3.3c-2.4-1.7-4.2-3.9-5.5-6.6c-0.7-1.5-1.2-3.1-1.4-4.7
			c-0.2-1.1-0.2-2.1-0.2-3.2c0-4.9,0-9.8,0-14.7c0-0.9,0.6-1.8,1.5-2.1c0.3-0.1,0.7-0.2,1.1-0.2c5.1,0,10.3,0,15.4,0
			c2.4,0,4.7,0.4,6.9,1.3c1.6,0.7,3.1,1.6,4.5,2.8c1.5,1.3,2.8,2.7,3.8,4.4c1.1,1.8,1.7,3.7,2.1,5.7c0.2,1.1,0.3,2.2,0.3,3.4
			c0,5,0,9.9,0,14.9c0,1.2-1,2.3-2.3,2.3C-2697.9-4953-2700.6-4953-2703.4-4953z M-2706.1-4959.7
			C-2706.1-4959.7-2706.1-4959.7-2706.1-4959.7c1.8,0,3.7,0,5.5,0c0.4,0,0.8-0.2,0.8-0.6c0-0.2,0.1-0.4,0.1-0.6c0-3.2,0-6.4,0-9.5
			c0-0.6-0.1-1.3-0.2-1.9c-0.4-2.2-1.4-4-2.9-5.6c-1-1-2.1-1.8-3.4-2.3c-1.1-0.5-2.3-0.8-3.5-0.8c-2.4,0-4.8,0-7.2,0
			c-1.2,0-2.5,0-3.7,0c-0.4,0-0.8,0.2-0.8,0.6c0,0.1,0,0.3,0,0.4c0,3.2,0,6.3,0,9.5c0,0.8,0.1,1.6,0.3,2.4c0.8,3.6,3,6.1,6.4,7.6
			c1,0.5,2.1,0.7,3.3,0.8C-2709.8-4959.7-2707.9-4959.7-2706.1-4959.7z"/>
	</g>
</g>
<g>
	<g>
		<g>
			<polygon class="st13" points="-856.2,-5760.3 -950.8,-5737 -1023.8,-5672.4 -1058.3,-5581.3 -1046.6,-5484.6 -991.2,-5404.4 
				-905,-5359.1 -807.5,-5359.1 -721.3,-5404.4 -665.9,-5484.6 -654.2,-5581.3 -688.7,-5672.4 -761.6,-5737 			"/>
			<polygon class="st7" points="-867.7,-5770.5 -962.3,-5747.2 -1035.2,-5682.6 -1069.8,-5591.5 -1058,-5494.8 -1002.7,-5414.6 
				-916.4,-5369.3 -819,-5369.3 -732.7,-5414.6 -677.3,-5494.8 -665.6,-5591.5 -700.1,-5682.6 -773.1,-5747.2 			"/>
		</g>
		<g>
			<path class="st2" d="M-833.2-5480c-12.6,0-25.3,0.1-37.9,0c-17.9-0.1-34-5.5-48.4-16c-11.5-8.4-20.5-18.9-26.5-31.8
				c-3.4-7.2-5.7-14.8-7-22.7c-0.8-5.1-1.1-10.2-1.1-15.4c0-23.7,0-47.5,0-71.2c0-4.2,3-8.6,7.1-10c1.7-0.6,3.5-0.9,5.3-0.9
				c24.9-0.1,49.7,0,74.6,0c11.6,0,22.8,2,33.5,6.5c7.9,3.3,15,7.8,21.5,13.3c7.2,6.1,13.4,13.1,18.2,21.2
				c5.1,8.6,8.4,17.9,10.3,27.7c1,5.4,1.4,10.8,1.4,16.2c0,24,0,48.1,0,72.1c0,6-4.9,10.9-10.9,10.9
				C-806.6-5480-819.9-5480-833.2-5480z M-846.5-5512.5C-846.5-5512.5-846.5-5512.5-846.5-5512.5c8.9,0,17.8,0,26.6,0
				c2.1,0,3.7-1.2,4-3c0.2-1,0.3-2,0.3-3c0-15.4,0-30.7,0-46.1c0-3.1-0.4-6.2-0.9-9.3c-1.9-10.4-6.7-19.3-14.1-26.8
				c-4.7-4.8-10.3-8.5-16.6-11.1c-5.5-2.3-11.1-3.8-17-3.9c-11.6-0.2-23.2-0.1-34.8-0.1c-5.9,0-11.9,0-17.8,0c-2.2,0-3.6,1.1-4,3.1
				c-0.1,0.7-0.1,1.4-0.1,2.1c-0.1,15.3-0.2,30.5-0.1,45.8c0,3.9,0.4,7.8,1.2,11.6c4.1,17.4,14.4,29.7,30.8,36.8
				c5,2.2,10.3,3.6,15.8,3.7C-864.3-5512.3-855.4-5512.5-846.5-5512.5z"/>
		</g>
	</g>
	<g>
		<g>
			<polygon class="st13" points="-949.2,-5954.8 -1006.7,-5947 -1054,-5913.4 -1080.2,-5861.7 -1079.4,-5803.7 -1051.7,-5752.7 
				-1003.6,-5720.4 -945.9,-5714.2 -891.9,-5735.6 -854.1,-5779.5 -841,-5836 -855.6,-5892.1 -894.7,-5935 			"/>
			<polygon class="st7" points="-955.3,-5961.6 -1012.8,-5953.8 -1060.1,-5920.2 -1086.3,-5868.4 -1085.5,-5810.4 -1057.9,-5759.5 
				-1009.7,-5727.2 -952,-5721 -898.1,-5742.3 -860.2,-5786.2 -847.1,-5842.8 -861.8,-5898.9 -900.8,-5941.8 			"/>
		</g>
		<g>
			<path class="st2" d="M-953.4-5787.5c-7.5-0.8-15-1.6-22.4-2.4c-10.6-1.2-19.8-5.4-27.6-12.6c-6.3-5.7-10.9-12.5-13.7-20.5
				c-1.5-4.5-2.4-9.1-2.7-13.9c-0.2-3.1,0-6.1,0.3-9.2c1.5-14,3-28.1,4.5-42.1c0.3-2.5,2.3-4.9,4.8-5.5c1-0.2,2.1-0.3,3.2-0.2
				c14.7,1.5,29.4,3.1,44.1,4.7c6.9,0.7,13.4,2.6,19.4,6c4.4,2.5,8.4,5.6,11.9,9.3c3.9,4.1,7.1,8.6,9.4,13.7
				c2.5,5.4,3.9,11.1,4.3,17.1c0.3,3.2,0.1,6.5-0.2,9.7c-1.5,14.2-3.1,28.5-4.6,42.7c-0.4,3.6-3.6,6.1-7.2,5.7
				C-937.7-5785.8-945.5-5786.6-953.4-5787.5z M-959.2-5807.5C-959.2-5807.5-959.2-5807.5-959.2-5807.5c5.3,0.6,10.5,1.1,15.8,1.7
				c1.2,0.1,2.3-0.5,2.6-1.5c0.2-0.6,0.3-1.2,0.4-1.8c1-9.1,2-18.2,2.9-27.3c0.2-1.8,0.2-3.7,0.1-5.6c-0.4-6.3-2.8-11.9-6.7-16.8
				c-2.5-3.1-5.6-5.7-9.1-7.6c-3.1-1.7-6.3-3-9.8-3.4c-6.8-0.8-13.7-1.5-20.6-2.2c-3.5-0.4-7-0.8-10.5-1.1c-1.3-0.1-2.2,0.4-2.6,1.6
				c-0.1,0.4-0.1,0.8-0.2,1.2c-1,9-2.1,18.1-3,27.1c-0.2,2.3-0.3,4.7,0,6.9c1.3,10.6,6.6,18.5,15.9,23.8c2.8,1.6,5.9,2.8,9.1,3.2
				C-969.8-5808.5-964.5-5808.1-959.2-5807.5z"/>
		</g>
	</g>
	<g>
		<g>
			<polygon class="st13" points="-1033.3,-5454.3 -1069.9,-5449.3 -1100,-5427.9 -1116.7,-5395 -1116.1,-5358.1 -1098.5,-5325.7 
				-1067.9,-5305.1 -1031.2,-5301.2 -996.9,-5314.8 -972.8,-5342.7 -964.4,-5378.7 -973.8,-5414.4 -998.6,-5441.7 			"/>
			<polygon class="st7" points="-1037.2,-5458.6 -1073.8,-5453.6 -1103.9,-5432.2 -1120.6,-5399.3 -1120,-5362.4 -1102.4,-5330 
				-1071.8,-5309.4 -1035.1,-5305.5 -1000.8,-5319.1 -976.7,-5347 -968.3,-5383 -977.7,-5418.7 -1002.5,-5446 			"/>
		</g>
		<g>
			<path class="st2" d="M-1036-5347.8c-4.8-0.5-9.5-1-14.3-1.5c-6.7-0.8-12.6-3.4-17.6-8c-4-3.6-7-7.9-8.7-13.1
				c-1-2.9-1.5-5.8-1.7-8.8c-0.1-2,0-3.9,0.2-5.8c1-8.9,1.9-17.9,2.9-26.8c0.2-1.6,1.5-3.1,3.1-3.5c0.7-0.1,1.4-0.2,2-0.1
				c9.4,1,18.7,2,28.1,3c4.4,0.5,8.5,1.7,12.4,3.8c2.8,1.6,5.3,3.6,7.6,5.9c2.5,2.6,4.5,5.5,6,8.7c1.6,3.5,2.5,7.1,2.7,10.9
				c0.2,2.1,0.1,4.1-0.1,6.2c-1,9.1-1.9,18.1-2.9,27.2c-0.2,2.3-2.3,3.9-4.6,3.7C-1026-5346.7-1031-5347.2-1036-5347.8z
				 M-1039.7-5360.5C-1039.7-5360.5-1039.7-5360.5-1039.7-5360.5c3.3,0.4,6.7,0.7,10,1.1c0.8,0.1,1.4-0.3,1.6-1
				c0.1-0.4,0.2-0.7,0.2-1.1c0.6-5.8,1.3-11.6,1.8-17.3c0.1-1.2,0.1-2.4,0-3.5c-0.3-4-1.8-7.6-4.2-10.7c-1.6-2-3.5-3.6-5.8-4.9
				c-2-1.1-4-1.9-6.3-2.2c-4.4-0.5-8.7-1-13.1-1.4c-2.2-0.2-4.5-0.5-6.7-0.7c-0.8-0.1-1.4,0.3-1.6,1c-0.1,0.2-0.1,0.5-0.1,0.8
				c-0.6,5.7-1.3,11.5-1.9,17.3c-0.1,1.5-0.2,3,0,4.4c0.8,6.7,4.2,11.8,10.1,15.1c1.8,1,3.7,1.8,5.8,2
				C-1046.4-5361.2-1043-5360.9-1039.7-5360.5z"/>
		</g>
	</g>
	<g>
		<g>
			<polygon class="st13" points="-684.6,-5821.7 -727,-5816 -761.9,-5791.2 -781.2,-5753 -780.7,-5710.3 -760.2,-5672.7 
				-724.7,-5648.8 -682.2,-5644.3 -642.4,-5660 -614.5,-5692.4 -604.8,-5734.1 -615.6,-5775.5 -644.4,-5807.1 			"/>
			<polygon class="st7" points="-689.2,-5826.7 -731.5,-5820.9 -766.4,-5796.1 -785.8,-5758 -785.2,-5715.2 -764.8,-5677.6 
				-729.2,-5653.8 -686.7,-5649.2 -646.9,-5665 -619,-5697.4 -609.3,-5739 -620.1,-5780.4 -649,-5812.1 			"/>
		</g>
		<g>
			<path class="st2" d="M-687.7-5698.3c-5.5-0.6-11-1.2-16.6-1.8c-7.8-0.9-14.6-4-20.4-9.3c-4.6-4.2-8.1-9.2-10.1-15.1
				c-1.1-3.3-1.8-6.7-2-10.2c-0.1-2.3,0-4.5,0.2-6.8c1.1-10.4,2.2-20.7,3.3-31.1c0.2-1.8,1.7-3.6,3.6-4c0.8-0.2,1.6-0.2,2.4-0.2
				c10.9,1.1,21.7,2.3,32.5,3.5c5.1,0.5,9.9,1.9,14.3,4.4c3.3,1.8,6.2,4.1,8.8,6.8c2.9,3,5.2,6.3,6.9,10.1c1.8,4,2.8,8.2,3.2,12.6
				c0.2,2.4,0.1,4.8-0.2,7.2c-1.1,10.5-2.3,21-3.4,31.5c-0.3,2.6-2.6,4.5-5.3,4.2C-676.1-5697-681.9-5697.6-687.7-5698.3z
				 M-692-5713C-692-5713-692-5713-692-5713c3.9,0.4,7.7,0.8,11.6,1.2c0.9,0.1,1.7-0.3,1.9-1.1c0.1-0.4,0.2-0.9,0.3-1.3
				c0.7-6.7,1.5-13.4,2.1-20.1c0.1-1.4,0.1-2.7,0-4.1c-0.3-4.6-2-8.8-4.9-12.4c-1.8-2.3-4.1-4.2-6.7-5.6c-2.3-1.3-4.7-2.2-7.3-2.5
				c-5-0.6-10.1-1.1-15.2-1.7c-2.6-0.3-5.2-0.6-7.8-0.8c-0.9-0.1-1.6,0.3-1.9,1.2c-0.1,0.3-0.1,0.6-0.1,0.9
				c-0.7,6.7-1.5,13.3-2.2,20c-0.2,1.7-0.2,3.4,0,5.1c1,7.8,4.9,13.6,11.7,17.5c2.1,1.2,4.3,2,6.7,2.3
				C-699.8-5713.8-695.9-5713.5-692-5713z"/>
		</g>
	</g>
</g>
<g>
	<g>
		<polygon class="st13" points="-5479.6,-5088.2 -5574.2,-5064.9 -5647.1,-5000.3 -5681.6,-4909.2 -5669.9,-4812.5 -5614.6,-4732.3 
			-5528.3,-4687 -5430.8,-4687 -5344.6,-4732.3 -5289.2,-4812.5 -5277.5,-4909.2 -5312,-5000.3 -5385,-5064.9 		"/>
		<polygon class="st7" points="-5491,-5098.4 -5585.6,-5075.1 -5658.5,-5010.4 -5693.1,-4919.3 -5681.3,-4822.6 -5626,-4742.4 
			-5539.7,-4697.2 -5442.3,-4697.2 -5356,-4742.4 -5300.7,-4822.6 -5288.9,-4919.3 -5323.5,-5010.4 -5396.4,-5075.1 		"/>
	</g>
	<g>
		<path class="st2" d="M-5456.6-4807.9c-12.6,0-25.3,0.1-37.9,0c-17.9-0.1-34-5.5-48.4-16c-11.5-8.4-20.5-18.9-26.5-31.8
			c-3.4-7.2-5.7-14.8-7-22.7c-0.8-5.1-1.1-10.2-1.1-15.4c0-23.7,0-47.5,0-71.2c0-4.2,3-8.6,7.1-10c1.7-0.6,3.5-0.9,5.3-0.9
			c24.9-0.1,49.7,0,74.6,0c11.6,0,22.8,2,33.5,6.5c7.9,3.3,15,7.8,21.5,13.3c7.2,6.1,13.4,13.1,18.2,21.2
			c5.1,8.6,8.4,17.9,10.3,27.7c1,5.4,1.4,10.8,1.4,16.2c0,24,0,48.1,0,72.1c0,6-4.9,10.9-10.9,10.9
			C-5430-4807.9-5443.3-4807.9-5456.6-4807.9z M-5469.8-4840.3C-5469.8-4840.3-5469.8-4840.3-5469.8-4840.3c8.9,0,17.8,0,26.6,0
			c2.1,0,3.7-1.2,4-3c0.2-1,0.3-2,0.3-3c0-15.4,0-30.7,0-46.1c0-3.1-0.4-6.2-0.9-9.3c-1.9-10.4-6.7-19.3-14.1-26.8
			c-4.7-4.8-10.3-8.5-16.6-11.1c-5.5-2.3-11.1-3.8-17-3.9c-11.6-0.2-23.2-0.1-34.8-0.1c-5.9,0-11.9,0-17.8,0c-2.2,0-3.6,1.1-4,3.1
			c-0.1,0.7-0.1,1.4-0.1,2.1c-0.1,15.3-0.2,30.5-0.1,45.8c0,3.9,0.4,7.8,1.2,11.6c4.1,17.4,14.4,29.7,30.8,36.8
			c5,2.2,10.3,3.6,15.8,3.7C-5487.7-4840.2-5478.7-4840.3-5469.8-4840.3z"/>
	</g>
</g>
<g>
	<g>
		<polygon class="st13" points="-5664.2,-5337.7 -5720.5,-5323.8 -5764,-5285.4 -5784.5,-5231.2 -5777.5,-5173.6 -5744.6,-5125.8 
			-5693.2,-5098.9 -5635.2,-5098.9 -5583.9,-5125.8 -5550.9,-5173.6 -5543.9,-5231.2 -5564.5,-5285.4 -5607.9,-5323.8 		"/>
		<polygon class="st7" points="-5671,-5343.8 -5727.3,-5329.9 -5770.8,-5291.4 -5791.3,-5237.2 -5784.3,-5179.6 -5751.4,-5131.9 
			-5700,-5104.9 -5642,-5104.9 -5590.7,-5131.9 -5557.7,-5179.6 -5550.7,-5237.2 -5571.3,-5291.4 -5614.7,-5329.9 		"/>
	</g>
	<g>
		<path class="st2" d="M-5650.5-5170.9c-7.5,0-15,0-22.6,0c-10.6-0.1-20.2-3.3-28.8-9.5c-6.8-5-12.2-11.2-15.8-18.9
			c-2-4.3-3.4-8.8-4.1-13.5c-0.5-3-0.7-6.1-0.7-9.1c0-14.1,0-28.3,0-42.4c0-2.5,1.8-5.1,4.2-5.9c1-0.3,2.1-0.6,3.1-0.6
			c14.8,0,29.6,0,44.4,0c6.9,0,13.6,1.2,19.9,3.9c4.7,2,8.9,4.7,12.8,7.9c4.3,3.6,8,7.8,10.8,12.6c3,5.1,5,10.7,6.1,16.5
			c0.6,3.2,0.8,6.4,0.8,9.7c0,14.3,0,28.6,0,42.9c0,3.6-2.9,6.5-6.5,6.5C-5634.7-5170.9-5642.6-5170.9-5650.5-5170.9z
			 M-5658.4-5190.2C-5658.4-5190.2-5658.4-5190.2-5658.4-5190.2c5.3,0,10.6,0,15.9,0c1.2,0,2.2-0.7,2.4-1.8c0.1-0.6,0.2-1.2,0.2-1.8
			c0-9.1,0-18.3,0-27.4c0-1.8-0.2-3.7-0.5-5.5c-1.1-6.2-4-11.5-8.4-16c-2.8-2.9-6.1-5.1-9.9-6.6c-3.2-1.4-6.6-2.3-10.1-2.3
			c-6.9-0.1-13.8,0-20.7,0c-3.5,0-7.1,0-10.6,0c-1.3,0-2.2,0.7-2.4,1.9c-0.1,0.4-0.1,0.8-0.1,1.2c0,9.1-0.1,18.2-0.1,27.3
			c0,2.3,0.2,4.7,0.7,6.9c2.4,10.4,8.6,17.7,18.3,21.9c3,1.3,6.1,2.1,9.4,2.2C-5669-5190.1-5663.7-5190.2-5658.4-5190.2z"/>
	</g>
</g>
<image style="overflow:visible;" width="626" height="544" xlink:href="C9FCA9F.jpg"  transform="matrix(1 0 0 1 -1774.0604 -6554.9575)">
</image>
<g>
	<g>
		<g>
			<path class="st2" d="M-2829.8-6251.6h-6c-4.1,0-7.4-3.3-7.4-7.4v-239.4c0-4.1,3.3-7.4,7.4-7.4h6c4.1,0,7.4,3.3,7.4,7.4v239.4
				C-2822.4-6254.9-2825.7-6251.6-2829.8-6251.6z"/>
			<g>
				<path class="st2" d="M-2855.6-6479.8c-8.3,0-16.5,0-24.8,0c-11.7-0.1-22.2-3.6-31.6-10.5c-7.5-5.5-13.4-12.3-17.3-20.8
					c-2.2-4.7-3.7-9.7-4.5-14.8c-0.5-3.3-0.7-6.7-0.7-10c0-15.5,0-31,0-46.5c0-2.7,2-5.6,4.6-6.5c1.1-0.4,2.3-0.6,3.5-0.6
					c16.2,0,32.5,0,48.7,0c7.6,0,14.9,1.3,21.9,4.3c5.1,2.2,9.8,5.1,14.1,8.7c4.7,4,8.7,8.5,11.9,13.9c3.3,5.6,5.5,11.7,6.7,18.1
					c0.7,3.5,0.9,7.1,0.9,10.6c0,15.7,0,31.4,0,47.1c0,3.9-3.2,7.1-7.1,7.1C-2838.2-6479.8-2846.9-6479.8-2855.6-6479.8z
					 M-2864.3-6501C-2864.3-6501-2864.3-6501-2864.3-6501c5.8,0,11.6,0,17.4,0c1.4,0,2.4-0.8,2.6-1.9c0.1-0.6,0.2-1.3,0.2-2
					c0-10,0-20.1,0-30.1c0-2-0.2-4.1-0.6-6.1c-1.2-6.8-4.4-12.6-9.2-17.5c-3.1-3.1-6.7-5.5-10.8-7.3c-3.6-1.5-7.3-2.5-11.1-2.5
					c-7.6-0.1-15.1,0-22.7,0c-3.9,0-7.7,0-11.6,0c-1.4,0-2.4,0.7-2.6,2c-0.1,0.4-0.1,0.9-0.1,1.4c0,10-0.1,20-0.1,29.9
					c0,2.5,0.2,5.1,0.8,7.6c2.6,11.4,9.4,19.4,20.1,24.1c3.3,1.4,6.7,2.3,10.3,2.4C-2875.9-6500.9-2870.1-6501-2864.3-6501z"/>
			</g>
			<g>
				<path class="st2" d="M-2809.6-6380.9c8.3,0,16.5,0,24.8,0c11.7-0.1,22.2-3.6,31.6-10.5c7.5-5.5,13.4-12.3,17.3-20.8
					c2.2-4.7,3.7-9.7,4.5-14.8c0.5-3.3,0.7-6.7,0.7-10c0-15.5,0-31,0-46.5c0-2.7-2-5.6-4.6-6.5c-1.1-0.4-2.3-0.6-3.5-0.6
					c-16.2,0-32.5,0-48.7,0c-7.6,0-14.9,1.3-21.9,4.3c-5.1,2.2-9.8,5.1-14.1,8.7c-4.7,4-8.7,8.5-11.9,13.9
					c-3.3,5.6-5.5,11.7-6.7,18.1c-0.7,3.5-0.9,7.1-0.9,10.6c0,15.7,0,31.4,0,47.1c0,3.9,3.2,7.1,7.1,7.1
					C-2827-6380.9-2818.3-6380.9-2809.6-6380.9z M-2801-6402.1C-2801-6402.1-2801-6402.1-2801-6402.1c-5.8,0-11.6,0-17.4,0
					c-1.4,0-2.4-0.8-2.6-1.9c-0.1-0.6-0.2-1.3-0.2-2c0-10,0-20.1,0-30.1c0-2,0.2-4.1,0.6-6.1c1.2-6.8,4.4-12.6,9.2-17.5
					c3.1-3.1,6.7-5.5,10.8-7.3c3.6-1.5,7.3-2.5,11.1-2.5c7.6-0.1,15.1,0,22.7,0c3.9,0,7.7,0,11.6,0c1.4,0,2.4,0.7,2.6,2
					c0.1,0.4,0.1,0.9,0.1,1.4c0,10,0.1,20,0.1,29.9c0,2.5-0.2,5.1-0.8,7.6c-2.6,11.4-9.4,19.4-20.1,24.1c-3.3,1.4-6.7,2.3-10.3,2.4
					C-2789.3-6402-2795.2-6402.1-2801-6402.1z"/>
			</g>
			<g>
				<path class="st2" d="M-2855.7-6302.3c-8.3,0-16.5,0-24.8,0c-11.7-0.1-22.2-3.6-31.6-10.5c-7.5-5.5-13.4-12.3-17.3-20.8
					c-2.2-4.7-3.7-9.7-4.5-14.8c-0.5-3.3-0.7-6.7-0.7-10c0-15.5,0-31,0-46.5c0-2.7,2-5.6,4.6-6.5c1.1-0.4,2.3-0.6,3.5-0.6
					c16.2,0,32.5,0,48.7,0c7.6,0,14.9,1.3,21.9,4.3c5.1,2.2,9.8,5.1,14.1,8.7c4.7,4,8.7,8.5,11.9,13.9c3.3,5.6,5.5,11.7,6.7,18.1
					c0.7,3.5,0.9,7.1,0.9,10.6c0,15.7,0,31.4,0,47.1c0,3.9-3.2,7.1-7.1,7.1C-2838.4-6302.3-2847-6302.3-2855.7-6302.3z
					 M-2864.4-6323.5C-2864.4-6323.5-2864.4-6323.5-2864.4-6323.5c5.8,0,11.6,0,17.4,0c1.4,0,2.4-0.8,2.6-1.9c0.1-0.6,0.2-1.3,0.2-2
					c0-10,0-20.1,0-30.1c0-2-0.2-4.1-0.6-6.1c-1.2-6.8-4.4-12.6-9.2-17.5c-3.1-3.1-6.7-5.5-10.8-7.3c-3.6-1.5-7.3-2.5-11.1-2.5
					c-7.6-0.1-15.1,0-22.7,0c-3.9,0-7.7,0-11.6,0c-1.4,0-2.4,0.7-2.6,2c-0.1,0.4-0.1,0.9-0.1,1.4c0,10-0.1,20-0.1,29.9
					c0,2.5,0.2,5.1,0.8,7.6c2.6,11.4,9.4,19.4,20.1,24.1c3.3,1.4,6.7,2.3,10.3,2.4C-2876-6323.4-2870.2-6323.5-2864.4-6323.5z"/>
			</g>
		</g>
		<ellipse class="st14" cx="-2838.7" cy="-6181.3" rx="90.4" ry="83.7"/>
		<path class="st15" d="M-2752.3-6003.6h-167.9c-13,0-23.6-10.5-23.6-23.6v-122.7c0-13,10.5-23.6,23.6-23.6h167.9
			c13,0,23.6,10.5,23.6,23.6v122.7C-2728.7-6014.1-2739.3-6003.6-2752.3-6003.6z"/>
		<path class="st16" d="M-2723-6124.5h-232.7c-13,0-23.6-10.5-23.6-23.6v-44.5c0-13,10.5-23.6,23.6-23.6h232.7
			c13,0,23.6,10.5,23.6,23.6v44.5C-2699.4-6135.1-2710-6124.5-2723-6124.5z"/>
	</g>
	<g>
		<path class="st17" d="M-2871.7-6661.1v35.8c0,5.2-4.2,9.4-9.4,9.4h-3.1c-5.2,0-9.4-4.2-9.4-9.4v-35.8c0-5.2,4.2-9.4,9.4-9.4h3.1
			C-2875.9-6670.5-2871.7-6666.3-2871.7-6661.1z"/>
		<path class="st17" d="M-2814.4-6642.2l-26.7,23.9c-3.9,3.5-9.8,3.1-13.3-0.7l-2.1-2.3c-3.5-3.9-3.1-9.8,0.7-13.3l26.7-23.9
			c3.9-3.5,9.8-3.1,13.3,0.7l2.1,2.3C-2810.2-6651.6-2810.5-6645.7-2814.4-6642.2z"/>
		<path class="st17" d="M-2951-6642.2l26.7,23.9c3.9,3.5,9.8,3.1,13.3-0.7l2.1-2.3c3.5-3.9,3.1-9.8-0.7-13.3l-26.7-23.9
			c-3.9-3.5-9.8-3.1-13.3,0.7l-2.1,2.3C-2955.2-6651.6-2954.9-6645.7-2951-6642.2z"/>
	</g>
</g>
<g>
	<text transform="matrix(1 0 0 1 -3996.5806 -6192.3081)"><tspan x="0" y="0" class="st8" style="font-family:'Fraunces72ptSoft-Black'; font-size:50px;">Simple tools, powerful results. </tspan><tspan x="0" y="60" class="st8" style="font-family:'Fraunces72ptSoft-Black'; font-size:50px;">Let your money work while you </tspan><tspan x="0" y="120" class="st8" style="font-family:'Fraunces72ptSoft-Black'; font-size:50px;">focus on what matters.</tspan></text>
</g>
<g>
	<g>
		<g>
			<g>
				<path class="st18" d="M-3755.4-3435.3c5,4.9,9.5,10.2,13,16.2c5.3,9,8.8,18.6,10.6,28.9c0.7,4.3,1.3,8.6,1.3,12.9
					c0,0.8,0.4,1.1,0.9,1.4c9.8,7.3,17.8,16.1,23.6,27c4,7.6,6.4,15.7,6.6,24.3c0.4,13.1-4.8,23.6-14.8,31.9
					c-8.2,6.9-17.8,11-27.9,14.2c-10.7,3.4-21.8,5.3-32.9,6.6c-13.6,1.5-27.2,2-40.9,1.7c-15.5-0.4-31-1.7-46.3-4.6
					c-8.6-1.6-17.2-3.6-25.2-7.4c-19.5-9.3-31.7-24.4-35.2-46c-2-12.3-0.3-24.3,3.4-36c7.2-22.6,19.4-42,38-56.9
					c15-12.1,32.1-20.1,50.6-25.2c4.7-1.3,9.5-2.3,14.3-3c2.1-0.3,4.2-0.8,6.3-1.3c2.2,0.6,4.4,0.9,6.7,0.8
					c5.7-0.2,11.3,0.5,16.9,1.8c8.2,1.9,15.7,5.4,23.1,9.2C-3760.8-3437.4-3758.3-3435.9-3755.4-3435.3z M-3815.5-3310.5
					c2,0,3.9-0.1,5.9-0.4c1.9-0.3,3.8-0.7,5.6-1.3c17.2-5.4,22.4-21.4,19-34.8c-1.1-4.3-3.9-7.6-6.9-10.8c-4.9-5.4-10.7-9.7-17-13.2
					c-0.6-0.3-1.2-0.5-0.9-1.5c2.2-8.3,4.6-16.5,7.3-24.6c0.3-0.9,0.6-0.8,1.3-0.5c2.7,1.3,5.1,3,7.5,4.8c2.5,1.9,3.3,4.3,3,7.3
					c-0.2,1.4-0.3,2.9,0,4.3c1.1,4,3.9,6.3,7.7,7.4c5.2,1.5,13.3-2,12.3-10.5c-0.8-6.6-3.9-12.2-8.6-16.7c-4.7-4.5-10.4-7.6-16.4-10
					c-1.2-0.5-1.3-0.9-0.8-2c1.6-3.5,3-7,4.6-10.5c0.3-0.8,0.2-1.1-0.5-1.5c-2.5-1.1-5-2.3-7.4-3.5c-0.8-0.4-1.2-0.3-1.6,0.6
					c-1.8,4-3.6,8.1-5.2,12.2c-0.4,1.1-0.9,1.3-2,1.1c-4.4-0.6-8.7-1-13.1-0.3c-10.2,1.5-17.5,7.2-22.6,16c-2.3,3.9-3,8-2.5,12.4
					c0.8,6.7,4.1,12.1,8.7,16.8c3.6,3.7,8.1,6.3,12.5,8.8c2.1,1.2,2.1,1.2,1.6,3.6c-1.9,8.9-3.5,17.9-4.8,26.9
					c-0.1,0.9-0.4,1-1.2,0.7c-2.6-1.1-4.9-2.6-7-4.4c-3.3-3-5.2-6.6-5-11.1c0.1-1.3-0.1-2.6-0.3-3.9c-0.7-4.1-4.1-7-7.9-6.7
					c-6.2,0.5-10.6,5.3-10.6,11.4c0,4.3,1.4,8.3,3.7,12c5.7,9.3,13.9,15.6,24.3,18.8c1.3,0.4,1.7,0.9,1.5,2.3
					c-0.4,3.6-0.7,7.3-1.1,10.9c-0.1,0.9,0.2,1.2,1.1,1.2c2.6,0.1,5.2,0.3,7.8,0.5c1.2,0.1,1.5-0.3,1.5-1.4c0.2-3.3,0.6-6.5,0.9-9.7
					c0.1-0.9,0.4-1.2,1.3-1C-3818.4-3310.6-3817-3310.6-3815.5-3310.5z"/>
				<path class="st18" d="M-3804.9-3460.7c-2.6-7-3.7-14.3-4.6-21.6c-0.6-5.3-0.8-10.7,0.3-16c1.1-5.4,3.2-10.2,8.1-13.3
					c4.8-3.1,9.4-3,14.1,0.2c2.8,2,5.3,4.3,7.8,6.7c0.7,0.7,1.1,0.6,1.8,0c5-4.3,10.1-8.4,15.9-11.5c5.6-3,11.4-4.8,17.8-4.6
					c8.8,0.2,16.2,5.4,18.9,13.1c1.6,4.7,1.1,9.3-0.2,14c-0.4,1.4-0.7,2.8-1,4.2c-0.3,1-0.1,2,0.4,2.9c1.3,2.4,3,4.5,5.4,5.9
					c0.7,0.5,1.5,1,2.2,1.4c4,2.4,4.5,7.5,2.3,11c-1,1.6-2.2,3-3.5,4.2c-7.7,6.7-16.1,12.4-25.8,16c-3.4,1.2-6.9,2.1-10.4,2.8
					c-0.5-1-0.9-2.1-1.4-3.1c-3.2-5.8-7.9-10-13.9-12.6c-8.3-3.5-16.8-5-25.8-3.1C-3799.6-3463.4-3802.3-3462.1-3804.9-3460.7z"/>
				<path class="st18" d="M-3804.9-3460.7c2.7-1.3,5.3-2.7,8.3-3.3c8.9-1.9,17.5-0.4,25.8,3.1c6.1,2.6,10.8,6.8,13.9,12.6
					c0.5,1,0.9,2,1.4,3.1c0.9,2.5,1.7,5,1.5,7.7c0,1-0.3,1.9-1.4,2.2c-2.9-0.6-5.4-2.1-8-3.4c-7.4-3.8-15-7.3-23.1-9.2
					c-5.6-1.3-11.2-2-16.9-1.8c-2.3,0.1-4.5-0.1-6.7-0.8c-1.5-2.4-1.4-3.7,0.5-6C-3808.3-3458.3-3806.5-3459.4-3804.9-3460.7z"/>
				<path class="st18" d="M-3815.5-3310.5c-1.5-0.1-3-0.1-4.4-0.3c-0.9-0.1-1.2,0.2-1.3,1c-0.3,3.2-0.6,6.5-0.9,9.7
					c-0.1,1.1-0.4,1.5-1.5,1.4c-2.6-0.3-5.2-0.4-7.8-0.5c-0.9,0-1.2-0.3-1.1-1.2c0.4-3.6,0.6-7.3,1.1-10.9c0.2-1.3-0.2-1.9-1.5-2.3
					c-10.5-3.2-18.6-9.4-24.3-18.8c-2.2-3.6-3.6-7.6-3.7-12c0-6.2,4.5-11,10.6-11.4c3.8-0.3,7.2,2.6,7.9,6.7
					c0.2,1.3,0.3,2.6,0.3,3.9c-0.3,4.6,1.6,8.2,5,11.1c2.1,1.9,4.5,3.3,7,4.4c0.8,0.4,1.1,0.2,1.2-0.7c1.3-9,3-18,4.8-26.9
					c0.5-2.4,0.5-2.4-1.6-3.6c-4.5-2.6-8.9-5.1-12.5-8.8c-4.6-4.8-7.9-10.1-8.7-16.8c-0.5-4.4,0.2-8.5,2.5-12.4
					c5.1-8.8,12.3-14.5,22.6-16c4.4-0.7,8.8-0.3,13.1,0.3c1.1,0.2,1.6-0.1,2-1.1c1.6-4.1,3.4-8.2,5.2-12.2c0.4-0.8,0.7-1,1.6-0.6
					c2.5,1.2,4.9,2.4,7.4,3.5c0.8,0.4,0.9,0.7,0.5,1.5c-1.6,3.5-3,7-4.6,10.5c-0.5,1-0.3,1.5,0.8,2c6,2.4,11.7,5.5,16.4,10
					c4.8,4.5,7.8,10.1,8.6,16.7c1,8.5-7,12.1-12.3,10.5c-3.8-1.1-6.6-3.4-7.7-7.4c-0.4-1.4-0.2-2.9,0-4.3c0.3-3-0.4-5.4-3-7.3
					c-2.4-1.8-4.8-3.5-7.5-4.8c-0.7-0.3-1-0.3-1.3,0.5c-2.7,8.1-5.1,16.3-7.3,24.6c-0.3,1,0.3,1.2,0.9,1.5c6.3,3.5,12.1,7.9,17,13.2
					c2.9,3.2,5.8,6.5,6.9,10.8c3.4,13.4-1.8,29.4-19,34.8c-1.8,0.6-3.7,1-5.6,1.3C-3811.6-3310.6-3813.5-3310.5-3815.5-3310.5z
					 M-3816.1-3327.2c1.4,0,3.1-0.2,4.7-0.5c3.9-0.8,6.5-3.1,7.8-6.9c1.2-3.5,0.3-6.8-1.4-10c-1.9-3.5-4.9-5.9-8.1-8.2
					c-1.2-0.8-1.2-0.8-1.5,0.6c-1.5,7.4-2.9,14.9-4,22.4C-3818.9-3327.1-3819-3327.1-3816.1-3327.2z M-3828.7-3389.9
					c0.5,5.8,3.6,10,8.5,12.9c0.9,0.5,0.8-0.3,0.9-0.7c0.7-2.4,1.3-4.9,2-7.3c1.4-4.8,2.9-9.7,4.4-14.4c0.1-0.4,0.7-1.1-0.4-1.2
					c-4.6-0.2-8.8,0.7-12.4,3.8C-3827.7-3395-3828.8-3392.8-3828.7-3389.9z"/>
				<path class="st18" d="M-3816.1-3327.2c-2.9,0.1-2.8,0.1-2.4-2.5c1.1-7.5,2.5-15,4-22.4c0.3-1.4,0.3-1.4,1.5-0.6
					c3.2,2.2,6.2,4.7,8.1,8.2c1.7,3.2,2.6,6.5,1.4,10c-1.3,3.8-3.9,6.1-7.8,6.9C-3813-3327.5-3814.6-3327.3-3816.1-3327.2z"/>
				<path class="st18" d="M-3828.7-3389.9c-0.1-2.9,1.1-5.1,3.1-6.9c3.6-3.1,7.8-4,12.4-3.8c1.1,0.1,0.6,0.7,0.4,1.2
					c-1.6,4.8-3.1,9.6-4.4,14.4c-0.7,2.4-1.3,4.9-2,7.3c-0.1,0.4-0.1,1.2-0.9,0.7C-3825.2-3379.9-3828.2-3384.1-3828.7-3389.9z"/>
			</g>
		</g>
		<g>
			
				<text transform="matrix(1 0 0 1 -3663.6406 -3338.9387)" class="st19" style="font-family:'Fraunces72ptSoft-Black'; font-size:164.7648px;">+</text>
		</g>
		<g>
			<g>
				<path class="st18" d="M-3385.6-3301.6c-14.1,0-28.2,0.1-42.4,0c-19.9-0.1-38-6.1-54.1-17.9c-12.8-9.4-22.9-21.1-29.7-35.5
					c-3.8-8.1-6.3-16.5-7.8-25.3c-0.9-5.7-1.3-11.4-1.3-17.1c0-26.5,0-53,0-79.5c0-4.7,3.4-9.6,7.9-11.2c1.9-0.6,3.9-1.1,5.9-1.1
					c27.8-0.1,55.5,0,83.3,0c12.9,0,25.5,2.2,37.4,7.3c8.8,3.7,16.7,8.8,24,14.9c8.1,6.8,15,14.6,20.3,23.7c5.7,9.6,9.4,20,11.5,31
					c1.1,6,1.5,12.1,1.5,18.1c0,26.9,0,53.7,0,80.6c0,6.7-5.4,12.2-12.2,12.2C-3355.8-3301.5-3370.7-3301.6-3385.6-3301.6z
					 M-3400.4-3337.8C-3400.4-3337.8-3400.4-3337.8-3400.4-3337.8c9.9,0,19.8,0,29.7,0c2.3,0,4.1-1.3,4.5-3.3
					c0.2-1.1,0.3-2.2,0.3-3.3c0-17.1,0.1-34.3-0.1-51.4c0-3.5-0.4-7-1-10.4c-2.1-11.6-7.5-21.6-15.8-30c-5.3-5.4-11.5-9.5-18.5-12.4
					c-6.1-2.5-12.4-4.3-19-4.4c-12.9-0.2-25.9-0.1-38.8-0.1c-6.6,0-13.3,0-19.9,0c-2.4,0-4.1,1.3-4.5,3.5c-0.1,0.8-0.1,1.6-0.1,2.3
					c-0.1,17.1-0.2,34.1-0.2,51.2c0,4.3,0.4,8.8,1.4,13c4.5,19.4,16,33.2,34.4,41.2c5.6,2.4,11.5,4,17.6,4.1
					C-3420.3-3337.6-3410.3-3337.8-3400.4-3337.8z"/>
			</g>
		</g>
	</g>
	<g>
		<g>
			<g>
				<path class="st18" d="M-2799.3-3578c5,4.9,9.5,10.2,13,16.2c5.3,9,8.8,18.6,10.6,28.9c0.7,4.3,1.3,8.6,1.3,12.9
					c0,0.8,0.4,1.1,0.9,1.4c9.8,7.3,17.8,16.1,23.6,27c4,7.6,6.4,15.7,6.6,24.3c0.4,13.1-4.8,23.6-14.8,31.9
					c-8.2,6.9-17.8,11-27.9,14.2c-10.7,3.4-21.8,5.3-32.9,6.6c-13.6,1.5-27.2,2-40.9,1.7c-15.5-0.4-31-1.7-46.3-4.6
					c-8.6-1.6-17.2-3.6-25.2-7.4c-19.5-9.3-31.7-24.4-35.2-46c-2-12.3-0.3-24.3,3.4-36c7.2-22.6,19.4-42,38-56.9
					c15-12.1,32.1-20.1,50.6-25.2c4.7-1.3,9.5-2.3,14.3-3c2.1-0.3,4.2-0.8,6.3-1.3c2.2,0.6,4.4,0.9,6.7,0.8
					c5.7-0.2,11.3,0.5,16.9,1.8c8.2,1.9,15.7,5.4,23.1,9.2C-2804.7-3580.1-2802.2-3578.6-2799.3-3578z M-2859.4-3453.2
					c2,0,3.9-0.1,5.9-0.4c1.9-0.3,3.8-0.7,5.6-1.3c17.2-5.4,22.4-21.4,19-34.8c-1.1-4.3-3.9-7.6-6.9-10.8c-4.9-5.4-10.7-9.7-17-13.2
					c-0.6-0.3-1.2-0.5-0.9-1.5c2.2-8.3,4.6-16.5,7.3-24.6c0.3-0.9,0.6-0.8,1.3-0.5c2.7,1.3,5.1,3,7.5,4.8c2.5,1.9,3.3,4.3,3,7.3
					c-0.2,1.4-0.3,2.9,0,4.3c1.1,4,3.9,6.3,7.7,7.4c5.2,1.5,13.3-2,12.3-10.5c-0.8-6.6-3.9-12.2-8.6-16.7c-4.7-4.5-10.4-7.6-16.4-10
					c-1.2-0.5-1.3-0.9-0.8-2c1.6-3.5,3-7,4.6-10.5c0.3-0.8,0.2-1.1-0.5-1.5c-2.5-1.1-5-2.3-7.4-3.5c-0.8-0.4-1.2-0.3-1.6,0.6
					c-1.8,4-3.6,8.1-5.2,12.2c-0.4,1.1-0.9,1.3-2,1.1c-4.4-0.6-8.7-1-13.1-0.3c-10.2,1.5-17.5,7.2-22.6,16c-2.3,3.9-3,8-2.5,12.4
					c0.8,6.7,4.1,12.1,8.7,16.8c3.6,3.7,8.1,6.3,12.5,8.8c2.1,1.2,2.1,1.2,1.6,3.6c-1.9,8.9-3.5,17.9-4.8,26.9
					c-0.1,0.9-0.4,1-1.2,0.7c-2.6-1.1-4.9-2.6-7-4.4c-3.3-3-5.2-6.6-5-11.1c0.1-1.3-0.1-2.6-0.3-3.9c-0.7-4.1-4.1-7-7.9-6.7
					c-6.2,0.5-10.6,5.3-10.6,11.4c0,4.3,1.4,8.3,3.7,12c5.7,9.3,13.9,15.6,24.3,18.8c1.3,0.4,1.7,0.9,1.5,2.3
					c-0.4,3.6-0.7,7.3-1.1,10.9c-0.1,0.9,0.2,1.2,1.1,1.2c2.6,0.1,5.2,0.3,7.8,0.5c1.2,0.1,1.5-0.3,1.5-1.4c0.2-3.3,0.6-6.5,0.9-9.7
					c0.1-0.9,0.4-1.2,1.3-1C-2862.4-3453.3-2860.9-3453.3-2859.4-3453.2z"/>
				<path class="st18" d="M-2848.9-3603.4c-2.6-7-3.7-14.3-4.6-21.6c-0.6-5.3-0.8-10.7,0.3-16c1.1-5.4,3.2-10.2,8.1-13.3
					c4.8-3.1,9.4-3,14.1,0.2c2.8,2,5.3,4.3,7.8,6.7c0.7,0.7,1.1,0.6,1.8,0c5-4.3,10.1-8.4,15.9-11.5c5.6-3,11.4-4.8,17.8-4.6
					c8.8,0.2,16.2,5.4,18.9,13.1c1.6,4.7,1.1,9.3-0.2,14c-0.4,1.4-0.7,2.8-1,4.2c-0.3,1-0.1,2,0.4,2.9c1.3,2.4,3,4.5,5.3,5.9
					c0.7,0.5,1.5,1,2.2,1.4c4,2.4,4.5,7.5,2.3,11c-1,1.6-2.2,3-3.5,4.2c-7.7,6.7-16.1,12.4-25.8,16c-3.4,1.2-6.9,2.1-10.4,2.8
					c-0.5-1-0.9-2.1-1.4-3.1c-3.2-5.8-7.9-10-13.9-12.6c-8.3-3.5-16.8-5-25.8-3.1C-2843.5-3606.1-2846.2-3604.8-2848.9-3603.4z"/>
				<path class="st18" d="M-2848.9-3603.4c2.7-1.3,5.3-2.7,8.3-3.3c8.9-1.9,17.5-0.4,25.8,3.1c6.1,2.6,10.8,6.8,13.9,12.6
					c0.5,1,0.9,2,1.4,3.1c0.9,2.5,1.7,5,1.5,7.7c0,1-0.3,1.9-1.4,2.2c-2.9-0.6-5.4-2.1-8-3.4c-7.4-3.8-15-7.3-23.1-9.2
					c-5.6-1.3-11.2-2-16.9-1.8c-2.3,0.1-4.5-0.1-6.7-0.8c-1.5-2.4-1.4-3.7,0.5-6C-2852.2-3601-2850.4-3602.1-2848.9-3603.4z"/>
				<path class="st18" d="M-2859.4-3453.2c-1.5-0.1-3-0.1-4.4-0.3c-0.9-0.1-1.2,0.2-1.3,1c-0.3,3.2-0.6,6.5-0.9,9.7
					c-0.1,1.1-0.4,1.5-1.5,1.4c-2.6-0.3-5.2-0.4-7.8-0.5c-0.9,0-1.2-0.3-1.1-1.2c0.4-3.6,0.6-7.3,1.1-10.9c0.2-1.3-0.2-1.9-1.5-2.3
					c-10.5-3.2-18.6-9.4-24.3-18.8c-2.2-3.6-3.6-7.6-3.7-12c0-6.2,4.5-11,10.6-11.4c3.8-0.3,7.2,2.6,7.9,6.7
					c0.2,1.3,0.3,2.6,0.3,3.9c-0.3,4.6,1.6,8.2,5,11.1c2.1,1.9,4.5,3.3,7,4.4c0.8,0.4,1.1,0.2,1.2-0.7c1.3-9,3-18,4.8-26.9
					c0.5-2.4,0.5-2.4-1.6-3.6c-4.5-2.6-8.9-5.1-12.5-8.8c-4.6-4.7-7.9-10.1-8.7-16.8c-0.5-4.4,0.2-8.5,2.5-12.4
					c5.1-8.8,12.3-14.5,22.6-16c4.4-0.7,8.8-0.3,13.1,0.3c1.1,0.2,1.6-0.1,2-1.1c1.6-4.1,3.4-8.2,5.2-12.2c0.4-0.8,0.7-1,1.6-0.6
					c2.5,1.2,4.9,2.4,7.4,3.5c0.8,0.4,0.9,0.7,0.5,1.5c-1.6,3.5-3,7-4.6,10.5c-0.5,1-0.4,1.5,0.8,2c6,2.4,11.7,5.5,16.4,10
					c4.8,4.5,7.8,10.1,8.6,16.7c1,8.5-7,12.1-12.3,10.5c-3.8-1.1-6.6-3.4-7.7-7.4c-0.4-1.4-0.2-2.9,0-4.3c0.3-3-0.4-5.4-3-7.3
					c-2.4-1.8-4.8-3.5-7.5-4.8c-0.7-0.3-1-0.3-1.3,0.5c-2.7,8.1-5.1,16.3-7.3,24.6c-0.3,1,0.3,1.2,0.9,1.5c6.3,3.5,12.1,7.9,17,13.2
					c2.9,3.2,5.8,6.5,6.9,10.8c3.4,13.4-1.8,29.4-19,34.8c-1.8,0.6-3.7,1-5.6,1.3C-2855.5-3453.3-2857.4-3453.2-2859.4-3453.2z
					 M-2860-3470c1.4,0,3.1-0.2,4.7-0.5c3.9-0.8,6.5-3.1,7.8-6.9c1.2-3.5,0.3-6.8-1.4-10c-1.9-3.5-4.9-5.9-8.1-8.2
					c-1.2-0.8-1.2-0.8-1.5,0.6c-1.5,7.4-2.9,14.9-4,22.4C-2862.9-3469.8-2862.9-3469.8-2860-3470z M-2872.7-3532.6
					c0.5,5.8,3.6,10,8.5,12.9c0.9,0.5,0.8-0.3,0.9-0.7c0.7-2.4,1.3-4.9,2-7.3c1.4-4.8,2.9-9.7,4.4-14.4c0.1-0.4,0.7-1.1-0.4-1.2
					c-4.6-0.2-8.8,0.7-12.4,3.8C-2871.6-3537.7-2872.8-3535.5-2872.7-3532.6z"/>
				<path class="st18" d="M-2860-3470c-2.9,0.1-2.8,0.1-2.4-2.5c1.1-7.5,2.5-15,4-22.4c0.3-1.4,0.3-1.4,1.5-0.6
					c3.2,2.2,6.2,4.7,8.1,8.2c1.7,3.2,2.6,6.5,1.4,10c-1.3,3.8-3.9,6.1-7.8,6.9C-2856.9-3470.2-2858.6-3470-2860-3470z"/>
				<path class="st18" d="M-2872.7-3532.6c-0.1-2.9,1.1-5.1,3.1-6.9c3.6-3.1,7.8-4,12.4-3.8c1.1,0.1,0.6,0.7,0.4,1.2
					c-1.6,4.8-3.1,9.6-4.4,14.4c-0.7,2.4-1.3,4.9-2,7.3c-0.1,0.4-0.1,1.2-0.9,0.7C-2869.1-3522.6-2872.1-3526.8-2872.7-3532.6z"/>
			</g>
		</g>
		<g>
			<g>
				<path class="st18" d="M-2985.7-3323.7c5,4.9,9.5,10.2,13,16.2c5.3,9,8.8,18.6,10.6,28.9c0.7,4.3,1.3,8.6,1.3,12.9
					c0,0.8,0.4,1.1,0.9,1.4c9.8,7.3,17.8,16.1,23.6,27c4,7.6,6.4,15.7,6.6,24.3c0.4,13.1-4.8,23.6-14.8,31.9
					c-8.2,6.9-17.8,11-27.9,14.2c-10.7,3.4-21.8,5.3-32.9,6.6c-13.6,1.5-27.2,2-40.9,1.7c-15.5-0.4-31-1.7-46.3-4.6
					c-8.6-1.6-17.2-3.6-25.2-7.4c-19.5-9.3-31.7-24.4-35.2-46c-2-12.3-0.3-24.3,3.4-36c7.2-22.6,19.4-42,38-56.9
					c15-12.1,32.1-20.1,50.6-25.2c4.7-1.3,9.5-2.3,14.3-3c2.1-0.3,4.2-0.8,6.3-1.3c2.2,0.6,4.4,0.9,6.7,0.8
					c5.7-0.2,11.3,0.5,16.9,1.8c8.2,1.9,15.7,5.4,23.1,9.2C-2991.1-3325.9-2988.6-3324.3-2985.7-3323.7z M-3045.8-3198.9
					c2,0,3.9-0.1,5.9-0.4c1.9-0.3,3.8-0.7,5.6-1.3c17.2-5.4,22.4-21.4,19-34.8c-1.1-4.3-3.9-7.6-6.9-10.8c-4.9-5.4-10.7-9.7-17-13.2
					c-0.6-0.3-1.2-0.5-0.9-1.5c2.2-8.3,4.6-16.5,7.3-24.6c0.3-0.9,0.6-0.8,1.3-0.5c2.7,1.3,5.1,3,7.5,4.8c2.5,1.9,3.3,4.3,3,7.3
					c-0.2,1.4-0.3,2.9,0,4.3c1.1,4,3.9,6.3,7.7,7.4c5.2,1.5,13.3-2,12.3-10.5c-0.8-6.6-3.9-12.2-8.6-16.7c-4.7-4.5-10.4-7.6-16.4-10
					c-1.2-0.5-1.3-0.9-0.8-2c1.6-3.5,3-7,4.6-10.5c0.3-0.8,0.2-1.1-0.5-1.5c-2.5-1.1-5-2.3-7.4-3.5c-0.8-0.4-1.2-0.3-1.6,0.6
					c-1.8,4-3.6,8.1-5.2,12.2c-0.4,1.1-0.9,1.3-2,1.1c-4.4-0.6-8.7-1-13.1-0.3c-10.2,1.5-17.5,7.2-22.6,16c-2.3,3.9-3,8-2.5,12.4
					c0.8,6.7,4.1,12.1,8.7,16.8c3.6,3.7,8.1,6.3,12.5,8.8c2.1,1.2,2.1,1.2,1.6,3.6c-1.9,8.9-3.5,17.9-4.8,26.9
					c-0.1,0.9-0.4,1-1.2,0.7c-2.6-1.1-4.9-2.6-7-4.4c-3.3-3-5.2-6.6-5-11.1c0.1-1.3-0.1-2.6-0.3-3.9c-0.7-4.1-4.1-7-7.9-6.7
					c-6.2,0.5-10.6,5.3-10.6,11.4c0,4.3,1.4,8.3,3.7,12c5.7,9.3,13.9,15.6,24.3,18.8c1.3,0.4,1.7,0.9,1.5,2.3
					c-0.4,3.6-0.7,7.3-1.1,10.9c-0.1,0.9,0.2,1.2,1.1,1.2c2.6,0.1,5.2,0.3,7.8,0.5c1.2,0.1,1.5-0.3,1.5-1.4c0.2-3.3,0.6-6.5,0.9-9.7
					c0.1-0.9,0.4-1.2,1.3-1C-3048.7-3199-3047.3-3199-3045.8-3198.9z"/>
				<path class="st18" d="M-3035.3-3349.2c-2.6-7-3.7-14.3-4.6-21.6c-0.6-5.3-0.8-10.7,0.3-16c1.1-5.4,3.2-10.2,8.1-13.3
					c4.8-3.1,9.4-3,14.1,0.2c2.8,2,5.3,4.3,7.8,6.7c0.7,0.7,1.1,0.6,1.8,0c5-4.3,10.1-8.4,15.9-11.5c5.6-3,11.4-4.8,17.8-4.6
					c8.8,0.2,16.2,5.4,18.9,13.1c1.6,4.7,1.1,9.3-0.2,14c-0.4,1.4-0.7,2.8-1,4.2c-0.3,1-0.1,2,0.4,2.9c1.3,2.4,3,4.5,5.4,5.9
					c0.7,0.5,1.5,1,2.2,1.4c4,2.4,4.5,7.5,2.3,11c-1,1.6-2.2,3-3.5,4.2c-7.7,6.7-16.1,12.4-25.8,16c-3.4,1.2-6.9,2.1-10.4,2.8
					c-0.5-1-0.9-2.1-1.4-3.1c-3.2-5.8-7.9-10-13.9-12.6c-8.3-3.5-16.8-5-25.8-3.1C-3029.9-3351.8-3032.6-3350.5-3035.3-3349.2z"/>
				<path class="st18" d="M-3035.3-3349.2c2.7-1.3,5.3-2.7,8.3-3.3c8.9-1.9,17.5-0.4,25.8,3.1c6.1,2.6,10.8,6.8,13.9,12.6
					c0.5,1,0.9,2,1.4,3.1c0.9,2.5,1.7,5,1.5,7.7c0,1-0.3,1.9-1.4,2.2c-2.9-0.6-5.4-2.1-8-3.4c-7.4-3.8-15-7.3-23.1-9.2
					c-5.6-1.3-11.2-2-16.9-1.8c-2.3,0.1-4.5-0.1-6.7-0.8c-1.5-2.4-1.4-3.7,0.5-6C-3038.6-3346.7-3036.8-3347.8-3035.3-3349.2z"/>
				<path class="st18" d="M-3045.8-3198.9c-1.5-0.1-3-0.1-4.4-0.3c-0.9-0.1-1.2,0.2-1.3,1c-0.3,3.2-0.6,6.5-0.9,9.7
					c-0.1,1.1-0.4,1.5-1.5,1.4c-2.6-0.3-5.2-0.4-7.8-0.5c-0.9,0-1.2-0.3-1.1-1.2c0.4-3.6,0.6-7.3,1.1-10.9c0.2-1.3-0.2-1.9-1.5-2.3
					c-10.5-3.2-18.6-9.4-24.3-18.8c-2.2-3.6-3.6-7.6-3.7-12c0-6.2,4.5-11,10.6-11.4c3.8-0.3,7.2,2.6,7.9,6.7
					c0.2,1.3,0.3,2.6,0.3,3.9c-0.3,4.6,1.6,8.2,5,11.1c2.1,1.9,4.5,3.3,7,4.4c0.8,0.4,1.1,0.2,1.2-0.7c1.3-9,3-18,4.8-26.9
					c0.5-2.4,0.5-2.4-1.6-3.6c-4.5-2.6-8.9-5.1-12.5-8.8c-4.6-4.8-7.9-10.1-8.7-16.8c-0.5-4.4,0.2-8.5,2.5-12.4
					c5.1-8.8,12.3-14.5,22.6-16c4.4-0.7,8.8-0.3,13.1,0.3c1.1,0.2,1.6-0.1,2-1.1c1.6-4.1,3.4-8.2,5.2-12.2c0.4-0.8,0.7-1,1.6-0.6
					c2.5,1.2,4.9,2.4,7.4,3.5c0.8,0.4,0.9,0.7,0.5,1.5c-1.6,3.5-3,7-4.6,10.5c-0.5,1-0.3,1.5,0.8,2c6,2.4,11.7,5.5,16.4,10
					c4.8,4.5,7.8,10.1,8.6,16.7c1,8.5-7,12.1-12.3,10.5c-3.8-1.1-6.6-3.4-7.7-7.4c-0.4-1.4-0.2-2.9,0-4.3c0.3-3-0.4-5.4-3-7.3
					c-2.4-1.8-4.8-3.5-7.5-4.8c-0.7-0.3-1-0.3-1.3,0.5c-2.7,8.1-5.1,16.3-7.3,24.6c-0.3,1,0.3,1.2,0.9,1.5c6.3,3.5,12.1,7.9,17,13.2
					c2.9,3.2,5.8,6.5,6.9,10.8c3.4,13.4-1.8,29.4-19,34.8c-1.8,0.6-3.7,1-5.6,1.3C-3041.9-3199-3043.8-3198.9-3045.8-3198.9z
					 M-3046.4-3215.7c1.4,0,3.1-0.2,4.7-0.5c3.9-0.8,6.5-3.1,7.8-6.9c1.2-3.5,0.3-6.8-1.4-10c-1.9-3.5-4.9-5.9-8.1-8.2
					c-1.2-0.8-1.2-0.8-1.5,0.6c-1.5,7.4-2.9,14.9-4,22.4C-3049.2-3215.5-3049.3-3215.6-3046.4-3215.7z M-3059-3278.3
					c0.5,5.8,3.6,10,8.5,12.9c0.9,0.5,0.8-0.3,0.9-0.7c0.7-2.4,1.3-4.9,2-7.3c1.4-4.8,2.9-9.7,4.4-14.4c0.1-0.4,0.7-1.1-0.4-1.2
					c-4.6-0.2-8.8,0.7-12.4,3.8C-3058-3283.4-3059.1-3281.2-3059-3278.3z"/>
				<path class="st18" d="M-3046.4-3215.7c-2.9,0.1-2.8,0.1-2.4-2.5c1.1-7.5,2.5-15,4-22.4c0.3-1.4,0.3-1.4,1.5-0.6
					c3.2,2.2,6.2,4.7,8.1,8.2c1.7,3.2,2.6,6.5,1.4,10c-1.3,3.8-3.9,6.1-7.8,6.9C-3043.3-3215.9-3044.9-3215.7-3046.4-3215.7z"/>
				<path class="st18" d="M-3059-3278.3c-0.1-2.9,1.1-5.1,3.1-6.9c3.6-3.1,7.8-4,12.4-3.8c1.1,0.1,0.6,0.7,0.4,1.2
					c-1.6,4.8-3.1,9.6-4.4,14.4c-0.7,2.4-1.3,4.9-2,7.3c-0.1,0.4-0.1,1.2-0.9,0.7C-3055.5-3268.4-3058.5-3272.5-3059-3278.3z"/>
			</g>
		</g>
		<g>
			<g>
				<path class="st18" d="M-2694.6-3316.6c5,4.9,9.5,10.2,13,16.2c5.3,9,8.8,18.6,10.6,28.9c0.7,4.3,1.3,8.6,1.3,12.9
					c0,0.8,0.4,1.1,0.9,1.4c9.8,7.3,17.8,16.1,23.6,27c4,7.6,6.4,15.7,6.6,24.3c0.4,13.1-4.8,23.6-14.8,31.9
					c-8.2,6.9-17.8,11-27.9,14.2c-10.7,3.4-21.8,5.3-32.9,6.6c-13.6,1.5-27.2,2-40.9,1.7c-15.5-0.4-31-1.7-46.3-4.6
					c-8.6-1.6-17.2-3.6-25.2-7.4c-19.5-9.3-31.7-24.4-35.2-46c-2-12.3-0.3-24.3,3.4-36c7.2-22.6,19.4-42,38-56.9
					c15-12.1,32.1-20.1,50.6-25.2c4.7-1.3,9.5-2.3,14.3-3c2.1-0.3,4.2-0.8,6.3-1.3c2.2,0.6,4.4,0.9,6.7,0.8
					c5.7-0.2,11.3,0.5,16.9,1.8c8.2,1.9,15.7,5.4,23.1,9.2C-2700-3318.7-2697.5-3317.2-2694.6-3316.6z M-2754.7-3191.8
					c2,0,3.9-0.1,5.9-0.4c1.9-0.3,3.8-0.7,5.6-1.3c17.2-5.4,22.4-21.4,19-34.8c-1.1-4.3-3.9-7.6-6.9-10.8c-4.9-5.4-10.7-9.7-17-13.2
					c-0.6-0.3-1.2-0.5-0.9-1.5c2.2-8.3,4.6-16.5,7.3-24.6c0.3-0.9,0.6-0.8,1.3-0.5c2.7,1.3,5.1,3,7.5,4.8c2.5,1.9,3.3,4.3,3,7.3
					c-0.2,1.4-0.3,2.9,0,4.3c1.1,4,3.9,6.3,7.7,7.4c5.2,1.5,13.3-2,12.3-10.5c-0.8-6.6-3.9-12.2-8.6-16.7c-4.7-4.5-10.4-7.6-16.4-10
					c-1.2-0.5-1.3-0.9-0.8-2c1.6-3.5,3-7,4.6-10.5c0.3-0.8,0.2-1.1-0.5-1.5c-2.5-1.1-5-2.3-7.4-3.5c-0.8-0.4-1.2-0.3-1.6,0.6
					c-1.8,4-3.6,8.1-5.2,12.2c-0.4,1.1-0.9,1.3-2,1.1c-4.4-0.6-8.7-1-13.1-0.3c-10.2,1.5-17.5,7.2-22.6,16c-2.3,3.9-3,8-2.5,12.4
					c0.8,6.7,4.1,12.1,8.7,16.8c3.6,3.7,8.1,6.3,12.5,8.8c2.1,1.2,2.1,1.2,1.6,3.6c-1.9,8.9-3.5,17.9-4.8,26.9
					c-0.1,0.9-0.4,1-1.2,0.7c-2.6-1.1-4.9-2.6-7-4.4c-3.3-3-5.2-6.6-5-11.1c0.1-1.3-0.1-2.6-0.3-3.9c-0.7-4.1-4.1-7-7.9-6.7
					c-6.2,0.5-10.6,5.3-10.6,11.4c0,4.3,1.4,8.3,3.7,12c5.7,9.3,13.9,15.6,24.3,18.8c1.3,0.4,1.7,0.9,1.5,2.3
					c-0.4,3.6-0.7,7.3-1.1,10.9c-0.1,0.9,0.2,1.2,1.1,1.2c2.6,0.1,5.2,0.3,7.8,0.5c1.2,0.1,1.5-0.3,1.5-1.4c0.2-3.3,0.6-6.5,0.9-9.7
					c0.1-0.9,0.4-1.2,1.3-1C-2757.7-3191.9-2756.2-3191.8-2754.7-3191.8z"/>
				<path class="st18" d="M-2744.2-3342c-2.6-7-3.7-14.3-4.6-21.6c-0.6-5.3-0.8-10.7,0.3-16c1.1-5.4,3.2-10.2,8.1-13.3
					c4.8-3.1,9.4-3,14.1,0.2c2.8,2,5.3,4.3,7.8,6.7c0.7,0.7,1.1,0.6,1.8,0c5-4.3,10.1-8.4,15.9-11.5c5.6-3,11.4-4.8,17.8-4.6
					c8.8,0.2,16.2,5.4,18.9,13.1c1.6,4.7,1.1,9.3-0.2,14c-0.4,1.4-0.7,2.8-1,4.2c-0.3,1-0.1,2,0.4,2.9c1.3,2.4,3,4.5,5.4,5.9
					c0.7,0.5,1.5,1,2.2,1.4c4,2.4,4.5,7.5,2.3,11c-1,1.6-2.2,3-3.5,4.2c-7.7,6.7-16.1,12.4-25.8,16c-3.4,1.2-6.9,2.1-10.4,2.8
					c-0.5-1-0.9-2.1-1.4-3.1c-3.2-5.8-7.9-10-13.9-12.6c-8.3-3.5-16.8-5-25.8-3.1C-2738.9-3344.7-2741.5-3343.3-2744.2-3342z"/>
				<path class="st18" d="M-2744.2-3342c2.7-1.3,5.3-2.7,8.3-3.3c8.9-1.9,17.5-0.4,25.8,3.1c6.1,2.6,10.8,6.8,13.9,12.6
					c0.5,1,0.9,2,1.4,3.1c0.9,2.5,1.7,5,1.5,7.7c0,1-0.3,1.9-1.4,2.2c-2.9-0.6-5.4-2.1-8-3.4c-7.4-3.8-15-7.3-23.1-9.2
					c-5.6-1.3-11.2-2-16.9-1.8c-2.3,0.1-4.5-0.1-6.7-0.8c-1.5-2.4-1.4-3.7,0.5-6C-2747.5-3339.5-2745.8-3340.7-2744.2-3342z"/>
				<path class="st18" d="M-2754.7-3191.8c-1.5-0.1-3-0.1-4.4-0.3c-0.9-0.1-1.2,0.2-1.3,1c-0.3,3.2-0.6,6.5-0.9,9.7
					c-0.1,1.1-0.4,1.5-1.5,1.4c-2.6-0.3-5.2-0.4-7.8-0.5c-0.9,0-1.2-0.3-1.1-1.2c0.4-3.6,0.6-7.3,1.1-10.9c0.2-1.3-0.2-1.9-1.5-2.3
					c-10.5-3.2-18.6-9.4-24.3-18.8c-2.2-3.6-3.6-7.6-3.7-12c0-6.2,4.5-11,10.6-11.4c3.8-0.3,7.2,2.6,7.9,6.7
					c0.2,1.3,0.3,2.6,0.3,3.9c-0.3,4.6,1.6,8.2,5,11.1c2.1,1.9,4.5,3.3,7,4.4c0.8,0.4,1.1,0.2,1.2-0.7c1.3-9,3-18,4.8-26.9
					c0.5-2.4,0.5-2.4-1.6-3.6c-4.5-2.6-8.9-5.1-12.5-8.8c-4.6-4.8-7.9-10.1-8.7-16.8c-0.5-4.4,0.2-8.5,2.5-12.4
					c5.1-8.8,12.3-14.5,22.6-16c4.4-0.7,8.8-0.3,13.1,0.3c1.1,0.2,1.6-0.1,2-1.1c1.6-4.1,3.4-8.2,5.2-12.2c0.4-0.8,0.7-1,1.6-0.6
					c2.5,1.2,4.9,2.4,7.4,3.5c0.8,0.4,0.9,0.7,0.5,1.5c-1.6,3.5-3,7-4.6,10.5c-0.5,1-0.3,1.5,0.8,2c6,2.4,11.7,5.5,16.4,10
					c4.8,4.5,7.8,10.1,8.6,16.7c1,8.5-7,12.1-12.3,10.5c-3.8-1.1-6.6-3.4-7.7-7.4c-0.4-1.4-0.2-2.9,0-4.3c0.3-3-0.4-5.4-3-7.3
					c-2.4-1.8-4.8-3.5-7.5-4.8c-0.7-0.3-1-0.3-1.3,0.5c-2.7,8.1-5.1,16.3-7.3,24.6c-0.3,1,0.3,1.2,0.9,1.5c6.3,3.5,12.1,7.9,17,13.2
					c2.9,3.2,5.8,6.5,6.9,10.8c3.4,13.4-1.8,29.4-19,34.8c-1.8,0.6-3.7,1-5.6,1.3C-2750.8-3191.9-2752.8-3191.8-2754.7-3191.8z
					 M-2755.3-3208.5c1.4,0,3.1-0.2,4.7-0.5c3.9-0.8,6.5-3.1,7.8-6.9c1.2-3.5,0.3-6.8-1.4-10c-1.9-3.5-4.9-5.9-8.1-8.2
					c-1.2-0.8-1.2-0.8-1.5,0.6c-1.5,7.4-2.9,14.9-4,22.4C-2758.2-3208.4-2758.2-3208.4-2755.3-3208.5z M-2768-3271.2
					c0.5,5.8,3.6,10,8.5,12.9c0.9,0.5,0.8-0.3,0.9-0.7c0.7-2.4,1.3-4.9,2-7.3c1.4-4.8,2.9-9.7,4.4-14.4c0.1-0.4,0.7-1.1-0.4-1.2
					c-4.6-0.2-8.8,0.7-12.4,3.8C-2766.9-3276.3-2768.1-3274-2768-3271.2z"/>
				<path class="st18" d="M-2755.3-3208.5c-2.9,0.1-2.8,0.1-2.4-2.5c1.1-7.5,2.5-15,4-22.4c0.3-1.4,0.3-1.4,1.5-0.6
					c3.2,2.2,6.2,4.7,8.1,8.2c1.7,3.2,2.6,6.5,1.4,10c-1.3,3.8-3.9,6.1-7.8,6.9C-2752.3-3208.7-2753.9-3208.5-2755.3-3208.5z"/>
				<path class="st18" d="M-2768-3271.2c-0.1-2.9,1.1-5.1,3.1-6.9c3.6-3.1,7.8-4,12.4-3.8c1.1,0.1,0.6,0.7,0.4,1.2
					c-1.6,4.8-3.1,9.6-4.4,14.4c-0.7,2.4-1.3,4.9-2,7.3c-0.1,0.4-0.1,1.2-0.9,0.7C-2764.4-3261.2-2767.5-3265.4-2768-3271.2z"/>
			</g>
		</g>
	</g>
	<g>
		<path class="st19" d="M-3205.4-3399.6h-52.7c-4,0-7.2-3.2-7.2-7.2l0,0c0-4,3.2-7.2,7.2-7.2h52.7c4,0,7.2,3.2,7.2,7.2l0,0
			C-3198.3-3402.8-3201.5-3399.6-3205.4-3399.6z"/>
		<path class="st19" d="M-3205.6-3376.9h-52.7c-4,0-7.2-3.2-7.2-7.2l0,0c0-4,3.2-7.2,7.2-7.2h52.7c4,0,7.2,3.2,7.2,7.2l0,0
			C-3198.5-3380.1-3201.7-3376.9-3205.6-3376.9z"/>
	</g>
</g>
<rect x="-5832.4" y="-4066.5" class="st7" width="220.6" height="220.6"/>
<rect x="-5611.8" y="-4066.5" class="st7" width="220.6" height="220.6"/>
<rect x="-5391.2" y="-4066.5" class="st7" width="220.6" height="220.6"/>
<g>
	<path class="st2" d="M-5240.2-3858.1c-14.4,0-28.9,0.1-43.3,0c-20.4-0.1-38.9-6.3-55.3-18.3c-13.1-9.6-23.4-21.5-30.3-36.4
		c-3.8-8.3-6.5-16.9-7.9-25.9c-0.9-5.8-1.3-11.7-1.3-17.5c0-27.1,0-54.2,0-81.3c0-4.8,3.5-9.8,8.1-11.4c1.9-0.7,4-1.1,6-1.1
		c28.4-0.1,56.8,0,85.2,0c13.2,0,26,2.3,38.3,7.4c9,3.8,17.1,9,24.6,15.2c8.3,6.9,15.3,14.9,20.8,24.3c5.8,9.9,9.6,20.4,11.7,31.7
		c1.1,6.1,1.6,12.3,1.6,18.6c0,27.5,0,54.9,0,82.4c0,6.9-5.5,12.4-12.5,12.4C-5209.8-3858.1-5225-3858.1-5240.2-3858.1z
		 M-5255.3-3895.2C-5255.3-3895.2-5255.3-3895.2-5255.3-3895.2c10.1,0,20.3,0,30.4,0c2.4,0,4.2-1.4,4.6-3.4c0.2-1.1,0.3-2.3,0.3-3.4
		c0-17.5,0.1-35.1-0.1-52.6c0-3.5-0.4-7.1-1-10.6c-2.1-11.9-7.7-22.1-16.2-30.7c-5.4-5.5-11.8-9.7-18.9-12.7
		c-6.2-2.6-12.7-4.3-19.5-4.5c-13.2-0.2-26.5-0.1-39.7-0.1c-6.8,0-13.6,0-20.3,0c-2.5,0-4.2,1.3-4.6,3.6c-0.2,0.8-0.1,1.6-0.1,2.4
		c-0.1,17.5-0.2,34.9-0.2,52.4c0,4.4,0.4,9,1.4,13.2c4.6,19.9,16.4,34,35.2,42.1c5.7,2.5,11.8,4.1,18,4.2
		C-5275.7-3895-5265.5-3895.2-5255.3-3895.2z"/>
</g>
<rect x="-5170.6" y="-4068.8" class="st7" width="220.6" height="220.6"/>
<rect x="-4950" y="-4068.8" class="st7" width="220.6" height="220.6"/>
<rect x="-4729.4" y="-4068.8" class="st7" width="220.6" height="220.6"/>
<g>
	<path class="st2" d="M-4578.4-3860.4c-14.4,0-28.9,0.1-43.3,0c-20.4-0.1-38.9-6.3-55.3-18.3c-13.1-9.6-23.4-21.5-30.3-36.4
		c-3.8-8.3-6.5-16.9-7.9-25.9c-0.9-5.8-1.3-11.7-1.3-17.5c0-27.1,0-54.2,0-81.3c0-4.8,3.5-9.8,8.1-11.4c1.9-0.7,4-1.1,6-1.1
		c28.4-0.1,56.8,0,85.2,0c13.2,0,26,2.3,38.3,7.4c9,3.8,17.1,9,24.6,15.2c8.3,6.9,15.3,14.9,20.8,24.3c5.8,9.9,9.6,20.4,11.7,31.7
		c1.1,6.1,1.6,12.3,1.6,18.6c0,27.5,0,54.9,0,82.4c0,6.9-5.5,12.4-12.5,12.4C-4548-3860.4-4563.2-3860.4-4578.4-3860.4z
		 M-4593.5-3897.5C-4593.5-3897.5-4593.5-3897.5-4593.5-3897.5c10.1,0,20.3,0,30.4,0c2.4,0,4.2-1.4,4.6-3.4c0.2-1.1,0.3-2.3,0.3-3.4
		c0-17.5,0.1-35.1-0.1-52.6c0-3.5-0.4-7.1-1-10.6c-2.1-11.9-7.7-22.1-16.2-30.7c-5.4-5.5-11.8-9.7-18.9-12.7
		c-6.2-2.6-12.7-4.3-19.5-4.5c-13.2-0.2-26.5-0.1-39.7-0.1c-6.8,0-13.6,0-20.3,0c-2.5,0-4.2,1.3-4.6,3.6c-0.2,0.8-0.1,1.6-0.1,2.4
		c-0.1,17.5-0.2,34.9-0.2,52.4c0,4.4,0.4,9,1.4,13.2c4.6,19.9,16.4,34,35.2,42.1c5.7,2.5,11.8,4.1,18,4.2
		C-4613.9-3897.3-4603.7-3897.5-4593.5-3897.5z"/>
</g>
<g>
	<g class="st6">
		<g>
			<g>
				<g>
					<path class="st2" d="M-3786.1-5360v28.6h-12.5v-49.8h8.8l16.1,16.1l16.1-16.1h8.8v49.8h-12.5v-28.6l-12.5,12.5L-3786.1-5360z"
						/>
					<path class="st2" d="M-3730-5331.4h-12.5v-49.8h12.5V-5331.4z"/>
					<path class="st2" d="M-3711.4-5360v28.6h-12.5v-49.8h8.8l28.6,28.6v-28.6h12.5v49.8h-8.8L-3711.4-5360z"/>
					<path class="st2" d="M-3617.9-5381.2v12.5h-18.7v37.4h-12.5v-37.4h-18.7v-12.5H-3617.9z"/>
					<path class="st2" d="M-3599.2-5343.9h37.4v12.5h-49.8v-49.8h12.5L-3599.2-5343.9L-3599.2-5343.9z"/>
					<path class="st2" d="M-3552.5-5353.7l-18.7-18.7v-8.8h8.8l16.1,16.1l16.1-16.1h8.8v8.8l-18.7,18.7v22.3h-12.5V-5353.7z"/>
				</g>
			</g>
		</g>
	</g>
	<g class="st6">
		<path class="st2" d="M-3859.1-5282.8c-11.1,0-22.1,0.1-33.2,0c-15.6-0.1-29.8-4.8-42.3-14c-10-7.4-18-16.5-23.2-27.8
			c-2.9-6.3-5-13-6.1-19.9c-0.7-4.5-1-8.9-1-13.4c0-20.8,0-41.5,0-62.3c0-3.7,2.7-7.5,6.2-8.7c1.5-0.5,3.1-0.8,4.6-0.8
			c21.7-0.1,43.5,0,65.2,0c10.1,0,19.9,1.7,29.3,5.7c6.9,2.9,13.1,6.9,18.8,11.7c6.3,5.3,11.7,11.4,15.9,18.6
			c4.4,7.6,7.4,15.7,9,24.3c0.9,4.7,1.2,9.4,1.2,14.2c0,21,0,42.1,0,63.1c0,5.3-4.2,9.5-9.6,9.5
			C-3835.8-5282.8-3847.5-5282.8-3859.1-5282.8z M-3870.7-5311.2C-3870.7-5311.2-3870.7-5311.2-3870.7-5311.2c7.8,0,15.5,0,23.3,0
			c1.8,0,3.2-1,3.5-2.6c0.2-0.9,0.2-1.7,0.2-2.6c0-13.4,0-26.9,0-40.3c0-2.7-0.3-5.5-0.8-8.1c-1.6-9.1-5.9-16.9-12.4-23.5
			c-4.2-4.2-9-7.4-14.5-9.7c-4.8-2-9.7-3.3-14.9-3.4c-10.1-0.2-20.3-0.1-30.4-0.1c-5.2,0-10.4,0-15.6,0c-1.9,0-3.2,1-3.5,2.7
			c-0.1,0.6-0.1,1.2-0.1,1.8c-0.1,13.4-0.2,26.7-0.1,40.1c0,3.4,0.3,6.9,1.1,10.1c3.5,15.2,12.6,26,26.9,32.2
			c4.4,1.9,9,3.1,13.8,3.2C-3886.3-5311-3878.5-5311.2-3870.7-5311.2z"/>
	</g>
</g>
<g>
	<g class="st6">
		<g>
			<g>
				<g>
					<path class="st2" d="M-2886.3-5360v28.6h-12.5v-49.8h8.8l16.1,16.1l16.1-16.1h8.8v49.8h-12.5v-28.6l-12.5,12.5L-2886.3-5360z"
						/>
					<path class="st2" d="M-2830.2-5331.4h-12.5v-49.8h12.5V-5331.4z"/>
					<path class="st2" d="M-2811.5-5360v28.6h-12.5v-49.8h8.8l28.6,28.6v-28.6h12.5v49.8h-8.8L-2811.5-5360z"/>
					<path class="st2" d="M-2718.1-5381.2v12.5h-18.7v37.4h-12.5v-37.4h-18.7v-12.5H-2718.1z"/>
					<path class="st2" d="M-2699.4-5343.9h37.4v12.5h-49.8v-49.8h12.5L-2699.4-5343.9L-2699.4-5343.9z"/>
					<path class="st2" d="M-2652.7-5353.7l-18.7-18.7v-8.8h8.8l16.1,16.1l16.1-16.1h8.8v8.8l-18.7,18.7v22.3h-12.5V-5353.7z"/>
				</g>
			</g>
		</g>
	</g>
	<g class="st6">
		<path class="st2" d="M-2959.3-5282.8c-11.1,0-22.1,0.1-33.2,0c-15.6-0.1-29.8-4.8-42.3-14c-10-7.4-18-16.5-23.2-27.8
			c-2.9-6.3-5-13-6.1-19.9c-0.7-4.5-1-8.9-1-13.4c0-20.8,0-41.5,0-62.3c0-3.7,2.7-7.5,6.2-8.7c1.5-0.5,3.1-0.8,4.6-0.8
			c21.7-0.1,43.5,0,65.2,0c10.1,0,19.9,1.7,29.3,5.7c6.9,2.9,13.1,6.9,18.8,11.7c6.3,5.3,11.7,11.4,15.9,18.6
			c4.4,7.6,7.4,15.7,9,24.3c0.9,4.7,1.2,9.4,1.2,14.2c0,21,0,42.1,0,63.1c0,5.3-4.2,9.5-9.6,9.5
			C-2936-5282.8-2947.7-5282.8-2959.3-5282.8z M-2970.9-5311.2C-2970.9-5311.2-2970.9-5311.2-2970.9-5311.2c7.8,0,15.5,0,23.3,0
			c1.8,0,3.2-1,3.5-2.6c0.2-0.9,0.2-1.7,0.2-2.6c0-13.4,0-26.9,0-40.3c0-2.7-0.3-5.5-0.8-8.1c-1.6-9.1-5.9-16.9-12.4-23.5
			c-4.2-4.2-9-7.4-14.5-9.7c-4.8-2-9.7-3.3-14.9-3.4c-10.1-0.2-20.3-0.1-30.4-0.1c-5.2,0-10.4,0-15.6,0c-1.9,0-3.2,1-3.5,2.7
			c-0.1,0.6-0.1,1.2-0.1,1.8c-0.1,13.4-0.2,26.7-0.1,40.1c0,3.4,0.3,6.9,1.1,10.1c3.5,15.2,12.6,26,26.9,32.2
			c4.4,1.9,9,3.1,13.8,3.2C-2986.5-5311-2978.7-5311.2-2970.9-5311.2z"/>
	</g>
</g>
<image style="overflow:visible;" width="328" height="294" xlink:href="C9FCA94.jpg"  transform="matrix(1 0 0 1 -2022.5923 -4321.085)">
</image>
<rect x="-2345.7" y="-5264.4" style="fill:none;" width="2.3" height="2.3"/>
<rect x="-2278.3" y="-5282" style="fill:none;" width="677.1" height="1096.9"/>
<text transform="matrix(1 0 0 1 -2278.3369 -5142.0918)" style="font-family:'Fraunces72ptSoft-Black'; font-size:185.3678px;"> </text>
<rect x="-2082.3" y="-4794.9" style="fill:none;" width="885.4" height="1268.4"/>
<text transform="matrix(1 0 0 1 -2082.252 -4654.9429)"><tspan x="0" y="0" style="font-family:'Fraunces72ptSoft-Black'; font-size:185.3678px;">Lorem </tspan><tspan x="0" y="222.4" style="font-family:'Fraunces72ptSoft-Black'; font-size:185.3678px;">ipsum </tspan><tspan x="0" y="444.9" style="font-family:'Fraunces72ptSoft-Black'; font-size:185.3678px;">dolor sit </tspan><tspan x="0" y="667.3" style="font-family:'Fraunces72ptSoft-Black'; font-size:185.3678px;">amet, </tspan><tspan x="0" y="889.8" style="font-family:'Fraunces72ptSoft-Black'; font-size:185.3678px;">consecte</tspan><tspan x="771.5" y="889.8" style="font-family:'Fraunces72ptSoft-Black'; font-size:185.3678px;">-</tspan><tspan x="0" y="1112.2" style="font-family:'Fraunces72ptSoft-Black'; font-size:185.3678px;">tuer adi</tspan></text>
<path class="st2" d="M308.1-330.8c-0.1,0.6-0.1,1.1-0.2,1.7"/>
<g>
	<path class="st20" d="M81,71.1c6.5,1.6,11.8,4.9,15.7,10.3c11.9,17,4.5,38.9-15.2,45.3c-4,1.3-8,2-12.2,2.2c-1,0.1-1.2,0.4-1.2,1.3
		c0,3.9,0,7.8,0,11.7c0,1-0.3,1.2-1.2,1.2c-4.1,0-8.1-0.1-12.2,0c-0.9,0-1.1-0.2-1.1-1.1c0-3.9,0-7.7,0.1-11.6
		c0-1.1-0.3-1.4-1.4-1.3c-1.1,0.1-2.3,0.1-3.4,0c-1-0.1-1.2,0.3-1.2,1.2c0.1,3.9,0,7.7,0,11.6c0,0.9-0.2,1.2-1.2,1.2
		c-4.1-0.1-8.1-0.1-12.2,0c-1,0-1.1-0.4-1.1-1.2c0-3.8,0-7.6,0-11.4c0-1.1-0.3-1.4-1.3-1.3c-7.4,0-14.9,0-22.3,0.1
		c-1.2,0-1.6-0.2-1.6-1.5c0-36.8,0-73.5,0-110.3c0-1.1,0.2-1.4,1.4-1.4c7.5,0.1,15.1,0,22.6,0.1c1,0,1.3-0.2,1.3-1.2
		c-0.1-3.7,0-7.4,0-11.2c0-0.9,0.2-1.2,1.2-1.2c4,0.1,8,0.1,12,0c1,0,1.3,0.2,1.3,1.2c-0.1,3.7,0,7.4,0,11.2c0,0.9,0.2,1.3,1.2,1.2
		c1.2-0.1,2.5-0.1,3.7,0c0.9,0.1,1.1-0.3,1.1-1.1c0-3.8,0-7.5,0-11.3c0-0.9,0.2-1.2,1.2-1.2c4.1,0.1,8.1,0,12.2,0
		c0.9,0,1.1,0.2,1.1,1.1c-0.1,3.9,0,7.7,0,11.6c0,0.9,0.2,1.2,1.2,1.3c5.5,0.6,10.9,1.8,15.9,4.4c9.3,4.9,14.1,12.7,14.5,23.1
		c0.2,5.5-0.6,10.8-3.5,15.7c-3.2,5.4-7.9,8.9-13.8,11c-0.4,0.1-0.7,0.2-1.1,0.4C81.1,71,81.1,71,81,71.1z M51.2,103.7
		c2.8-0.1,6.2,0.2,9.6-0.2c3.3-0.4,6.3-1.5,8-4.7c3.5-6.9-0.6-14.6-8.3-15.3c-6.6-0.6-13.2-0.1-19.8-0.2c-1,0-0.8,0.6-0.8,1.2
		c0,6.1,0,12.1,0,18.2c0,0.9,0.2,1.1,1.1,1.1C44.1,103.7,47.4,103.7,51.2,103.7z M39.8,51c0,2.9,0.1,5.7,0,8.6
		c0,1.1,0.3,1.3,1.4,1.3c4.7-0.1,9.3,0,14,0c1.4,0,2.9,0,4.3-0.3c2.9-0.5,5.4-1.6,6.9-4.4c3.5-6.5-0.1-14-7.4-14.8
		c-6.1-0.7-12.2-0.1-18.3-0.3c-0.8,0-0.8,0.5-0.8,1C39.8,45.1,39.8,48.1,39.8,51z"/>
	<path class="st21" d="M300.2,59.3c0,22.1,0,44.1,0,66c0,2.4,0,2.4-2.5,2.4c-7.8,0-15.6,0-23.3,0c-1.2,0-1.5-0.3-1.5-1.5
		c0-36.3,0-72.7,0-109c0-1.1,0.2-1.5,1.4-1.5c8.3,0.1,16.5,0.1,24.8,0c1.1,0,1.5,0.5,2,1.3c14.4,22,28.9,43.9,43.3,65.9
		c0.4,0.5,0.7,1.1,1.3,2c0-1,0-1.5,0-2c0-21.7,0-43.4,0-65.1c0-2.3-0.3-2,2.1-2c7.9,0,15.8,0,23.8,0c1.2,0,1.5,0.4,1.5,1.5
		c0,36.3,0,72.7,0,109c0,1.3-0.4,1.5-1.6,1.5c-8.2,0-16.3,0-24.5,0c-1,0-1.5-0.4-2.1-1.2c-14.4-21.9-28.9-43.8-43.4-65.7
		C301.2,60.4,300.9,59.8,300.2,59.3z"/>
	<path class="st21" d="M392.6,71.7c0-18.1,0-36.2,0-54.4c0-1.2,0.2-1.6,1.5-1.6c13.5,0.1,27.1,0,40.6,0c12,0.1,23.4,2.4,33.7,8.8
		c13.3,8.3,21.1,20.3,23.7,35.6c2.1,11.8,1.3,23.5-3.3,34.7c-6.8,16.4-19.3,26.2-36.2,30.7c-6,1.6-12.1,2.2-18.3,2.2
		c-13.5,0-26.9,0-40.4,0c-1.3,0-1.6-0.3-1.6-1.6C392.7,108,392.6,89.9,392.6,71.7z M420,71.6c0,2.4,0,4.8,0,7.2c0,8,0,15.9,0,23.9
		c0,1.1,0.3,1.5,1.4,1.4c1.1-0.1,2.2,0,3.3,0c5.6-0.1,11.3,0.3,16.8-0.8c10.2-2,17.6-7.4,21.5-17.2c2.5-6.4,2.7-13.1,2.1-19.9
		c-1.5-15.2-12.3-25.7-27.5-26.8c-5.3-0.4-10.7-0.1-16-0.3c-1.3,0-1.6,0.3-1.6,1.6C420.1,51,420,61.3,420,71.6z"/>
	<path class="st21" d="M186.7,71.6c0-18,0-36.1,0-54.1c0-1.4,0.3-1.8,1.8-1.8c21.7,0.1,43.4,0.1,65.1,0c1.5,0,1.8,0.4,1.8,1.8
		c-0.1,6.2-0.1,12.3,0,18.5c0,1.5-0.5,1.7-1.8,1.7c-12.6-0.1-25.3,0-37.9-0.1c-1.3,0-1.6,0.3-1.6,1.6c0.1,6.5,0.1,13.1,0,19.6
		c0,1.2,0.3,1.4,1.4,1.4c11.2,0,22.3,0,33.5-0.1c1.3,0,1.7,0.4,1.6,1.7c-0.1,6-0.1,12,0,18c0,1.2-0.4,1.5-1.5,1.5
		c-11.2,0-22.3,0-33.5,0c-1.1,0-1.5,0.2-1.5,1.5c0.1,7.2,0.1,14.3,0,21.5c0,1.2,0.3,1.5,1.5,1.5c12.7,0,25.5,0,38.2-0.1
		c1.4,0,1.6,0.4,1.6,1.7c-0.1,6.3,0,12.7,0,19c0,1-0.2,1.3-1.3,1.3c-22,0-44.1,0-66.1,0c-1.4,0-1.3-0.7-1.3-1.6
		C186.7,108,186.7,89.8,186.7,71.6z"/>
	<path class="st21" d="M153.7,47.8c-4.4,0-8.8,0-13.2,0c-1,0-1.5-0.1-1.7-1.4c-0.8-5.6-5-9.6-10.8-10.1c-2-0.2-4-0.3-6,0.3
		c-3.7,1-6.3,3.2-7.1,7.1c-0.8,4,0.1,7.6,3.5,10.2c2.4,1.7,5,2.9,7.7,4c6.7,2.7,13.6,4.6,20.3,7.4c5.8,2.4,11.4,5.1,15.9,9.6
		c5.7,5.8,8,12.9,7.6,20.8c-0.9,15.5-9.3,25.5-23.5,30.4c-14,4.8-28,3.7-41.5-2.2c-1.5-0.6-2.8-1.6-4.3-2.3
		c-0.5-0.3-0.8-0.5-0.3-1.2c6.4-7.1,8.3-15.5,7.6-24.8c-0.1-1.2,0.2-1.6,1.4-1.5c1.3,0.1,2.6,0.1,3.9,0c0.9-0.1,1.3,0.1,1.4,1.2
		c0.5,3.6,1.9,6.7,4.8,9c4.8,3.8,14.1,3.6,18.7-0.4c3.9-3.4,4.2-10.2,0.6-13.9c-2.6-2.7-5.8-4.3-9.2-5.6c-6.4-2.4-13.1-4-19.5-6.6
		c-5.2-2-10.3-4.1-14.5-7.8c-0.9-0.8-1.1-1.1-0.1-2.1c5.9-5.5,8.5-12.5,9-20.4c0.6-8.7-1.7-16.4-7.5-23c-0.7-0.8-0.4-1,0.2-1.5
		c5.3-4,11.2-6.5,17.7-7.6c10.5-1.8,21-1.6,31.2,2.1c11.2,4.2,18.8,11.7,21.5,23.6c0.4,1.8,0.6,3.6,0.8,5.4c0.1,1.2-0.3,1.4-1.4,1.4
		C162.7,47.7,158.2,47.8,153.7,47.8z"/>
</g>
</svg>
